{
  "asset": {
    "version": "2.0",
    "generator": "ModelConverterX"
  },
  "extensionsUsed": [
    "ASOBO_material_day_night_switch"
  ],
  "scene": 0,
  "scenes": [
    {
      "nodes": [
        0
      ]
    }
  ],
  "nodes": [
    {
      "name": "node0",
      "children": [
        1,
        2
      ]
    },
    {
      "name": "node1",
      "mesh": 0
    },
    {
      "name": "node2",
      "mesh": 1
    }
  ],
  "meshes": [
    {
      "primitives": [
        {
          "attributes": {
            "POSITION": 0,
            "NORMAL": 1,
            "TEXCOORD_0": 2
          },
          "indices": 3,
          "mode": 4,
          "material": 1
        }
      ],
      "name": "part000"
    },
    {
      "primitives": [
        {
          "attributes": {
            "POSITION": 4,
            "NORMAL": 5,
            "TEXCOORD_0": 6
          },
          "indices": 7,
          "mode": 4,
          "material": 0
        }
      ],
      "name": "part001"
    }
  ],
  "accessors": [
    {
      "bufferView": 1,
      "byteOffset": 0,
      "componentType": 5126,
      "count": 1004,
      "type": "VEC3",
      "min": [
        8.9730396270751953,
        0.0,
        19.207719802856445
      ],
      "max": [
        24.371700286865234,
        3.690000057220459,
        35.641109466552734
      ]
    },
    {
      "bufferView": 2,
      "byteOffset": 0,
      "componentType": 5126,
      "count": 1004,
      "type": "VEC3"
    },
    {
      "bufferView": 3,
      "byteOffset": 0,
      "componentType": 5126,
      "count": 1004,
      "type": "VEC2"
    },
    {
      "bufferView": 0,
      "byteOffset": 0,
      "componentType": 5125,
      "count": 2142,
      "type": "SCALAR"
    },
    {
      "bufferView": 1,
      "byteOffset": 12048,
      "componentType": 5126,
      "count": 124,
      "type": "VEC3",
      "min": [
        9.37759017944336,
        2.6400001049041748,
        25.129190444946289
      ],
      "max": [
        15.996549606323242,
        3.6399099826812744,
        35.070510864257813
      ]
    },
    {
      "bufferView": 2,
      "byteOffset": 12048,
      "componentType": 5126,
      "count": 124,
      "type": "VEC3"
    },
    {
      "bufferView": 3,
      "byteOffset": 8032,
      "componentType": 5126,
      "count": 124,
      "type": "VEC2"
    },
    {
      "bufferView": 0,
      "byteOffset": 8568,
      "componentType": 5125,
      "count": 186,
      "type": "SCALAR"
    }
  ],
  "materials": [
    {
      "name": "material00",
      "pbrMetallicRoughness": {
        "baseColorFactor": [
          1.0,
          1.0,
          1.0,
          1.0
        ],
        "roughnessFactor": 1.0,
        "metallicFactor": 0.0
      },
      "emissiveFactor": [
        0.0,
        0.0,
        0.0
      ],
      "extensions": {
        "ASOBO_material_day_night_switch": {
          "enabled": true
        }
      }
    },
    {
      "name": "material01",
      "pbrMetallicRoughness": {
        "baseColorFactor": [
          1.0,
          1.0,
          1.0,
          1.0
        ],
        "roughnessFactor": 1.0,
        "metallicFactor": 0.0,
        "baseColorTexture": {
          "index": 0
        },
        "metallicRoughnessTexture": {
          "index": 1
        }
      },
      "emissiveFactor": [
        0.0,
        0.0,
        0.0
      ],
      "normalTexture": {
        "index": 2
      },
      "occlusionTexture": {
        "index": 1
      },
      "extensions": {
        "ASOBO_material_day_night_switch": {
          "enabled": true
        }
      }
    }
  ],
  "textures": [
    {
      "source": 0,
      "name": "llmg_bld6"
    },
    {
      "source": 1,
      "name": "llmg_bld6_comp"
    },
    {
      "source": 2,
      "name": "llmg_bld6_norm"
    }
  ],
  "images": [
    {
      "uri": "llmg_bld6.png"
    },
    {
      "uri": "llmg_bld6_comp.png"
    },
    {
      "uri": "llmg_bld6_norm.png"
    }
  ],
  "bufferViews": [
    {
      "buffer": 0,
      "byteOffset": 0,
      "byteLength": 9312
    },
    {
      "buffer": 0,
      "byteOffset": 9312,
      "byteLength": 13536,
      "byteStride": 12
    },
    {
      "buffer": 0,
      "byteOffset": 22848,
      "byteLength": 13536,
      "byteStride": 12
    },
    {
      "buffer": 0,
      "byteOffset": 36384,
      "byteLength": 9024,
      "byteStride": 8
    }
  ],
  "buffers": [
    {
      "byteLength": 45408,
      "uri": "llmg_bld6.bin"
    }
  ]
}