{
  "asset": {
    "version": "2.0",
    "generator": "ModelConverterX"
  },
  "extensionsUsed": [
    "ASOBO_material_day_night_switch"
  ],
  "scene": 0,
  "scenes": [
    {
      "nodes": [
        0
      ]
    }
  ],
  "nodes": [
    {
      "name": "node0",
      "children": [
        1,
        2
      ]
    },
    {
      "name": "node1",
      "mesh": 0
    },
    {
      "name": "node2",
      "mesh": 1
    }
  ],
  "meshes": [
    {
      "primitives": [
        {
          "attributes": {
            "POSITION": 0,
            "NORMAL": 1,
            "TEXCOORD_0": 2
          },
          "indices": 3,
          "mode": 4,
          "material": 0
        }
      ],
      "name": "part000"
    },
    {
      "primitives": [
        {
          "attributes": {
            "POSITION": 4,
            "NORMAL": 5,
            "TEXCOORD_0": 6
          },
          "indices": 7,
          "mode": 4,
          "material": 1
        }
      ],
      "name": "part001"
    }
  ],
  "accessors": [
    {
      "bufferView": 1,
      "byteOffset": 0,
      "componentType": 5126,
      "count": 96,
      "type": "VEC3",
      "min": [
        -1.440000057220459,
        0.0,
        -0.10999999940395355
      ],
      "max": [
        0.039999999105930328,
        2.5099999904632568,
        1.4399900436401367
      ]
    },
    {
      "bufferView": 2,
      "byteOffset": 0,
      "componentType": 5126,
      "count": 96,
      "type": "VEC3"
    },
    {
      "bufferView": 3,
      "byteOffset": 0,
      "componentType": 5126,
      "count": 96,
      "type": "VEC2"
    },
    {
      "bufferView": 0,
      "byteOffset": 0,
      "componentType": 5125,
      "count": 168,
      "type": "SCALAR"
    },
    {
      "bufferView": 1,
      "byteOffset": 1152,
      "componentType": 5126,
      "count": 20,
      "type": "VEC3",
      "min": [
        -1.440000057220459,
        2.3395900726318359,
        -0.039999999105930328
      ],
      "max": [
        0.039999999105930328,
        2.4895899295806885,
        1.4399900436401367
      ]
    },
    {
      "bufferView": 2,
      "byteOffset": 1152,
      "componentType": 5126,
      "count": 20,
      "type": "VEC3"
    },
    {
      "bufferView": 3,
      "byteOffset": 768,
      "componentType": 5126,
      "count": 20,
      "type": "VEC2"
    },
    {
      "bufferView": 0,
      "byteOffset": 672,
      "componentType": 5125,
      "count": 42,
      "type": "SCALAR"
    }
  ],
  "materials": [
    {
      "name": "material00",
      "pbrMetallicRoughness": {
        "baseColorFactor": [
          1.0,
          1.0,
          1.0,
          1.0
        ],
        "roughnessFactor": 1.0,
        "metallicFactor": 0.0,
        "baseColorTexture": {
          "index": 0
        },
        "metallicRoughnessTexture": {
          "index": 1
        }
      },
      "emissiveFactor": [
        0.0,
        0.0,
        0.0
      ],
      "normalTexture": {
        "index": 2
      },
      "occlusionTexture": {
        "index": 1
      },
      "extensions": {
        "ASOBO_material_day_night_switch": {
          "enabled": true
        }
      }
    },
    {
      "name": "material01",
      "pbrMetallicRoughness": {
        "baseColorFactor": [
          1.0,
          1.0,
          1.0,
          1.0
        ],
        "roughnessFactor": 1.0,
        "metallicFactor": 0.0
      },
      "emissiveFactor": [
        0.0,
        0.0,
        0.0
      ],
      "extensions": {
        "ASOBO_material_day_night_switch": {
          "enabled": true
        }
      }
    }
  ],
  "textures": [
    {
      "source": 0,
      "name": "40ftcontainer_budke"
    },
    {
      "source": 1,
      "name": "40ftcontainer_budke_comp"
    },
    {
      "source": 2,
      "name": "40ftcontainer_budke_norm"
    }
  ],
  "images": [
    {
      "uri": "40ftcontainer_budke.png"
    },
    {
      "uri": "40ftcontainer_budke_comp.png"
    },
    {
      "uri": "40ftcontainer_budke_norm.png"
    }
  ],
  "bufferViews": [
    {
      "buffer": 0,
      "byteOffset": 0,
      "byteLength": 840
    },
    {
      "buffer": 0,
      "byteOffset": 840,
      "byteLength": 1392,
      "byteStride": 12
    },
    {
      "buffer": 0,
      "byteOffset": 2232,
      "byteLength": 1392,
      "byteStride": 12
    },
    {
      "buffer": 0,
      "byteOffset": 3624,
      "byteLength": 928,
      "byteStride": 8
    }
  ],
  "buffers": [
    {
      "byteLength": 4552,
      "uri": "ChimNirBudke.bin"
    }
  ]
}