{
  "asset": {
    "version": "2.0",
    "generator": "ModelConverterX"
  },
  "extensionsUsed": [],
  "scene": 0,
  "scenes": [
    {
      "nodes": [
        0
      ]
    }
  ],
  "nodes": [
    {
      "name": "node0",
      "children": [
        1
      ]
    },
    {
      "name": "node1",
      "mesh": 0
    }
  ],
  "meshes": [
    {
      "primitives": [
        {
          "attributes": {
            "POSITION": 0,
            "NORMAL": 1,
            "TEXCOORD_0": 2
          },
          "indices": 3,
          "mode": 4,
          "material": 0
        }
      ],
      "name": "part000"
    }
  ],
  "accessors": [
    {
      "bufferView": 1,
      "byteOffset": 0,
      "componentType": 5126,
      "count": 66,
      "type": "VEC3",
      "min": [
        0.0,
        0.0,
        -0.52668
      ],
      "max": [
        0.525,
        0.525,
        -0.00168
      ]
    },
    {
      "bufferView": 2,
      "byteOffset": 0,
      "componentType": 5126,
      "count": 66,
      "type": "VEC3"
    },
    {
      "bufferView": 3,
      "byteOffset": 0,
      "componentType": 5126,
      "count": 66,
      "type": "VEC2"
    },
    {
      "bufferView": 0,
      "byteOffset": 0,
      "componentType": 5125,
      "count": 126,
      "type": "SCALAR"
    }
  ],
  "materials": [
    {
      "pbrMetallicRoughness": {
        "baseColorFactor": [
          1.0,
          1.0,
          1.0,
          1.0
        ],
        "roughnessFactor": 1.0,
        "metallicFactor": 0.0,
        "baseColorTexture": {
          "index": 0
        }
      },
      "emissiveFactor": [
        0.0,
        0.0,
        0.0
      ]
    }
  ],
  "textures": [
    {
      "source": 0,
      "name": "cartonbox3"
    }
  ],
  "images": [
    {
      "uri": "cartonbox3.png"
    }
  ],
  "bufferViews": [
    {
      "buffer": 0,
      "byteOffset": 0,
      "byteLength": 504
    },
    {
      "buffer": 0,
      "byteOffset": 504,
      "byteLength": 792
    },
    {
      "buffer": 0,
      "byteOffset": 1296,
      "byteLength": 792
    },
    {
      "buffer": 0,
      "byteOffset": 2088,
      "byteLength": 528
    }
  ],
  "buffers": [
    {
      "byteLength": 2616,
      "uri": "CartonBox3.bin"
    }
  ]
}