{
  "asset": {
    "version": "2.0",
    "generator": "ModelConverterX"
  },
  "extensionsUsed": [],
  "scene": 0,
  "scenes": [
    {
      "nodes": [
        0
      ]
    }
  ],
  "nodes": [
    {
      "name": "node0",
      "children": [
        1,
        2,
        3,
        4,
        5,
        6,
        7,
        8,
        9
      ]
    },
    {
      "name": "node1",
      "mesh": 0
    },
    {
      "name": "node2",
      "mesh": 1
    },
    {
      "name": "node3",
      "mesh": 2
    },
    {
      "name": "node4",
      "mesh": 3
    },
    {
      "name": "node5",
      "mesh": 4
    },
    {
      "name": "node6",
      "mesh": 5
    },
    {
      "name": "node7",
      "mesh": 6
    },
    {
      "name": "node8",
      "mesh": 7
    },
    {
      "name": "node9",
      "mesh": 8
    }
  ],
  "meshes": [
    {
      "primitives": [
        {
          "attributes": {
            "POSITION": 0,
            "NORMAL": 1,
            "TEXCOORD_0": 2
          },
          "indices": 3,
          "mode": 4,
          "material": 4
        }
      ],
      "name": "part000"
    },
    {
      "primitives": [
        {
          "attributes": {
            "POSITION": 4,
            "NORMAL": 5,
            "TEXCOORD_0": 6
          },
          "indices": 7,
          "mode": 4,
          "material": 8
        }
      ],
      "name": "part001"
    },
    {
      "primitives": [
        {
          "attributes": {
            "POSITION": 8,
            "NORMAL": 9,
            "TEXCOORD_0": 10
          },
          "indices": 11,
          "mode": 4,
          "material": 7
        }
      ],
      "name": "part002"
    },
    {
      "primitives": [
        {
          "attributes": {
            "POSITION": 12,
            "NORMAL": 13,
            "TEXCOORD_0": 14
          },
          "indices": 15,
          "mode": 4,
          "material": 3
        }
      ],
      "name": "part003"
    },
    {
      "primitives": [
        {
          "attributes": {
            "POSITION": 16,
            "NORMAL": 17,
            "TEXCOORD_0": 18
          },
          "indices": 19,
          "mode": 4,
          "material": 2
        }
      ],
      "name": "part004"
    },
    {
      "primitives": [
        {
          "attributes": {
            "POSITION": 20,
            "NORMAL": 21,
            "TEXCOORD_0": 22
          },
          "indices": 23,
          "mode": 4,
          "material": 1
        }
      ],
      "name": "part005"
    },
    {
      "primitives": [
        {
          "attributes": {
            "POSITION": 24,
            "NORMAL": 25,
            "TEXCOORD_0": 26
          },
          "indices": 27,
          "mode": 4,
          "material": 0
        }
      ],
      "name": "part006"
    },
    {
      "primitives": [
        {
          "attributes": {
            "POSITION": 28,
            "NORMAL": 29,
            "TEXCOORD_0": 30
          },
          "indices": 31,
          "mode": 4,
          "material": 6
        }
      ],
      "name": "part007"
    },
    {
      "primitives": [
        {
          "attributes": {
            "POSITION": 32,
            "NORMAL": 33,
            "TEXCOORD_0": 34
          },
          "indices": 35,
          "mode": 4,
          "material": 5
        }
      ],
      "name": "part008"
    }
  ],
  "accessors": [
    {
      "bufferView": 1,
      "byteOffset": 0,
      "componentType": 5126,
      "count": 378,
      "type": "VEC3",
      "min": [
        -0.18164,
        0.22168,
        -2.04102
      ],
      "max": [
        0.38574,
        1.00391,
        -0.0459
      ]
    },
    {
      "bufferView": 2,
      "byteOffset": 0,
      "componentType": 5126,
      "count": 378,
      "type": "VEC3"
    },
    {
      "bufferView": 3,
      "byteOffset": 0,
      "componentType": 5126,
      "count": 378,
      "type": "VEC2"
    },
    {
      "bufferView": 0,
      "byteOffset": 0,
      "componentType": 5125,
      "count": 1860,
      "type": "SCALAR"
    },
    {
      "bufferView": 1,
      "byteOffset": 4536,
      "componentType": 5126,
      "count": 289,
      "type": "VEC3",
      "min": [
        -0.16992,
        0.26269,
        -1.17188
      ],
      "max": [
        0.3457,
        0.9375,
        -0.05176
      ]
    },
    {
      "bufferView": 2,
      "byteOffset": 4536,
      "componentType": 5126,
      "count": 289,
      "type": "VEC3"
    },
    {
      "bufferView": 3,
      "byteOffset": 3024,
      "componentType": 5126,
      "count": 289,
      "type": "VEC2"
    },
    {
      "bufferView": 0,
      "byteOffset": 7440,
      "componentType": 5125,
      "count": 1392,
      "type": "SCALAR"
    },
    {
      "bufferView": 1,
      "byteOffset": 8004,
      "componentType": 5126,
      "count": 26,
      "type": "VEC3",
      "min": [
        -0.18555,
        0.23144,
        -0.13574
      ],
      "max": [
        0.36719,
        0.96484,
        -0.06543
      ]
    },
    {
      "bufferView": 2,
      "byteOffset": 8004,
      "componentType": 5126,
      "count": 26,
      "type": "VEC3"
    },
    {
      "bufferView": 3,
      "byteOffset": 5336,
      "componentType": 5126,
      "count": 26,
      "type": "VEC2"
    },
    {
      "bufferView": 0,
      "byteOffset": 13008,
      "componentType": 5125,
      "count": 72,
      "type": "SCALAR"
    },
    {
      "bufferView": 1,
      "byteOffset": 8316,
      "componentType": 5126,
      "count": 1062,
      "type": "VEC3",
      "min": [
        -7.16602,
        0.14063,
        -0.20996
      ],
      "max": [
        7.66992,
        2.83594,
        0.91797
      ]
    },
    {
      "bufferView": 2,
      "byteOffset": 8316,
      "componentType": 5126,
      "count": 1062,
      "type": "VEC3"
    },
    {
      "bufferView": 3,
      "byteOffset": 5544,
      "componentType": 5126,
      "count": 1062,
      "type": "VEC2"
    },
    {
      "bufferView": 0,
      "byteOffset": 13296,
      "componentType": 5125,
      "count": 4644,
      "type": "SCALAR"
    },
    {
      "bufferView": 1,
      "byteOffset": 21060,
      "componentType": 5126,
      "count": 4509,
      "type": "VEC3",
      "min": [
        -5.80762,
        -0.01465,
        -2.04102
      ],
      "max": [
        6.14258,
        1.95215,
        4.56348
      ]
    },
    {
      "bufferView": 2,
      "byteOffset": 21060,
      "componentType": 5126,
      "count": 4509,
      "type": "VEC3"
    },
    {
      "bufferView": 3,
      "byteOffset": 14040,
      "componentType": 5126,
      "count": 4509,
      "type": "VEC2"
    },
    {
      "bufferView": 0,
      "byteOffset": 31872,
      "componentType": 5125,
      "count": 16671,
      "type": "SCALAR"
    },
    {
      "bufferView": 1,
      "byteOffset": 75168,
      "componentType": 5126,
      "count": 300,
      "type": "VEC3",
      "min": [
        -7.14453,
        -0.00098,
        -2.04102
      ],
      "max": [
        7.66797,
        2.81152,
        4.22949
      ]
    },
    {
      "bufferView": 2,
      "byteOffset": 75168,
      "componentType": 5126,
      "count": 300,
      "type": "VEC3"
    },
    {
      "bufferView": 3,
      "byteOffset": 50112,
      "componentType": 5126,
      "count": 300,
      "type": "VEC2"
    },
    {
      "bufferView": 0,
      "byteOffset": 98556,
      "componentType": 5125,
      "count": 720,
      "type": "SCALAR"
    },
    {
      "bufferView": 1,
      "byteOffset": 78768,
      "componentType": 5126,
      "count": 438,
      "type": "VEC3",
      "min": [
        -0.14453,
        0.70996,
        -0.83789
      ],
      "max": [
        -0.07324,
        0.83594,
        -0.58105
      ]
    },
    {
      "bufferView": 2,
      "byteOffset": 78768,
      "componentType": 5126,
      "count": 438,
      "type": "VEC3"
    },
    {
      "bufferView": 3,
      "byteOffset": 52512,
      "componentType": 5126,
      "count": 438,
      "type": "VEC2"
    },
    {
      "bufferView": 0,
      "byteOffset": 101436,
      "componentType": 5125,
      "count": 2430,
      "type": "SCALAR"
    },
    {
      "bufferView": 1,
      "byteOffset": 84024,
      "componentType": 5126,
      "count": 123,
      "type": "VEC3",
      "min": [
        -0.16992,
        0.60058,
        -1.63477
      ],
      "max": [
        0.38184,
        1.02832,
        -0.15723
      ]
    },
    {
      "bufferView": 2,
      "byteOffset": 84024,
      "componentType": 5126,
      "count": 123,
      "type": "VEC3"
    },
    {
      "bufferView": 3,
      "byteOffset": 56016,
      "componentType": 5126,
      "count": 123,
      "type": "VEC2"
    },
    {
      "bufferView": 0,
      "byteOffset": 111156,
      "componentType": 5125,
      "count": 588,
      "type": "SCALAR"
    },
    {
      "bufferView": 1,
      "byteOffset": 85500,
      "componentType": 5126,
      "count": 123,
      "type": "VEC3",
      "min": [
        -0.16992,
        0.60058,
        -1.63477
      ],
      "max": [
        0.38184,
        1.02832,
        -0.15723
      ]
    },
    {
      "bufferView": 2,
      "byteOffset": 85500,
      "componentType": 5126,
      "count": 123,
      "type": "VEC3"
    },
    {
      "bufferView": 3,
      "byteOffset": 57000,
      "componentType": 5126,
      "count": 123,
      "type": "VEC2"
    },
    {
      "bufferView": 0,
      "byteOffset": 113508,
      "componentType": 5125,
      "count": 588,
      "type": "SCALAR"
    }
  ],
  "materials": [
    {
      "pbrMetallicRoughness": {
        "baseColorFactor": [
          0.5,
          0.5,
          0.5,
          0.20000000298023224
        ],
        "roughnessFactor": 1.0,
        "metallicFactor": 0.0
      },
      "emissiveFactor": [
        0.0,
        0.0,
        0.0
      ]
    },
    {
      "pbrMetallicRoughness": {
        "baseColorFactor": [
          0.800000011920929,
          0.800000011920929,
          0.800000011920929,
          1.0
        ],
        "roughnessFactor": 1.0,
        "metallicFactor": 0.0
      },
      "emissiveFactor": [
        0.0,
        0.0,
        0.0
      ]
    },
    {
      "pbrMetallicRoughness": {
        "baseColorFactor": [
          0.800000011920929,
          0.800000011920929,
          0.800000011920929,
          1.0
        ],
        "roughnessFactor": 1.0,
        "metallicFactor": 0.0,
        "baseColorTexture": {
          "index": 0
        }
      },
      "emissiveFactor": [
        0.0,
        0.0,
        0.0
      ]
    },
    {
      "pbrMetallicRoughness": {
        "baseColorFactor": [
          0.800000011920929,
          0.800000011920929,
          0.800000011920929,
          1.0
        ],
        "roughnessFactor": 1.0,
        "metallicFactor": 0.0,
        "baseColorTexture": {
          "index": 1
        }
      },
      "emissiveFactor": [
        0.0,
        0.0,
        0.0
      ]
    },
    {
      "pbrMetallicRoughness": {
        "baseColorFactor": [
          0.800000011920929,
          0.800000011920929,
          0.800000011920929,
          1.0
        ],
        "roughnessFactor": 1.0,
        "metallicFactor": 0.0,
        "baseColorTexture": {
          "index": 2
        }
      },
      "emissiveFactor": [
        0.0,
        0.0,
        0.0
      ]
    },
    {
      "pbrMetallicRoughness": {
        "baseColorFactor": [
          0.5,
          0.699999988079071,
          0.699999988079071,
          0.10000000149011612
        ],
        "roughnessFactor": 1.0,
        "metallicFactor": 0.0,
        "baseColorTexture": {
          "index": 3
        }
      },
      "emissiveFactor": [
        0.0,
        0.0,
        0.0
      ]
    },
    {
      "pbrMetallicRoughness": {
        "baseColorFactor": [
          0.0,
          0.30000001192092896,
          0.5,
          0.30000001192092896
        ],
        "roughnessFactor": 1.0,
        "metallicFactor": 0.0,
        "baseColorTexture": {
          "index": 4
        }
      },
      "emissiveFactor": [
        0.0,
        0.0,
        0.0
      ]
    },
    {
      "pbrMetallicRoughness": {
        "baseColorFactor": [
          0.800000011920929,
          0.800000011920929,
          0.800000011920929,
          1.0
        ],
        "roughnessFactor": 1.0,
        "metallicFactor": 0.0,
        "baseColorTexture": {
          "index": 5
        }
      },
      "emissiveFactor": [
        0.0,
        0.0,
        0.0
      ]
    },
    {
      "pbrMetallicRoughness": {
        "baseColorFactor": [
          0.800000011920929,
          0.800000011920929,
          0.800000011920929,
          1.0
        ],
        "roughnessFactor": 1.0,
        "metallicFactor": 0.0,
        "baseColorTexture": {
          "index": 6
        }
      },
      "emissiveFactor": [
        0.0,
        0.0,
        0.0
      ]
    }
  ],
  "textures": [
    {
      "source": 0,
      "name": "discus2_1"
    },
    {
      "source": 1,
      "name": "discus2_2"
    },
    {
      "source": 2,
      "name": "discus2_4"
    },
    {
      "source": 3,
      "name": "discus2_6"
    },
    {
      "source": 4,
      "name": "ds_glass1"
    },
    {
      "source": 5,
      "name": "duo_3"
    },
    {
      "source": 6,
      "name": "duo_5"
    }
  ],
  "images": [
    {
      "uri": "discus2_1.png"
    },
    {
      "uri": "discus2_2.png"
    },
    {
      "uri": "discus2_4.png"
    },
    {
      "uri": "discus2_6.png"
    },
    {
      "uri": "ds_glass1.png"
    },
    {
      "uri": "duo_3.png"
    },
    {
      "uri": "duo_5.png"
    }
  ],
  "bufferViews": [
    {
      "buffer": 0,
      "byteOffset": 0,
      "byteLength": 115860
    },
    {
      "buffer": 0,
      "byteOffset": 115860,
      "byteLength": 86976
    },
    {
      "buffer": 0,
      "byteOffset": 202836,
      "byteLength": 86976
    },
    {
      "buffer": 0,
      "byteOffset": 289812,
      "byteLength": 57984
    }
  ],
  "buffers": [
    {
      "byteLength": 347796,
      "uri": "Discus_2b_stat.bin"
    }
  ]
}