{
  "asset": {
    "version": "2.0",
    "generator": "ModelConverterX"
  },
  "extensionsUsed": [],
  "scene": 0,
  "scenes": [
    {
      "nodes": [
        0
      ]
    }
  ],
  "nodes": [
    {
      "name": "node0",
      "children": [
        1,
        2,
        3,
        4,
        5,
        6,
        7,
        8,
        9,
        10,
        11
      ]
    },
    {
      "name": "node1",
      "mesh": 0
    },
    {
      "name": "node2",
      "mesh": 1
    },
    {
      "name": "node3",
      "mesh": 2
    },
    {
      "name": "node4",
      "mesh": 3
    },
    {
      "name": "node5",
      "mesh": 4
    },
    {
      "name": "node6",
      "mesh": 5
    },
    {
      "name": "node7",
      "mesh": 6
    },
    {
      "name": "node8",
      "mesh": 7
    },
    {
      "name": "node9",
      "mesh": 8
    },
    {
      "name": "node10",
      "mesh": 9
    },
    {
      "name": "node11",
      "mesh": 10
    }
  ],
  "meshes": [
    {
      "primitives": [
        {
          "attributes": {
            "POSITION": 0,
            "NORMAL": 1,
            "TEXCOORD_0": 2
          },
          "indices": 3,
          "mode": 4,
          "material": 9
        }
      ],
      "name": "part000"
    },
    {
      "primitives": [
        {
          "attributes": {
            "POSITION": 4,
            "NORMAL": 5,
            "TEXCOORD_0": 6
          },
          "indices": 7,
          "mode": 4,
          "material": 3
        }
      ],
      "name": "part001"
    },
    {
      "primitives": [
        {
          "attributes": {
            "POSITION": 8,
            "NORMAL": 9,
            "TEXCOORD_0": 10
          },
          "indices": 11,
          "mode": 4,
          "material": 10
        }
      ],
      "name": "part002"
    },
    {
      "primitives": [
        {
          "attributes": {
            "POSITION": 12,
            "NORMAL": 13,
            "TEXCOORD_0": 14
          },
          "indices": 15,
          "mode": 4,
          "material": 1
        }
      ],
      "name": "part003"
    },
    {
      "primitives": [
        {
          "attributes": {
            "POSITION": 16,
            "NORMAL": 17,
            "TEXCOORD_0": 18
          },
          "indices": 19,
          "mode": 4,
          "material": 4
        }
      ],
      "name": "part004"
    },
    {
      "primitives": [
        {
          "attributes": {
            "POSITION": 20,
            "NORMAL": 21,
            "TEXCOORD_0": 22
          },
          "indices": 23,
          "mode": 4,
          "material": 5
        }
      ],
      "name": "part005"
    },
    {
      "primitives": [
        {
          "attributes": {
            "POSITION": 24,
            "NORMAL": 25,
            "TEXCOORD_0": 26
          },
          "indices": 27,
          "mode": 4,
          "material": 6
        }
      ],
      "name": "part006"
    },
    {
      "primitives": [
        {
          "attributes": {
            "POSITION": 28,
            "NORMAL": 29,
            "TEXCOORD_0": 30
          },
          "indices": 31,
          "mode": 4,
          "material": 7
        }
      ],
      "name": "part007"
    },
    {
      "primitives": [
        {
          "attributes": {
            "POSITION": 32,
            "NORMAL": 33,
            "TEXCOORD_0": 34
          },
          "indices": 35,
          "mode": 4,
          "material": 8
        }
      ],
      "name": "part008"
    },
    {
      "primitives": [
        {
          "attributes": {
            "POSITION": 36,
            "NORMAL": 37,
            "TEXCOORD_0": 38
          },
          "indices": 39,
          "mode": 4,
          "material": 2
        }
      ],
      "name": "part009"
    },
    {
      "primitives": [
        {
          "attributes": {
            "POSITION": 40,
            "NORMAL": 41,
            "TEXCOORD_0": 42
          },
          "indices": 43,
          "mode": 4,
          "material": 0
        }
      ],
      "name": "part010"
    }
  ],
  "accessors": [
    {
      "bufferView": 1,
      "byteOffset": 0,
      "componentType": 5126,
      "count": 614,
      "type": "VEC3",
      "min": [
        -7.58692,
        0.08789,
        -0.33984
      ],
      "max": [
        7.22559,
        2.34375,
        0.73437
      ]
    },
    {
      "bufferView": 2,
      "byteOffset": 0,
      "componentType": 5126,
      "count": 614,
      "type": "VEC3"
    },
    {
      "bufferView": 3,
      "byteOffset": 0,
      "componentType": 5126,
      "count": 614,
      "type": "VEC2"
    },
    {
      "bufferView": 0,
      "byteOffset": 0,
      "componentType": 5125,
      "count": 6912,
      "type": "SCALAR"
    },
    {
      "bufferView": 1,
      "byteOffset": 7368,
      "componentType": 5126,
      "count": 7,
      "type": "VEC3",
      "min": [
        -0.22266,
        1.43945,
        4.35449
      ],
      "max": [
        -0.11035,
        1.4873,
        4.50586
      ]
    },
    {
      "bufferView": 2,
      "byteOffset": 7368,
      "componentType": 5126,
      "count": 7,
      "type": "VEC3"
    },
    {
      "bufferView": 3,
      "byteOffset": 4912,
      "componentType": 5126,
      "count": 7,
      "type": "VEC2"
    },
    {
      "bufferView": 0,
      "byteOffset": 27648,
      "componentType": 5125,
      "count": 9,
      "type": "SCALAR"
    },
    {
      "bufferView": 1,
      "byteOffset": 7452,
      "componentType": 5126,
      "count": 268,
      "type": "VEC3",
      "min": [
        -0.39746,
        0.35449,
        -1.35547
      ],
      "max": [
        0.19531,
        1.03125,
        -0.28418
      ]
    },
    {
      "bufferView": 2,
      "byteOffset": 7452,
      "componentType": 5126,
      "count": 268,
      "type": "VEC3"
    },
    {
      "bufferView": 3,
      "byteOffset": 4968,
      "componentType": 5126,
      "count": 268,
      "type": "VEC2"
    },
    {
      "bufferView": 0,
      "byteOffset": 27684,
      "componentType": 5125,
      "count": 1308,
      "type": "SCALAR"
    },
    {
      "bufferView": 1,
      "byteOffset": 10668,
      "componentType": 5126,
      "count": 40,
      "type": "VEC3",
      "min": [
        -0.14453,
        0.18164,
        -0.2793
      ],
      "max": [
        0.06152,
        0.375,
        -0.08789
      ]
    },
    {
      "bufferView": 2,
      "byteOffset": 10668,
      "componentType": 5126,
      "count": 40,
      "type": "VEC3"
    },
    {
      "bufferView": 3,
      "byteOffset": 7112,
      "componentType": 5126,
      "count": 40,
      "type": "VEC2"
    },
    {
      "bufferView": 0,
      "byteOffset": 32916,
      "componentType": 5125,
      "count": 60,
      "type": "SCALAR"
    },
    {
      "bufferView": 1,
      "byteOffset": 11148,
      "componentType": 5126,
      "count": 682,
      "type": "VEC3",
      "min": [
        -0.14453,
        0.16113,
        -0.3457
      ],
      "max": [
        0.06445,
        0.37793,
        -0.08789
      ]
    },
    {
      "bufferView": 2,
      "byteOffset": 11148,
      "componentType": 5126,
      "count": 682,
      "type": "VEC3"
    },
    {
      "bufferView": 3,
      "byteOffset": 7432,
      "componentType": 5126,
      "count": 682,
      "type": "VEC2"
    },
    {
      "bufferView": 0,
      "byteOffset": 33156,
      "componentType": 5125,
      "count": 996,
      "type": "SCALAR"
    },
    {
      "bufferView": 1,
      "byteOffset": 19332,
      "componentType": 5126,
      "count": 348,
      "type": "VEC3",
      "min": [
        -0.12793,
        0.04785,
        -0.38965
      ],
      "max": [
        0.06641,
        0.33594,
        4.14356
      ]
    },
    {
      "bufferView": 2,
      "byteOffset": 19332,
      "componentType": 5126,
      "count": 348,
      "type": "VEC3"
    },
    {
      "bufferView": 3,
      "byteOffset": 12888,
      "componentType": 5126,
      "count": 348,
      "type": "VEC2"
    },
    {
      "bufferView": 0,
      "byteOffset": 37140,
      "componentType": 5125,
      "count": 1239,
      "type": "SCALAR"
    },
    {
      "bufferView": 1,
      "byteOffset": 23508,
      "componentType": 5126,
      "count": 178,
      "type": "VEC3",
      "min": [
        -0.125,
        0.12402,
        -0.30273
      ],
      "max": [
        0.06641,
        0.25977,
        -0.18066
      ]
    },
    {
      "bufferView": 2,
      "byteOffset": 23508,
      "componentType": 5126,
      "count": 178,
      "type": "VEC3"
    },
    {
      "bufferView": 3,
      "byteOffset": 15672,
      "componentType": 5126,
      "count": 178,
      "type": "VEC2"
    },
    {
      "bufferView": 0,
      "byteOffset": 42096,
      "componentType": 5125,
      "count": 360,
      "type": "SCALAR"
    },
    {
      "bufferView": 1,
      "byteOffset": 25644,
      "componentType": 5126,
      "count": 434,
      "type": "VEC3",
      "min": [
        -1.45898,
        0.12988,
        -2.12109
      ],
      "max": [
        1.02148,
        1.68457,
        4.50586
      ]
    },
    {
      "bufferView": 2,
      "byteOffset": 25644,
      "componentType": 5126,
      "count": 434,
      "type": "VEC3"
    },
    {
      "bufferView": 3,
      "byteOffset": 17096,
      "componentType": 5126,
      "count": 434,
      "type": "VEC2"
    },
    {
      "bufferView": 0,
      "byteOffset": 43536,
      "componentType": 5125,
      "count": 1533,
      "type": "SCALAR"
    },
    {
      "bufferView": 1,
      "byteOffset": 30852,
      "componentType": 5126,
      "count": 3073,
      "type": "VEC3",
      "min": [
        -7.56543,
        0.08301,
        -2.23438
      ],
      "max": [
        7.20508,
        2.31348,
        4.66699
      ]
    },
    {
      "bufferView": 2,
      "byteOffset": 30852,
      "componentType": 5126,
      "count": 3073,
      "type": "VEC3"
    },
    {
      "bufferView": 3,
      "byteOffset": 20568,
      "componentType": 5126,
      "count": 3073,
      "type": "VEC2"
    },
    {
      "bufferView": 0,
      "byteOffset": 49668,
      "componentType": 5125,
      "count": 11589,
      "type": "SCALAR"
    },
    {
      "bufferView": 1,
      "byteOffset": 67728,
      "componentType": 5126,
      "count": 475,
      "type": "VEC3",
      "min": [
        -7.58692,
        0.08789,
        -1.41113
      ],
      "max": [
        7.22559,
        2.33301,
        4.43164
      ]
    },
    {
      "bufferView": 2,
      "byteOffset": 67728,
      "componentType": 5126,
      "count": 475,
      "type": "VEC3"
    },
    {
      "bufferView": 3,
      "byteOffset": 45152,
      "componentType": 5126,
      "count": 475,
      "type": "VEC2"
    },
    {
      "bufferView": 0,
      "byteOffset": 96024,
      "componentType": 5125,
      "count": 1389,
      "type": "SCALAR"
    },
    {
      "bufferView": 1,
      "byteOffset": 73428,
      "componentType": 5126,
      "count": 406,
      "type": "VEC3",
      "min": [
        -0.42473,
        0.68652,
        -1.76172
      ],
      "max": [
        0.18848,
        1.12695,
        -0.21094
      ]
    },
    {
      "bufferView": 2,
      "byteOffset": 73428,
      "componentType": 5126,
      "count": 406,
      "type": "VEC3"
    },
    {
      "bufferView": 3,
      "byteOffset": 48952,
      "componentType": 5126,
      "count": 406,
      "type": "VEC2"
    },
    {
      "bufferView": 0,
      "byteOffset": 101580,
      "componentType": 5125,
      "count": 1719,
      "type": "SCALAR"
    }
  ],
  "materials": [
    {
      "pbrMetallicRoughness": {
        "baseColorFactor": [
          0.0,
          0.5,
          0.5,
          0.20000000298023224
        ],
        "roughnessFactor": 1.0,
        "metallicFactor": 0.0
      },
      "emissiveFactor": [
        0.0,
        0.0,
        0.0
      ]
    },
    {
      "pbrMetallicRoughness": {
        "baseColorFactor": [
          0.5,
          0.60000002384185791,
          0.699999988079071,
          1.0
        ],
        "roughnessFactor": 1.0,
        "metallicFactor": 0.0
      },
      "emissiveFactor": [
        0.0,
        0.0,
        0.0
      ]
    },
    {
      "pbrMetallicRoughness": {
        "baseColorFactor": [
          0.800000011920929,
          0.800000011920929,
          0.800000011920929,
          1.0
        ],
        "roughnessFactor": 1.0,
        "metallicFactor": 0.0
      },
      "emissiveFactor": [
        0.0,
        0.0,
        0.0
      ]
    },
    {
      "pbrMetallicRoughness": {
        "baseColorFactor": [
          1.0,
          1.0,
          1.0,
          1.0
        ],
        "roughnessFactor": 1.0,
        "metallicFactor": 0.0
      },
      "emissiveFactor": [
        0.0,
        0.0,
        0.0
      ]
    },
    {
      "pbrMetallicRoughness": {
        "baseColorFactor": [
          0.5,
          0.60000002384185791,
          0.699999988079071,
          1.0
        ],
        "roughnessFactor": 1.0,
        "metallicFactor": 0.0,
        "baseColorTexture": {
          "index": 0
        }
      },
      "emissiveFactor": [
        0.0,
        0.0,
        0.0
      ]
    },
    {
      "pbrMetallicRoughness": {
        "baseColorFactor": [
          0.20000000298023224,
          0.20000000298023224,
          0.20000000298023224,
          1.0
        ],
        "roughnessFactor": 1.0,
        "metallicFactor": 0.0,
        "baseColorTexture": {
          "index": 0
        }
      },
      "emissiveFactor": [
        0.0,
        0.0,
        0.0
      ]
    },
    {
      "pbrMetallicRoughness": {
        "baseColorFactor": [
          0.5,
          0.5,
          0.5,
          1.0
        ],
        "roughnessFactor": 1.0,
        "metallicFactor": 0.0,
        "baseColorTexture": {
          "index": 0
        }
      },
      "emissiveFactor": [
        0.0,
        0.0,
        0.0
      ]
    },
    {
      "pbrMetallicRoughness": {
        "baseColorFactor": [
          1.0,
          1.0,
          1.0,
          1.0
        ],
        "roughnessFactor": 1.0,
        "metallicFactor": 0.0,
        "baseColorTexture": {
          "index": 0
        }
      },
      "emissiveFactor": [
        0.0,
        0.0,
        0.0
      ]
    },
    {
      "pbrMetallicRoughness": {
        "baseColorFactor": [
          0.800000011920929,
          0.800000011920929,
          0.800000011920929,
          1.0
        ],
        "roughnessFactor": 1.0,
        "metallicFactor": 0.0,
        "baseColorTexture": {
          "index": 0
        }
      },
      "emissiveFactor": [
        0.0,
        0.0,
        0.0
      ]
    },
    {
      "pbrMetallicRoughness": {
        "baseColorFactor": [
          0.800000011920929,
          0.800000011920929,
          0.800000011920929,
          1.0
        ],
        "roughnessFactor": 1.0,
        "metallicFactor": 0.0,
        "baseColorTexture": {
          "index": 1
        }
      },
      "emissiveFactor": [
        0.0,
        0.0,
        0.0
      ]
    },
    {
      "pbrMetallicRoughness": {
        "baseColorFactor": [
          0.800000011920929,
          0.800000011920929,
          0.800000011920929,
          1.0
        ],
        "roughnessFactor": 1.0,
        "metallicFactor": 0.0,
        "baseColorTexture": {
          "index": 2
        }
      },
      "emissiveFactor": [
        0.0,
        0.0,
        0.0
      ]
    }
  ],
  "textures": [
    {
      "source": 0,
      "name": "ls4_1"
    },
    {
      "source": 1,
      "name": "ls4_2"
    },
    {
      "source": 2,
      "name": "ls7_3a"
    }
  ],
  "images": [
    {
      "uri": "ls4_1.png"
    },
    {
      "uri": "ls4_2.png"
    },
    {
      "uri": "ls7_3a.png"
    }
  ],
  "bufferViews": [
    {
      "buffer": 0,
      "byteOffset": 0,
      "byteLength": 108456
    },
    {
      "buffer": 0,
      "byteOffset": 108456,
      "byteLength": 78300
    },
    {
      "buffer": 0,
      "byteOffset": 186756,
      "byteLength": 78300
    },
    {
      "buffer": 0,
      "byteOffset": 265056,
      "byteLength": 52200
    }
  ],
  "buffers": [
    {
      "byteLength": 317256,
      "uri": "LS4a_stat.bin"
    }
  ]
}