{
  "asset": {
    "version": "2.0",
    "generator": "ModelConverterX"
  },
  "extensionsUsed": [
    "ASOBO_material_day_night_switch"
  ],
  "scene": 0,
  "scenes": [
    {
      "nodes": [
        0
      ]
    }
  ],
  "nodes": [
    {
      "name": "node0",
      "children": [
        1,
        2,
        3,
        4
      ]
    },
    {
      "name": "node1",
      "mesh": 0
    },
    {
      "name": "node2",
      "mesh": 1
    },
    {
      "name": "node3",
      "mesh": 2
    },
    {
      "name": "node4",
      "mesh": 3
    }
  ],
  "meshes": [
    {
      "primitives": [
        {
          "attributes": {
            "POSITION": 0,
            "NORMAL": 1,
            "TEXCOORD_0": 2
          },
          "indices": 3,
          "mode": 4,
          "material": 1
        }
      ],
      "name": "part000"
    },
    {
      "primitives": [
        {
          "attributes": {
            "POSITION": 4,
            "NORMAL": 5,
            "TEXCOORD_0": 6
          },
          "indices": 7,
          "mode": 4,
          "material": 0
        }
      ],
      "name": "part001"
    },
    {
      "primitives": [
        {
          "attributes": {
            "POSITION": 8,
            "NORMAL": 9,
            "TEXCOORD_0": 10
          },
          "indices": 11,
          "mode": 4,
          "material": 2
        }
      ],
      "name": "part002"
    },
    {
      "primitives": [
        {
          "attributes": {
            "POSITION": 12,
            "NORMAL": 13,
            "TEXCOORD_0": 14
          },
          "indices": 15,
          "mode": 4,
          "material": 3
        }
      ],
      "name": "part003"
    }
  ],
  "accessors": [
    {
      "bufferView": 1,
      "byteOffset": 0,
      "componentType": 5126,
      "count": 5056,
      "type": "VEC3",
      "min": [
        -28.300010681152344,
        0.0,
        -21.899999618530273
      ],
      "max": [
        17.950000762939453,
        6.5879597663879395,
        0.15000000596046448
      ]
    },
    {
      "bufferView": 2,
      "byteOffset": 0,
      "componentType": 5126,
      "count": 5056,
      "type": "VEC3"
    },
    {
      "bufferView": 3,
      "byteOffset": 0,
      "componentType": 5126,
      "count": 5056,
      "type": "VEC2"
    },
    {
      "bufferView": 0,
      "byteOffset": 0,
      "componentType": 5125,
      "count": 8658,
      "type": "SCALAR"
    },
    {
      "bufferView": 1,
      "byteOffset": 60672,
      "componentType": 5126,
      "count": 4500,
      "type": "VEC3",
      "min": [
        -27.829990386962891,
        4.4797401428222656,
        -20.0
      ],
      "max": [
        -1.1000000238418579,
        4.8762898445129395,
        -1.3470670686139538E-16
      ]
    },
    {
      "bufferView": 2,
      "byteOffset": 60672,
      "componentType": 5126,
      "count": 4500,
      "type": "VEC3"
    },
    {
      "bufferView": 3,
      "byteOffset": 40448,
      "componentType": 5126,
      "count": 4500,
      "type": "VEC2"
    },
    {
      "bufferView": 0,
      "byteOffset": 34632,
      "componentType": 5125,
      "count": 4536,
      "type": "SCALAR"
    },
    {
      "bufferView": 1,
      "byteOffset": 114672,
      "componentType": 5126,
      "count": 4,
      "type": "VEC3",
      "min": [
        -0.0099999997764825821,
        1.7005699872970581,
        -19.504550933837891
      ],
      "max": [
        -0.0099999997764825821,
        4.0189700126647949,
        -17.434549331665039
      ]
    },
    {
      "bufferView": 2,
      "byteOffset": 114672,
      "componentType": 5126,
      "count": 4,
      "type": "VEC3"
    },
    {
      "bufferView": 3,
      "byteOffset": 76448,
      "componentType": 5126,
      "count": 4,
      "type": "VEC2"
    },
    {
      "bufferView": 0,
      "byteOffset": 52776,
      "componentType": 5125,
      "count": 6,
      "type": "SCALAR"
    },
    {
      "bufferView": 1,
      "byteOffset": 114720,
      "componentType": 5126,
      "count": 72,
      "type": "VEC3",
      "min": [
        0.0,
        0.0,
        -21.899999618530273
      ],
      "max": [
        18.0,
        6.6640000343322754,
        2.2042914368802791E-15
      ]
    },
    {
      "bufferView": 2,
      "byteOffset": 114720,
      "componentType": 5126,
      "count": 72,
      "type": "VEC3"
    },
    {
      "bufferView": 3,
      "byteOffset": 76480,
      "componentType": 5126,
      "count": 72,
      "type": "VEC2"
    },
    {
      "bufferView": 0,
      "byteOffset": 52800,
      "componentType": 5125,
      "count": 126,
      "type": "SCALAR"
    }
  ],
  "materials": [
    {
      "name": "material00",
      "pbrMetallicRoughness": {
        "baseColorFactor": [
          1.0,
          1.0,
          1.0,
          1.0
        ],
        "roughnessFactor": 1.0,
        "metallicFactor": 0.0,
        "baseColorTexture": {
          "index": 0
        },
        "metallicRoughnessTexture": {
          "index": 1
        }
      },
      "emissiveFactor": [
        0.0,
        0.0,
        0.0
      ],
      "normalTexture": {
        "index": 2
      },
      "occlusionTexture": {
        "index": 1
      },
      "alphaMode": "BLEND",
      "extensions": {
        "ASOBO_material_day_night_switch": {
          "enabled": true
        }
      }
    },
    {
      "name": "material01",
      "pbrMetallicRoughness": {
        "baseColorFactor": [
          1.0,
          1.0,
          1.0,
          1.0
        ],
        "roughnessFactor": 1.0,
        "metallicFactor": 0.0,
        "baseColorTexture": {
          "index": 3
        }
      },
      "emissiveFactor": [
        0.0,
        0.0,
        0.0
      ],
      "extensions": {
        "ASOBO_material_day_night_switch": {
          "enabled": true
        }
      }
    },
    {
      "name": "material02",
      "pbrMetallicRoughness": {
        "baseColorFactor": [
          1.0,
          1.0,
          1.0,
          1.0
        ],
        "roughnessFactor": 1.0,
        "metallicFactor": 0.0,
        "baseColorTexture": {
          "index": 4
        },
        "metallicRoughnessTexture": {
          "index": 5
        }
      },
      "emissiveFactor": [
        0.0,
        0.0,
        0.0
      ],
      "occlusionTexture": {
        "index": 5
      },
      "extensions": {
        "ASOBO_material_day_night_switch": {
          "enabled": true
        }
      }
    },
    {
      "name": "material03",
      "pbrMetallicRoughness": {
        "baseColorFactor": [
          1.0,
          1.0,
          1.0,
          1.0
        ],
        "roughnessFactor": 1.0,
        "metallicFactor": 0.0,
        "baseColorTexture": {
          "index": 6
        },
        "metallicRoughnessTexture": {
          "index": 7
        }
      },
      "emissiveFactor": [
        0.0,
        0.0,
        0.0
      ],
      "normalTexture": {
        "index": 8
      },
      "occlusionTexture": {
        "index": 7
      },
      "extensions": {
        "ASOBO_material_day_night_switch": {
          "enabled": true
        }
      }
    }
  ],
  "textures": [
    {
      "source": 0,
      "name": "chimnirlargehangar_felix_blueshading"
    },
    {
      "source": 1,
      "name": "chimnirlargehangar_felix_blueshading_comp"
    },
    {
      "source": 2,
      "name": "chimnirlargehangar_felix_blueshading_norm"
    },
    {
      "source": 3,
      "name": "chimnirlargehangar_felix_metal"
    },
    {
      "source": 4,
      "name": "chimnirlargehangar_felix_sign"
    },
    {
      "source": 5,
      "name": "chimnirlargehangar_felix_sign_comp"
    },
    {
      "source": 6,
      "name": "chimnirlargehangar_felix_vertical_iron"
    },
    {
      "source": 7,
      "name": "chimnirlargehangar_felix_vertical_iron_comp"
    },
    {
      "source": 8,
      "name": "chimnirlargehangar_felix_vertical_iron_normala"
    }
  ],
  "images": [
    {
      "uri": "chimnirlargehangar_felix_blueshading.png"
    },
    {
      "uri": "chimnirlargehangar_felix_blueshading_comp.png"
    },
    {
      "uri": "chimnirlargehangar_felix_blueshading_norm.png"
    },
    {
      "uri": "chimnirlargehangar_felix_metal.png"
    },
    {
      "uri": "chimnirlargehangar_felix_sign.png"
    },
    {
      "uri": "chimnirlargehangar_felix_sign_comp.png"
    },
    {
      "uri": "chimnirlargehangar_felix_vertical_iron.png"
    },
    {
      "uri": "chimnirlargehangar_felix_vertical_iron_comp.png"
    },
    {
      "uri": "chimnirlargehangar_felix_vertical_iron_normala.png"
    }
  ],
  "bufferViews": [
    {
      "buffer": 0,
      "byteOffset": 0,
      "byteLength": 53304
    },
    {
      "buffer": 0,
      "byteOffset": 53304,
      "byteLength": 115584,
      "byteStride": 12
    },
    {
      "buffer": 0,
      "byteOffset": 168888,
      "byteLength": 115584,
      "byteStride": 12
    },
    {
      "buffer": 0,
      "byteOffset": 284472,
      "byteLength": 77056,
      "byteStride": 8
    }
  ],
  "buffers": [
    {
      "byteLength": 361528,
      "uri": "ChimNirLargeHangar_Felix_LOD0.bin"
    }
  ]
}