{
  "asset": {
    "version": "2.0",
    "generator": "ModelConverterX"
  },
  "extensionsUsed": [
    "ASOBO_material_day_night_switch"
  ],
  "scene": 0,
  "scenes": [
    {
      "nodes": [
        0
      ]
    }
  ],
  "nodes": [
    {
      "name": "node0",
      "children": [
        1,
        2,
        3
      ]
    },
    {
      "name": "node8",
      "mesh": 0
    },
    {
      "name": "node9",
      "mesh": 1
    },
    {
      "name": "node10",
      "mesh": 2
    }
  ],
  "meshes": [
    {
      "primitives": [
        {
          "attributes": {
            "POSITION": 0,
            "NORMAL": 1,
            "TEXCOORD_0": 2
          },
          "indices": 3,
          "mode": 4,
          "material": 1
        }
      ],
      "name": "part000"
    },
    {
      "primitives": [
        {
          "attributes": {
            "POSITION": 4,
            "NORMAL": 5,
            "TEXCOORD_0": 6
          },
          "indices": 7,
          "mode": 4,
          "material": 0
        }
      ],
      "name": "part001"
    },
    {
      "primitives": [
        {
          "attributes": {
            "POSITION": 8,
            "NORMAL": 9,
            "TEXCOORD_0": 10
          },
          "indices": 11,
          "mode": 4,
          "material": 2
        }
      ],
      "name": "part002"
    }
  ],
  "accessors": [
    {
      "bufferView": 1,
      "byteOffset": 0,
      "componentType": 5126,
      "count": 2312,
      "type": "VEC3",
      "min": [
        -28.300010681152344,
        0.0,
        -21.899999618530273
      ],
      "max": [
        17.950000762939453,
        6.484799861907959,
        0.15000000596046448
      ]
    },
    {
      "bufferView": 2,
      "byteOffset": 0,
      "componentType": 5126,
      "count": 2312,
      "type": "VEC3"
    },
    {
      "bufferView": 3,
      "byteOffset": 0,
      "componentType": 5126,
      "count": 2312,
      "type": "VEC2"
    },
    {
      "bufferView": 0,
      "byteOffset": 0,
      "componentType": 5125,
      "count": 3456,
      "type": "SCALAR"
    },
    {
      "bufferView": 1,
      "byteOffset": 27744,
      "componentType": 5126,
      "count": 1746,
      "type": "VEC3",
      "min": [
        -27.829990386962891,
        4.4810199737548828,
        -20.0
      ],
      "max": [
        -1.1000000238418579,
        4.8762898445129395,
        -4.6204397899124883E-16
      ]
    },
    {
      "bufferView": 2,
      "byteOffset": 27744,
      "componentType": 5126,
      "count": 1746,
      "type": "VEC3"
    },
    {
      "bufferView": 3,
      "byteOffset": 18496,
      "componentType": 5126,
      "count": 1746,
      "type": "VEC2"
    },
    {
      "bufferView": 0,
      "byteOffset": 13824,
      "componentType": 5125,
      "count": 1746,
      "type": "SCALAR"
    },
    {
      "bufferView": 1,
      "byteOffset": 48696,
      "componentType": 5126,
      "count": 72,
      "type": "VEC3",
      "min": [
        0.0,
        0.0,
        -21.899999618530273
      ],
      "max": [
        18.0,
        6.6640000343322754,
        2.2042914368802791E-15
      ]
    },
    {
      "bufferView": 2,
      "byteOffset": 48696,
      "componentType": 5126,
      "count": 72,
      "type": "VEC3"
    },
    {
      "bufferView": 3,
      "byteOffset": 32464,
      "componentType": 5126,
      "count": 72,
      "type": "VEC2"
    },
    {
      "bufferView": 0,
      "byteOffset": 20808,
      "componentType": 5125,
      "count": 126,
      "type": "SCALAR"
    }
  ],
  "materials": [
    {
      "name": "material00",
      "pbrMetallicRoughness": {
        "baseColorFactor": [
          1.0,
          1.0,
          1.0,
          1.0
        ],
        "roughnessFactor": 1.0,
        "metallicFactor": 0.0,
        "baseColorTexture": {
          "index": 0
        },
        "metallicRoughnessTexture": {
          "index": 1
        }
      },
      "emissiveFactor": [
        0.0,
        0.0,
        0.0
      ],
      "normalTexture": {
        "index": 2
      },
      "occlusionTexture": {
        "index": 1
      },
      "alphaMode": "BLEND",
      "extensions": {
        "ASOBO_material_day_night_switch": {
          "enabled": true
        }
      }
    },
    {
      "name": "material01",
      "pbrMetallicRoughness": {
        "baseColorFactor": [
          1.0,
          1.0,
          1.0,
          1.0
        ],
        "roughnessFactor": 1.0,
        "metallicFactor": 0.0,
        "baseColorTexture": {
          "index": 3
        }
      },
      "emissiveFactor": [
        0.0,
        0.0,
        0.0
      ],
      "extensions": {
        "ASOBO_material_day_night_switch": {
          "enabled": true
        }
      }
    },
    {
      "name": "material02",
      "pbrMetallicRoughness": {
        "baseColorFactor": [
          1.0,
          1.0,
          1.0,
          1.0
        ],
        "roughnessFactor": 1.0,
        "metallicFactor": 0.0,
        "baseColorTexture": {
          "index": 4
        },
        "metallicRoughnessTexture": {
          "index": 5
        }
      },
      "emissiveFactor": [
        0.0,
        0.0,
        0.0
      ],
      "normalTexture": {
        "index": 6
      },
      "occlusionTexture": {
        "index": 5
      },
      "extensions": {
        "ASOBO_material_day_night_switch": {
          "enabled": true
        }
      }
    }
  ],
  "textures": [
    {
      "source": 0,
      "name": "chimnirlargehangar_felix_blueshading"
    },
    {
      "source": 1,
      "name": "chimnirlargehangar_felix_blueshading_comp"
    },
    {
      "source": 2,
      "name": "chimnirlargehangar_felix_blueshading_norm"
    },
    {
      "source": 3,
      "name": "chimnirlargehangar_felix_metal"
    },
    {
      "source": 4,
      "name": "chimnirlargehangar_felix_vertical_iron"
    },
    {
      "source": 5,
      "name": "chimnirlargehangar_felix_vertical_iron_comp"
    },
    {
      "source": 6,
      "name": "chimnirlargehangar_felix_vertical_iron_normal"
    }
  ],
  "images": [
    {
      "uri": "chimnirlargehangar_felix_blueshading.png"
    },
    {
      "uri": "chimnirlargehangar_felix_blueshading_comp.png"
    },
    {
      "uri": "chimnirlargehangar_felix_blueshading_norm.png"
    },
    {
      "uri": "chimnirlargehangar_felix_metal.png"
    },
    {
      "uri": "chimnirlargehangar_felix_vertical_iron.png"
    },
    {
      "uri": "chimnirlargehangar_felix_vertical_iron_comp.png"
    },
    {
      "uri": "chimnirlargehangar_felix_vertical_iron_normal.png"
    }
  ],
  "bufferViews": [
    {
      "buffer": 0,
      "byteOffset": 0,
      "byteLength": 21312
    },
    {
      "buffer": 0,
      "byteOffset": 21312,
      "byteLength": 49560,
      "byteStride": 12
    },
    {
      "buffer": 0,
      "byteOffset": 70872,
      "byteLength": 49560,
      "byteStride": 12
    },
    {
      "buffer": 0,
      "byteOffset": 120432,
      "byteLength": 33040,
      "byteStride": 8
    }
  ],
  "buffers": [
    {
      "byteLength": 153472,
      "uri": "ChimNirLargeHangar_Felix_LOD2.bin"
    }
  ]
}