{
  "asset": {
    "version": "2.0",
    "generator": "ModelConverterX"
  },
  "extensionsUsed": [
    "ASOBO_material_day_night_switch"
  ],
  "scene": 0,
  "scenes": [
    {
      "nodes": [
        0
      ]
    }
  ],
  "nodes": [
    {
      "name": "node0",
      "children": [
        1,
        2,
        3,
        4
      ]
    },
    {
      "name": "node1",
      "mesh": 0
    },
    {
      "name": "node2",
      "mesh": 1
    },
    {
      "name": "node3",
      "mesh": 2
    },
    {
      "name": "node4",
      "mesh": 3
    }
  ],
  "meshes": [
    {
      "primitives": [
        {
          "attributes": {
            "POSITION": 0,
            "NORMAL": 1,
            "TEXCOORD_0": 2
          },
          "indices": 3,
          "mode": 4,
          "material": 2
        }
      ],
      "name": "part000"
    },
    {
      "primitives": [
        {
          "attributes": {
            "POSITION": 4,
            "NORMAL": 5,
            "TEXCOORD_0": 6
          },
          "indices": 7,
          "mode": 4,
          "material": 0
        }
      ],
      "name": "part001"
    },
    {
      "primitives": [
        {
          "attributes": {
            "POSITION": 8,
            "NORMAL": 9,
            "TEXCOORD_0": 10
          },
          "indices": 11,
          "mode": 4,
          "material": 3
        }
      ],
      "name": "part002"
    },
    {
      "primitives": [
        {
          "attributes": {
            "POSITION": 12,
            "NORMAL": 13,
            "TEXCOORD_0": 14
          },
          "indices": 15,
          "mode": 4,
          "material": 1
        }
      ],
      "name": "part003"
    }
  ],
  "accessors": [
    {
      "bufferView": 1,
      "byteOffset": 0,
      "componentType": 5126,
      "count": 56,
      "type": "VEC3",
      "min": [
        0.0,
        0.0,
        -15.0
      ],
      "max": [
        19.899999618530273,
        6.877500057220459,
        2.4369665170515887E-15
      ]
    },
    {
      "bufferView": 2,
      "byteOffset": 0,
      "componentType": 5126,
      "count": 56,
      "type": "VEC3"
    },
    {
      "bufferView": 3,
      "byteOffset": 0,
      "componentType": 5126,
      "count": 56,
      "type": "VEC2"
    },
    {
      "bufferView": 0,
      "byteOffset": 0,
      "componentType": 5125,
      "count": 102,
      "type": "SCALAR"
    },
    {
      "bufferView": 1,
      "byteOffset": 672,
      "componentType": 5126,
      "count": 8,
      "type": "VEC3",
      "min": [
        0.0,
        4.9025697708129883,
        -15.0
      ],
      "max": [
        19.899999618530273,
        6.877500057220459,
        2.4369665170515887E-15
      ]
    },
    {
      "bufferView": 2,
      "byteOffset": 672,
      "componentType": 5126,
      "count": 8,
      "type": "VEC3"
    },
    {
      "bufferView": 3,
      "byteOffset": 448,
      "componentType": 5126,
      "count": 8,
      "type": "VEC2"
    },
    {
      "bufferView": 0,
      "byteOffset": 408,
      "componentType": 5125,
      "count": 12,
      "type": "SCALAR"
    },
    {
      "bufferView": 1,
      "byteOffset": 768,
      "componentType": 5126,
      "count": 8,
      "type": "VEC3",
      "min": [
        0.05000000074505806,
        4.8470001220703125,
        -14.949999809265137
      ],
      "max": [
        19.850000381469727,
        6.8119997978210449,
        -0.05000000074505806
      ]
    },
    {
      "bufferView": 2,
      "byteOffset": 768,
      "componentType": 5126,
      "count": 8,
      "type": "VEC3"
    },
    {
      "bufferView": 3,
      "byteOffset": 512,
      "componentType": 5126,
      "count": 8,
      "type": "VEC2"
    },
    {
      "bufferView": 0,
      "byteOffset": 456,
      "componentType": 5125,
      "count": 12,
      "type": "SCALAR"
    },
    {
      "bufferView": 1,
      "byteOffset": 864,
      "componentType": 5126,
      "count": 2664,
      "type": "VEC3",
      "min": [
        0.05000000074505806,
        0.0,
        -14.949999809265137
      ],
      "max": [
        19.850000381469727,
        6.7862000465393066,
        -0.05000000074505806
      ]
    },
    {
      "bufferView": 2,
      "byteOffset": 864,
      "componentType": 5126,
      "count": 2664,
      "type": "VEC3"
    },
    {
      "bufferView": 3,
      "byteOffset": 576,
      "componentType": 5126,
      "count": 2664,
      "type": "VEC2"
    },
    {
      "bufferView": 0,
      "byteOffset": 504,
      "componentType": 5125,
      "count": 4734,
      "type": "SCALAR"
    }
  ],
  "materials": [
    {
      "name": "material00",
      "pbrMetallicRoughness": {
        "baseColorFactor": [
          1.0,
          1.0,
          1.0,
          1.0
        ],
        "roughnessFactor": 1.0,
        "metallicFactor": 1.0,
        "baseColorTexture": {
          "index": 0
        },
        "metallicRoughnessTexture": {
          "index": 1
        }
      },
      "emissiveFactor": [
        0.0,
        0.0,
        0.0
      ],
      "normalTexture": {
        "index": 2
      },
      "occlusionTexture": {
        "index": 1
      },
      "extensions": {
        "ASOBO_material_day_night_switch": {
          "enabled": true
        }
      }
    },
    {
      "name": "material01",
      "pbrMetallicRoughness": {
        "baseColorFactor": [
          1.0,
          1.0,
          1.0,
          1.0
        ],
        "roughnessFactor": 1.0,
        "metallicFactor": 0.0,
        "baseColorTexture": {
          "index": 3
        },
        "metallicRoughnessTexture": {
          "index": 4
        }
      },
      "emissiveFactor": [
        0.0,
        0.0,
        0.0
      ],
      "occlusionTexture": {
        "index": 4
      },
      "extensions": {
        "ASOBO_material_day_night_switch": {
          "enabled": true
        }
      }
    },
    {
      "name": "material02",
      "pbrMetallicRoughness": {
        "baseColorFactor": [
          1.0,
          1.0,
          1.0,
          1.0
        ],
        "roughnessFactor": 1.0,
        "metallicFactor": 1.0,
        "baseColorTexture": {
          "index": 5
        },
        "metallicRoughnessTexture": {
          "index": 6
        }
      },
      "emissiveFactor": [
        0.0,
        0.0,
        0.0
      ],
      "normalTexture": {
        "index": 7
      },
      "occlusionTexture": {
        "index": 6
      },
      "extensions": {
        "ASOBO_material_day_night_switch": {
          "enabled": true
        }
      }
    },
    {
      "name": "material03",
      "pbrMetallicRoughness": {
        "baseColorFactor": [
          1.0,
          1.0,
          1.0,
          1.0
        ],
        "roughnessFactor": 1.0,
        "metallicFactor": 0.0,
        "baseColorTexture": {
          "index": 8
        },
        "metallicRoughnessTexture": {
          "index": 9
        }
      },
      "emissiveFactor": [
        0.0,
        0.0,
        0.0
      ],
      "occlusionTexture": {
        "index": 9
      },
      "extensions": {
        "ASOBO_material_day_night_switch": {
          "enabled": true
        }
      }
    }
  ],
  "textures": [
    {
      "source": 0,
      "name": "chimnirlargehangar2_horizontal_square_iron"
    },
    {
      "source": 1,
      "name": "chimnirlargehangar2_horizontal_square_iron_comp"
    },
    {
      "source": 2,
      "name": "chimnirlargehangar2_horizontal_square_iron_norm"
    },
    {
      "source": 3,
      "name": "chimnirlargehangar2_silver_metal"
    },
    {
      "source": 4,
      "name": "chimnirlargehangar2_silver_metal_comp"
    },
    {
      "source": 5,
      "name": "chimnirlargehangar2_vertical_corrugated_iron"
    },
    {
      "source": 6,
      "name": "chimnirlargehangar2_vertical_corrugated_iron_comp"
    },
    {
      "source": 7,
      "name": "chimnirlargehangar2_vertical_corrugated_iron_norm"
    },
    {
      "source": 8,
      "name": "chimnirlargehangar2_vertical_square_iron"
    },
    {
      "source": 9,
      "name": "chimnirlargehangar2_vertical_square_iron_comp"
    }
  ],
  "images": [
    {
      "uri": "chimnirlargehangar2_horizontal_square_iron.png"
    },
    {
      "uri": "chimnirlargehangar2_horizontal_square_iron_comp.png"
    },
    {
      "uri": "chimnirlargehangar2_horizontal_square_iron_norm.png"
    },
    {
      "uri": "chimnirlargehangar2_silver_metal.png"
    },
    {
      "uri": "chimnirlargehangar2_silver_metal_comp.png"
    },
    {
      "uri": "chimnirlargehangar2_vertical_corrugated_iron.png"
    },
    {
      "uri": "chimnirlargehangar2_vertical_corrugated_iron_comp.png"
    },
    {
      "uri": "chimnirlargehangar2_vertical_corrugated_iron_norm.png"
    },
    {
      "uri": "chimnirlargehangar2_vertical_square_iron.png"
    },
    {
      "uri": "chimnirlargehangar2_vertical_square_iron_comp.png"
    }
  ],
  "bufferViews": [
    {
      "buffer": 0,
      "byteOffset": 0,
      "byteLength": 19440
    },
    {
      "buffer": 0,
      "byteOffset": 19440,
      "byteLength": 32832,
      "byteStride": 12
    },
    {
      "buffer": 0,
      "byteOffset": 52272,
      "byteLength": 32832,
      "byteStride": 12
    },
    {
      "buffer": 0,
      "byteOffset": 85104,
      "byteLength": 21888,
      "byteStride": 8
    }
  ],
  "buffers": [
    {
      "byteLength": 106992,
      "uri": "ChimNirLargeHangar2_LOD0.bin"
    }
  ]
}