{
  "asset": {
    "version": "2.0",
    "generator": "ModelConverterX"
  },
  "extensionsUsed": [
    "ASOBO_material_day_night_switch"
  ],
  "scene": 0,
  "scenes": [
    {
      "nodes": [
        0
      ]
    }
  ],
  "nodes": [
    {
      "name": "node0",
      "children": [
        1,
        2,
        3
      ]
    },
    {
      "name": "node1",
      "mesh": 0
    },
    {
      "name": "node2",
      "mesh": 1
    },
    {
      "name": "node3",
      "mesh": 2
    }
  ],
  "meshes": [
    {
      "primitives": [
        {
          "attributes": {
            "POSITION": 0,
            "NORMAL": 1,
            "TEXCOORD_0": 2
          },
          "indices": 3,
          "mode": 4,
          "material": 2
        }
      ],
      "name": "part000"
    },
    {
      "primitives": [
        {
          "attributes": {
            "POSITION": 4,
            "NORMAL": 5,
            "TEXCOORD_0": 6
          },
          "indices": 7,
          "mode": 4,
          "material": 0
        }
      ],
      "name": "part001"
    },
    {
      "primitives": [
        {
          "attributes": {
            "POSITION": 8,
            "NORMAL": 9,
            "TEXCOORD_0": 10
          },
          "indices": 11,
          "mode": 4,
          "material": 1
        }
      ],
      "name": "part002"
    }
  ],
  "accessors": [
    {
      "bufferView": 1,
      "byteOffset": 0,
      "componentType": 5126,
      "count": 52,
      "type": "VEC3",
      "min": [
        -15.896129608154297,
        0.0,
        -11.548859596252441
      ],
      "max": [
        -1.1790100336074829,
        4.7399997711181641,
        3.9990599155426025
      ]
    },
    {
      "bufferView": 2,
      "byteOffset": 0,
      "componentType": 5126,
      "count": 52,
      "type": "VEC3"
    },
    {
      "bufferView": 3,
      "byteOffset": 0,
      "componentType": 5126,
      "count": 52,
      "type": "VEC2"
    },
    {
      "bufferView": 0,
      "byteOffset": 0,
      "componentType": 5125,
      "count": 75,
      "type": "SCALAR"
    },
    {
      "bufferView": 1,
      "byteOffset": 624,
      "componentType": 5126,
      "count": 4,
      "type": "VEC3",
      "min": [
        -9.4864301681518555,
        0.0,
        -1.2024999856948853
      ],
      "max": [
        -1.8640600442886353,
        4.6501002311706543,
        3.3140199184417725
      ]
    },
    {
      "bufferView": 2,
      "byteOffset": 624,
      "componentType": 5126,
      "count": 4,
      "type": "VEC3"
    },
    {
      "bufferView": 3,
      "byteOffset": 416,
      "componentType": 5126,
      "count": 4,
      "type": "VEC2"
    },
    {
      "bufferView": 0,
      "byteOffset": 300,
      "componentType": 5125,
      "count": 6,
      "type": "SCALAR"
    },
    {
      "bufferView": 1,
      "byteOffset": 672,
      "componentType": 5126,
      "count": 27,
      "type": "VEC3",
      "min": [
        -15.896129608154297,
        3.2497899532318115,
        -11.548859596252441
      ],
      "max": [
        -1.1790100336074829,
        4.7399997711181641,
        3.9990599155426025
      ]
    },
    {
      "bufferView": 2,
      "byteOffset": 672,
      "componentType": 5126,
      "count": 27,
      "type": "VEC3"
    },
    {
      "bufferView": 3,
      "byteOffset": 448,
      "componentType": 5126,
      "count": 27,
      "type": "VEC2"
    },
    {
      "bufferView": 0,
      "byteOffset": 324,
      "componentType": 5125,
      "count": 42,
      "type": "SCALAR"
    }
  ],
  "materials": [
    {
      "name": "material00",
      "pbrMetallicRoughness": {
        "baseColorFactor": [
          1.0,
          1.0,
          1.0,
          1.0
        ],
        "roughnessFactor": 1.0,
        "metallicFactor": 0.0
      },
      "emissiveFactor": [
        0.0,
        0.0,
        0.0
      ],
      "extensions": {
        "ASOBO_material_day_night_switch": {
          "enabled": true
        }
      }
    },
    {
      "name": "material01",
      "pbrMetallicRoughness": {
        "baseColorFactor": [
          1.0,
          1.0,
          1.0,
          1.0
        ],
        "roughnessFactor": 1.0,
        "metallicFactor": 0.0,
        "baseColorTexture": {
          "index": 0
        },
        "metallicRoughnessTexture": {
          "index": 1
        }
      },
      "emissiveFactor": [
        0.0,
        0.0,
        0.0
      ],
      "normalTexture": {
        "index": 2
      },
      "occlusionTexture": {
        "index": 1
      },
      "extensions": {
        "ASOBO_material_day_night_switch": {
          "enabled": true
        }
      }
    },
    {
      "name": "material02",
      "pbrMetallicRoughness": {
        "baseColorFactor": [
          1.0,
          1.0,
          1.0,
          1.0
        ],
        "roughnessFactor": 1.0,
        "metallicFactor": 0.0,
        "baseColorTexture": {
          "index": 3
        },
        "metallicRoughnessTexture": {
          "index": 4
        }
      },
      "emissiveFactor": [
        0.0,
        0.0,
        0.0
      ],
      "normalTexture": {
        "index": 5
      },
      "occlusionTexture": {
        "index": 4
      },
      "extensions": {
        "ASOBO_material_day_night_switch": {
          "enabled": true
        }
      }
    }
  ],
  "textures": [
    {
      "source": 0,
      "name": "kibui_center1"
    },
    {
      "source": 1,
      "name": "kibui_center1_comp"
    },
    {
      "source": 2,
      "name": "kibui_center1_norm"
    },
    {
      "source": 3,
      "name": "kibui_center2"
    },
    {
      "source": 4,
      "name": "kibui_center2_comp"
    },
    {
      "source": 5,
      "name": "kibui_center2_norm"
    }
  ],
  "images": [
    {
      "uri": "kibui_center1.png"
    },
    {
      "uri": "kibui_center1_comp.png"
    },
    {
      "uri": "kibui_center1_norm.png"
    },
    {
      "uri": "kibui_center2.png"
    },
    {
      "uri": "kibui_center2_comp.png"
    },
    {
      "uri": "kibui_center2_norm.png"
    }
  ],
  "bufferViews": [
    {
      "buffer": 0,
      "byteOffset": 0,
      "byteLength": 492
    },
    {
      "buffer": 0,
      "byteOffset": 492,
      "byteLength": 996,
      "byteStride": 12
    },
    {
      "buffer": 0,
      "byteOffset": 1488,
      "byteLength": 996,
      "byteStride": 12
    },
    {
      "buffer": 0,
      "byteOffset": 2484,
      "byteLength": 664,
      "byteStride": 8
    }
  ],
  "buffers": [
    {
      "byteLength": 3148,
      "uri": "Tomer_Kibui_shed.bin"
    }
  ]
}