{
  "asset": {
    "version": "2.0",
    "generator": "ModelConverterX"
  },
  "extensionsUsed": [],
  "scene": 0,
  "scenes": [
    {
      "nodes": [
        0
      ]
    }
  ],
  "nodes": [
    {
      "name": "node0",
      "children": [
        1,
        2,
        3
      ]
    },
    {
      "name": "node1",
      "mesh": 0
    },
    {
      "name": "node2",
      "mesh": 1
    },
    {
      "name": "node3",
      "mesh": 2
    }
  ],
  "meshes": [
    {
      "primitives": [
        {
          "attributes": {
            "POSITION": 0,
            "NORMAL": 1,
            "TEXCOORD_0": 2
          },
          "indices": 3,
          "mode": 4,
          "material": 2
        }
      ],
      "name": "part000"
    },
    {
      "primitives": [
        {
          "attributes": {
            "POSITION": 4,
            "NORMAL": 5,
            "TEXCOORD_0": 6
          },
          "indices": 7,
          "mode": 4,
          "material": 1
        }
      ],
      "name": "part001"
    },
    {
      "primitives": [
        {
          "attributes": {
            "POSITION": 8,
            "NORMAL": 9,
            "TEXCOORD_0": 10
          },
          "indices": 11,
          "mode": 4,
          "material": 0
        }
      ],
      "name": "part002"
    }
  ],
  "accessors": [
    {
      "bufferView": 1,
      "byteOffset": 0,
      "componentType": 5126,
      "count": 40,
      "type": "VEC3",
      "min": [
        0.0,
        5.09832,
        -4.67
      ],
      "max": [
        6.64,
        5.76,
        0.0
      ]
    },
    {
      "bufferView": 2,
      "byteOffset": 0,
      "componentType": 5126,
      "count": 40,
      "type": "VEC3"
    },
    {
      "bufferView": 3,
      "byteOffset": 0,
      "componentType": 5126,
      "count": 40,
      "type": "VEC2"
    },
    {
      "bufferView": 0,
      "byteOffset": 0,
      "componentType": 5125,
      "count": 66,
      "type": "SCALAR"
    },
    {
      "bufferView": 1,
      "byteOffset": 480,
      "componentType": 5126,
      "count": 276,
      "type": "VEC3",
      "min": [
        0.5,
        0.0,
        -4.97
      ],
      "max": [
        9.05,
        5.28119,
        -0.7
      ]
    },
    {
      "bufferView": 2,
      "byteOffset": 480,
      "componentType": 5126,
      "count": 276,
      "type": "VEC3"
    },
    {
      "bufferView": 3,
      "byteOffset": 320,
      "componentType": 5126,
      "count": 276,
      "type": "VEC2"
    },
    {
      "bufferView": 0,
      "byteOffset": 264,
      "componentType": 5125,
      "count": 540,
      "type": "SCALAR"
    },
    {
      "bufferView": 1,
      "byteOffset": 3792,
      "componentType": 5126,
      "count": 82,
      "type": "VEC3",
      "min": [
        5.14,
        0.0,
        -4.97
      ],
      "max": [
        9.05,
        3.54,
        -3.97
      ]
    },
    {
      "bufferView": 2,
      "byteOffset": 3792,
      "componentType": 5126,
      "count": 82,
      "type": "VEC3"
    },
    {
      "bufferView": 3,
      "byteOffset": 2528,
      "componentType": 5126,
      "count": 82,
      "type": "VEC2"
    },
    {
      "bufferView": 0,
      "byteOffset": 2424,
      "componentType": 5125,
      "count": 129,
      "type": "SCALAR"
    }
  ],
  "materials": [
    {
      "pbrMetallicRoughness": {
        "baseColorFactor": [
          1.0,
          1.0,
          1.0,
          1.0
        ],
        "roughnessFactor": 1.0,
        "metallicFactor": 0.0
      },
      "emissiveFactor": [
        0.0,
        0.0,
        0.0
      ]
    },
    {
      "pbrMetallicRoughness": {
        "baseColorFactor": [
          1.0,
          1.0,
          1.0,
          1.0
        ],
        "roughnessFactor": 1.0,
        "metallicFactor": 0.0,
        "baseColorTexture": {
          "index": 0
        }
      },
      "emissiveFactor": [
        0.0,
        0.0,
        0.0
      ]
    },
    {
      "pbrMetallicRoughness": {
        "baseColorFactor": [
          1.0,
          1.0,
          1.0,
          1.0
        ],
        "roughnessFactor": 1.0,
        "metallicFactor": 0.0,
        "baseColorTexture": {
          "index": 1
        }
      },
      "emissiveFactor": [
        0.0,
        0.0,
        0.0
      ]
    }
  ],
  "textures": [
    {
      "source": 0,
      "name": "llmg_bld3"
    },
    {
      "source": 1,
      "name": "llmg_twr"
    }
  ],
  "images": [
    {
      "uri": "llmg_bld3.png"
    },
    {
      "uri": "llmg_twr.png"
    }
  ],
  "bufferViews": [
    {
      "buffer": 0,
      "byteOffset": 0,
      "byteLength": 2940
    },
    {
      "buffer": 0,
      "byteOffset": 2940,
      "byteLength": 4776
    },
    {
      "buffer": 0,
      "byteOffset": 7716,
      "byteLength": 4776
    },
    {
      "buffer": 0,
      "byteOffset": 12492,
      "byteLength": 3184
    }
  ],
  "buffers": [
    {
      "byteLength": 15676,
      "uri": "llmg_bld3.bin"
    }
  ]
}