{
  "asset": {
    "version": "2.0",
    "generator": "ModelConverterX"
  },
  "extensionsUsed": [],
  "scene": 0,
  "scenes": [
    {
      "nodes": [
        0
      ]
    }
  ],
  "nodes": [
    {
      "name": "node0",
      "children": [
        1,
        2,
        3,
        4,
        5,
        6,
        7,
        8,
        9,
        10,
        11,
        12,
        13,
        14,
        15,
        16,
        17
      ]
    },
    {
      "name": "node1",
      "mesh": 0
    },
    {
      "name": "node2",
      "mesh": 1
    },
    {
      "name": "node3",
      "mesh": 2
    },
    {
      "name": "node4",
      "mesh": 3
    },
    {
      "name": "node5",
      "mesh": 4
    },
    {
      "name": "node6",
      "mesh": 5
    },
    {
      "name": "node7",
      "mesh": 6
    },
    {
      "name": "node8",
      "mesh": 7
    },
    {
      "name": "node9",
      "mesh": 8
    },
    {
      "name": "node10",
      "mesh": 9
    },
    {
      "name": "node11",
      "mesh": 10
    },
    {
      "name": "node12",
      "mesh": 11
    },
    {
      "name": "node13",
      "mesh": 12
    },
    {
      "name": "node14",
      "mesh": 13
    },
    {
      "name": "node15",
      "mesh": 14
    },
    {
      "name": "node16",
      "mesh": 15
    },
    {
      "name": "node17",
      "mesh": 16
    }
  ],
  "meshes": [
    {
      "primitives": [
        {
          "attributes": {
            "POSITION": 0,
            "NORMAL": 1,
            "TEXCOORD_0": 2
          },
          "indices": 3,
          "mode": 4,
          "material": 9
        }
      ],
      "name": "part000"
    },
    {
      "primitives": [
        {
          "attributes": {
            "POSITION": 4,
            "NORMAL": 5,
            "TEXCOORD_0": 6
          },
          "indices": 7,
          "mode": 4,
          "material": 5
        }
      ],
      "name": "part001"
    },
    {
      "primitives": [
        {
          "attributes": {
            "POSITION": 8,
            "NORMAL": 9,
            "TEXCOORD_0": 10
          },
          "indices": 11,
          "mode": 4,
          "material": 7
        }
      ],
      "name": "part002"
    },
    {
      "primitives": [
        {
          "attributes": {
            "POSITION": 12,
            "NORMAL": 13,
            "TEXCOORD_0": 14
          },
          "indices": 15,
          "mode": 4,
          "material": 3
        }
      ],
      "name": "part003"
    },
    {
      "primitives": [
        {
          "attributes": {
            "POSITION": 16,
            "NORMAL": 17,
            "TEXCOORD_0": 18
          },
          "indices": 19,
          "mode": 4,
          "material": 2
        }
      ],
      "name": "part004"
    },
    {
      "primitives": [
        {
          "attributes": {
            "POSITION": 20,
            "NORMAL": 21,
            "TEXCOORD_0": 22
          },
          "indices": 23,
          "mode": 4,
          "material": 4
        }
      ],
      "name": "part005"
    },
    {
      "primitives": [
        {
          "attributes": {
            "POSITION": 24,
            "NORMAL": 25,
            "TEXCOORD_0": 26
          },
          "indices": 27,
          "mode": 4,
          "material": 8
        }
      ],
      "name": "part006"
    },
    {
      "primitives": [
        {
          "attributes": {
            "POSITION": 28,
            "NORMAL": 29,
            "TEXCOORD_0": 30
          },
          "indices": 31,
          "mode": 4,
          "material": 0
        }
      ],
      "name": "part007"
    },
    {
      "primitives": [
        {
          "attributes": {
            "POSITION": 32,
            "NORMAL": 33,
            "TEXCOORD_0": 34
          },
          "indices": 35,
          "mode": 4,
          "material": 1
        }
      ],
      "name": "part008"
    },
    {
      "primitives": [
        {
          "attributes": {
            "POSITION": 36,
            "NORMAL": 37,
            "TEXCOORD_0": 38
          },
          "indices": 39,
          "mode": 4,
          "material": 1
        }
      ],
      "name": "part009"
    },
    {
      "primitives": [
        {
          "attributes": {
            "POSITION": 40,
            "NORMAL": 41,
            "TEXCOORD_0": 42
          },
          "indices": 43,
          "mode": 4,
          "material": 0
        }
      ],
      "name": "part010"
    },
    {
      "primitives": [
        {
          "attributes": {
            "POSITION": 44,
            "NORMAL": 45,
            "TEXCOORD_0": 46
          },
          "indices": 47,
          "mode": 4,
          "material": 1
        }
      ],
      "name": "part011"
    },
    {
      "primitives": [
        {
          "attributes": {
            "POSITION": 48,
            "NORMAL": 49,
            "TEXCOORD_0": 50
          },
          "indices": 51,
          "mode": 4,
          "material": 0
        }
      ],
      "name": "part012"
    },
    {
      "primitives": [
        {
          "attributes": {
            "POSITION": 52,
            "NORMAL": 53,
            "TEXCOORD_0": 54
          },
          "indices": 55,
          "mode": 4,
          "material": 0
        }
      ],
      "name": "part013"
    },
    {
      "primitives": [
        {
          "attributes": {
            "POSITION": 56,
            "NORMAL": 57,
            "TEXCOORD_0": 58
          },
          "indices": 59,
          "mode": 4,
          "material": 0
        }
      ],
      "name": "part014"
    },
    {
      "primitives": [
        {
          "attributes": {
            "POSITION": 60,
            "NORMAL": 61,
            "TEXCOORD_0": 62
          },
          "indices": 63,
          "mode": 4,
          "material": 0
        }
      ],
      "name": "part015"
    },
    {
      "primitives": [
        {
          "attributes": {
            "POSITION": 64,
            "NORMAL": 65,
            "TEXCOORD_0": 66
          },
          "indices": 67,
          "mode": 4,
          "material": 6
        }
      ],
      "name": "part016"
    }
  ],
  "accessors": [
    {
      "bufferView": 1,
      "byteOffset": 0,
      "componentType": 5126,
      "count": 16,
      "type": "VEC3",
      "min": [
        -0.24805,
        0.59863,
        -0.4873
      ],
      "max": [
        0.04785,
        0.77441,
        -0.40137
      ]
    },
    {
      "bufferView": 2,
      "byteOffset": 0,
      "componentType": 5126,
      "count": 16,
      "type": "VEC3"
    },
    {
      "bufferView": 3,
      "byteOffset": 0,
      "componentType": 5126,
      "count": 16,
      "type": "VEC2"
    },
    {
      "bufferView": 0,
      "byteOffset": 0,
      "componentType": 5125,
      "count": 24,
      "type": "SCALAR"
    },
    {
      "bufferView": 1,
      "byteOffset": 192,
      "componentType": 5126,
      "count": 276,
      "type": "VEC3",
      "min": [
        -0.32227,
        0.3291,
        -1.08789
      ],
      "max": [
        0.1709,
        0.71777,
        -0.41406
      ]
    },
    {
      "bufferView": 2,
      "byteOffset": 192,
      "componentType": 5126,
      "count": 276,
      "type": "VEC3"
    },
    {
      "bufferView": 3,
      "byteOffset": 128,
      "componentType": 5126,
      "count": 276,
      "type": "VEC2"
    },
    {
      "bufferView": 0,
      "byteOffset": 96,
      "componentType": 5125,
      "count": 1242,
      "type": "SCALAR"
    },
    {
      "bufferView": 1,
      "byteOffset": 3504,
      "componentType": 5126,
      "count": 7,
      "type": "VEC3",
      "min": [
        0.06934,
        0.66699,
        -1.25
      ],
      "max": [
        0.13574,
        0.8125,
        -1.18652
      ]
    },
    {
      "bufferView": 2,
      "byteOffset": 3504,
      "componentType": 5126,
      "count": 7,
      "type": "VEC3"
    },
    {
      "bufferView": 3,
      "byteOffset": 2336,
      "componentType": 5126,
      "count": 7,
      "type": "VEC2"
    },
    {
      "bufferView": 0,
      "byteOffset": 5064,
      "componentType": 5125,
      "count": 18,
      "type": "SCALAR"
    },
    {
      "bufferView": 1,
      "byteOffset": 3588,
      "componentType": 5126,
      "count": 12,
      "type": "VEC3",
      "min": [
        0.06836,
        0.66699,
        -1.25
      ],
      "max": [
        0.13477,
        0.8125,
        -1.18652
      ]
    },
    {
      "bufferView": 2,
      "byteOffset": 3588,
      "componentType": 5126,
      "count": 12,
      "type": "VEC3"
    },
    {
      "bufferView": 3,
      "byteOffset": 2392,
      "componentType": 5126,
      "count": 12,
      "type": "VEC2"
    },
    {
      "bufferView": 0,
      "byteOffset": 5136,
      "componentType": 5125,
      "count": 18,
      "type": "SCALAR"
    },
    {
      "bufferView": 1,
      "byteOffset": 3732,
      "componentType": 5126,
      "count": 6,
      "type": "VEC3",
      "min": [
        -0.36914,
        0.74023,
        -0.0918
      ],
      "max": [
        0.11719,
        0.94727,
        0.00391
      ]
    },
    {
      "bufferView": 2,
      "byteOffset": 3732,
      "componentType": 5126,
      "count": 6,
      "type": "VEC3"
    },
    {
      "bufferView": 3,
      "byteOffset": 2488,
      "componentType": 5126,
      "count": 6,
      "type": "VEC2"
    },
    {
      "bufferView": 0,
      "byteOffset": 5208,
      "componentType": 5125,
      "count": 12,
      "type": "SCALAR"
    },
    {
      "bufferView": 1,
      "byteOffset": 3804,
      "componentType": 5126,
      "count": 1291,
      "type": "VEC3",
      "min": [
        -7.58887,
        0.02442,
        -2.09961
      ],
      "max": [
        7.24121,
        2.30371,
        3.97168
      ]
    },
    {
      "bufferView": 2,
      "byteOffset": 3804,
      "componentType": 5126,
      "count": 1291,
      "type": "VEC3"
    },
    {
      "bufferView": 3,
      "byteOffset": 2536,
      "componentType": 5126,
      "count": 1291,
      "type": "VEC2"
    },
    {
      "bufferView": 0,
      "byteOffset": 5256,
      "componentType": 5125,
      "count": 5460,
      "type": "SCALAR"
    },
    {
      "bufferView": 1,
      "byteOffset": 19296,
      "componentType": 5126,
      "count": 291,
      "type": "VEC3",
      "min": [
        -7.55371,
        -0.58748760883410189,
        -3.3826366787210684
      ],
      "max": [
        7.2041,
        2.27441,
        4.12402
      ]
    },
    {
      "bufferView": 2,
      "byteOffset": 19296,
      "componentType": 5126,
      "count": 291,
      "type": "VEC3"
    },
    {
      "bufferView": 3,
      "byteOffset": 12864,
      "componentType": 5126,
      "count": 291,
      "type": "VEC2"
    },
    {
      "bufferView": 0,
      "byteOffset": 27096,
      "componentType": 5125,
      "count": 750,
      "type": "SCALAR"
    },
    {
      "bufferView": 1,
      "byteOffset": 22788,
      "componentType": 5126,
      "count": 3648,
      "type": "VEC3",
      "min": [
        -0.37793420151264234,
        -0.89303175960296088,
        -3.38338221035115
      ],
      "max": [
        0.19043,
        1.59863,
        4.42773
      ]
    },
    {
      "bufferView": 2,
      "byteOffset": 22788,
      "componentType": 5126,
      "count": 3648,
      "type": "VEC3"
    },
    {
      "bufferView": 3,
      "byteOffset": 15192,
      "componentType": 5126,
      "count": 3648,
      "type": "VEC2"
    },
    {
      "bufferView": 0,
      "byteOffset": 30096,
      "componentType": 5125,
      "count": 12939,
      "type": "SCALAR"
    },
    {
      "bufferView": 1,
      "byteOffset": 66564,
      "componentType": 5126,
      "count": 144,
      "type": "VEC3",
      "min": [
        -0.10938054707785819,
        0.15917764705444165,
        -0.38281677222718197
      ],
      "max": [
        0.051764028116829286,
        0.21874798920236424,
        -0.34570223489635221
      ]
    },
    {
      "bufferView": 2,
      "byteOffset": 66564,
      "componentType": 5126,
      "count": 144,
      "type": "VEC3"
    },
    {
      "bufferView": 3,
      "byteOffset": 44376,
      "componentType": 5126,
      "count": 144,
      "type": "VEC2"
    },
    {
      "bufferView": 0,
      "byteOffset": 81852,
      "componentType": 5125,
      "count": 264,
      "type": "SCALAR"
    },
    {
      "bufferView": 1,
      "byteOffset": 68292,
      "componentType": 5126,
      "count": 34,
      "type": "VEC3",
      "min": [
        -0.0791011081701534,
        0.12109613410243315,
        -0.42480925678828863
      ],
      "max": [
        0.022462110289330116,
        0.25585763513118365,
        -0.30273033540387384
      ]
    },
    {
      "bufferView": 2,
      "byteOffset": 68292,
      "componentType": 5126,
      "count": 34,
      "type": "VEC3"
    },
    {
      "bufferView": 3,
      "byteOffset": 45528,
      "componentType": 5126,
      "count": 34,
      "type": "VEC2"
    },
    {
      "bufferView": 0,
      "byteOffset": 82908,
      "componentType": 5125,
      "count": 96,
      "type": "SCALAR"
    },
    {
      "bufferView": 1,
      "byteOffset": 68700,
      "componentType": 5126,
      "count": 158,
      "type": "VEC3",
      "min": [
        -0.096678795916696786,
        0.044922599203789965,
        -0.512693690447598
      ],
      "max": [
        0.040039926855836044,
        0.33203596188298756,
        -0.21582230616657894
      ]
    },
    {
      "bufferView": 2,
      "byteOffset": 68700,
      "componentType": 5126,
      "count": 158,
      "type": "VEC3"
    },
    {
      "bufferView": 3,
      "byteOffset": 45800,
      "componentType": 5126,
      "count": 158,
      "type": "VEC2"
    },
    {
      "bufferView": 0,
      "byteOffset": 83292,
      "componentType": 5125,
      "count": 768,
      "type": "SCALAR"
    },
    {
      "bufferView": 1,
      "byteOffset": 70596,
      "componentType": 5126,
      "count": 34,
      "type": "VEC3",
      "min": [
        -0.0791011081701534,
        0.12109613410243315,
        -0.42480925678828863
      ],
      "max": [
        0.022462110289330116,
        0.25585763513118365,
        -0.30273033540387384
      ]
    },
    {
      "bufferView": 2,
      "byteOffset": 70596,
      "componentType": 5126,
      "count": 34,
      "type": "VEC3"
    },
    {
      "bufferView": 3,
      "byteOffset": 47064,
      "componentType": 5126,
      "count": 34,
      "type": "VEC2"
    },
    {
      "bufferView": 0,
      "byteOffset": 86364,
      "componentType": 5125,
      "count": 96,
      "type": "SCALAR"
    },
    {
      "bufferView": 1,
      "byteOffset": 71004,
      "componentType": 5126,
      "count": 158,
      "type": "VEC3",
      "min": [
        -0.096678795916696786,
        0.044922599203789965,
        -0.512693690447598
      ],
      "max": [
        0.040039926855836044,
        0.33203596188298756,
        -0.21582230616657894
      ]
    },
    {
      "bufferView": 2,
      "byteOffset": 71004,
      "componentType": 5126,
      "count": 158,
      "type": "VEC3"
    },
    {
      "bufferView": 3,
      "byteOffset": 47336,
      "componentType": 5126,
      "count": 158,
      "type": "VEC2"
    },
    {
      "bufferView": 0,
      "byteOffset": 86748,
      "componentType": 5125,
      "count": 768,
      "type": "SCALAR"
    },
    {
      "bufferView": 1,
      "byteOffset": 72900,
      "componentType": 5126,
      "count": 160,
      "type": "VEC3",
      "min": [
        -0.2910169987106323,
        0.45214350973170253,
        -1.296879848544225
      ],
      "max": [
        -0.26855699871063232,
        0.5791054747730493,
        -1.2656203097241745
      ]
    },
    {
      "bufferView": 2,
      "byteOffset": 72900,
      "componentType": 5126,
      "count": 160,
      "type": "VEC3"
    },
    {
      "bufferView": 3,
      "byteOffset": 48600,
      "componentType": 5126,
      "count": 160,
      "type": "VEC2"
    },
    {
      "bufferView": 0,
      "byteOffset": 89820,
      "componentType": 5125,
      "count": 942,
      "type": "SCALAR"
    },
    {
      "bufferView": 1,
      "byteOffset": 74820,
      "componentType": 5126,
      "count": 310,
      "type": "VEC3",
      "min": [
        -0.33008228315782129,
        0.59179319861372159,
        -1.1806673985657687
      ],
      "max": [
        -0.3046911398260832,
        0.73633389844972741,
        -1.144532966002473
      ]
    },
    {
      "bufferView": 2,
      "byteOffset": 74820,
      "componentType": 5126,
      "count": 310,
      "type": "VEC3"
    },
    {
      "bufferView": 3,
      "byteOffset": 49880,
      "componentType": 5126,
      "count": 310,
      "type": "VEC2"
    },
    {
      "bufferView": 0,
      "byteOffset": 93588,
      "componentType": 5125,
      "count": 1662,
      "type": "SCALAR"
    },
    {
      "bufferView": 1,
      "byteOffset": 78540,
      "componentType": 5126,
      "count": 114,
      "type": "VEC3",
      "min": [
        -0.13085935639569532,
        0.41600971263822278,
        -1.2675790433342351
      ],
      "max": [
        -0.097660413421275863,
        0.44922322835905421,
        -1.2333942916336333
      ]
    },
    {
      "bufferView": 2,
      "byteOffset": 78540,
      "componentType": 5126,
      "count": 114,
      "type": "VEC3"
    },
    {
      "bufferView": 3,
      "byteOffset": 52360,
      "componentType": 5126,
      "count": 114,
      "type": "VEC2"
    },
    {
      "bufferView": 0,
      "byteOffset": 100236,
      "componentType": 5125,
      "count": 672,
      "type": "SCALAR"
    },
    {
      "bufferView": 1,
      "byteOffset": 79908,
      "componentType": 5126,
      "count": 361,
      "type": "VEC3",
      "min": [
        -0.37793150149532084,
        0.66308370255299065,
        -1.7519555568592768
      ],
      "max": [
        0.16797425679754294,
        1.0761728655934744,
        -0.28222121967736846
      ]
    },
    {
      "bufferView": 2,
      "byteOffset": 79908,
      "componentType": 5126,
      "count": 361,
      "type": "VEC3"
    },
    {
      "bufferView": 3,
      "byteOffset": 53272,
      "componentType": 5126,
      "count": 361,
      "type": "VEC2"
    },
    {
      "bufferView": 0,
      "byteOffset": 102924,
      "componentType": 5125,
      "count": 1872,
      "type": "SCALAR"
    }
  ],
  "materials": [
    {
      "pbrMetallicRoughness": {
        "baseColorFactor": [
          0.800000011920929,
          0.800000011920929,
          0.800000011920929,
          1.0
        ],
        "roughnessFactor": 1.0,
        "metallicFactor": 0.0,
        "baseColorTexture": {
          "index": 0
        }
      },
      "emissiveFactor": [
        0.0,
        0.0,
        0.0
      ]
    },
    {
      "pbrMetallicRoughness": {
        "baseColorFactor": [
          0.20000000298023224,
          0.20000000298023224,
          0.20000000298023224,
          1.0
        ],
        "roughnessFactor": 1.0,
        "metallicFactor": 0.0,
        "baseColorTexture": {
          "index": 0
        }
      },
      "emissiveFactor": [
        0.0,
        0.0,
        0.0
      ]
    },
    {
      "pbrMetallicRoughness": {
        "baseColorFactor": [
          0.800000011920929,
          0.800000011920929,
          0.800000011920929,
          1.0
        ],
        "roughnessFactor": 1.0,
        "metallicFactor": 0.0,
        "baseColorTexture": {
          "index": 1
        }
      },
      "emissiveFactor": [
        0.0,
        0.0,
        0.0
      ]
    },
    {
      "pbrMetallicRoughness": {
        "baseColorFactor": [
          0.20000000298023224,
          0.20000000298023224,
          0.20000000298023224,
          1.0
        ],
        "roughnessFactor": 1.0,
        "metallicFactor": 0.0,
        "baseColorTexture": {
          "index": 2
        }
      },
      "emissiveFactor": [
        0.0,
        0.0,
        0.0
      ]
    },
    {
      "pbrMetallicRoughness": {
        "baseColorFactor": [
          0.800000011920929,
          0.800000011920929,
          0.800000011920929,
          1.0
        ],
        "roughnessFactor": 1.0,
        "metallicFactor": 0.0,
        "baseColorTexture": {
          "index": 2
        }
      },
      "emissiveFactor": [
        0.0,
        0.0,
        0.0
      ]
    },
    {
      "pbrMetallicRoughness": {
        "baseColorFactor": [
          0.800000011920929,
          0.800000011920929,
          0.800000011920929,
          1.0
        ],
        "roughnessFactor": 1.0,
        "metallicFactor": 0.0,
        "baseColorTexture": {
          "index": 3
        }
      },
      "emissiveFactor": [
        0.0,
        0.0,
        0.0
      ]
    },
    {
      "pbrMetallicRoughness": {
        "baseColorFactor": [
          0.0,
          0.5,
          0.5,
          0.20000000298023224
        ],
        "roughnessFactor": 1.0,
        "metallicFactor": 0.0
      },
      "emissiveFactor": [
        0.0,
        0.0,
        0.0
      ]
    },
    {
      "pbrMetallicRoughness": {
        "baseColorFactor": [
          0.20000000298023224,
          0.20000000298023224,
          0.20000000298023224,
          1.0
        ],
        "roughnessFactor": 1.0,
        "metallicFactor": 0.0
      },
      "emissiveFactor": [
        0.0,
        0.0,
        0.0
      ]
    },
    {
      "pbrMetallicRoughness": {
        "baseColorFactor": [
          0.800000011920929,
          0.800000011920929,
          0.800000011920929,
          1.0
        ],
        "roughnessFactor": 1.0,
        "metallicFactor": 0.0
      },
      "emissiveFactor": [
        0.0,
        0.0,
        0.0
      ]
    },
    {
      "pbrMetallicRoughness": {
        "baseColorFactor": [
          0.800000011920929,
          0.800000011920929,
          0.800000011920929,
          1.0
        ],
        "roughnessFactor": 1.0,
        "metallicFactor": 0.0,
        "baseColorTexture": {
          "index": 4
        }
      },
      "emissiveFactor": [
        0.0,
        0.0,
        0.0
      ]
    }
  ],
  "textures": [
    {
      "source": 0,
      "name": "asw15_01"
    },
    {
      "source": 1,
      "name": "asw15_01.bmp"
    },
    {
      "source": 2,
      "name": "asw15_02"
    },
    {
      "source": 3,
      "name": "asw15_03"
    },
    {
      "source": 4,
      "name": "pilots"
    }
  ],
  "images": [
    {
      "uri": "asw15_01.png"
    },
    {
      "uri": "asw15_01.bmp.png"
    },
    {
      "uri": "asw15_02.png"
    },
    {
      "uri": "asw15_03.png"
    },
    {
      "uri": "pilots.png"
    }
  ],
  "bufferViews": [
    {
      "buffer": 0,
      "byteOffset": 0,
      "byteLength": 110412
    },
    {
      "buffer": 0,
      "byteOffset": 110412,
      "byteLength": 84240
    },
    {
      "buffer": 0,
      "byteOffset": 194652,
      "byteLength": 84240
    },
    {
      "buffer": 0,
      "byteOffset": 278892,
      "byteLength": 56160
    }
  ],
  "buffers": [
    {
      "byteLength": 335052,
      "uri": "ASW15_stat.bin"
    }
  ]
}