{
  "asset": {
    "version": "2.0",
    "generator": "ModelConverterX"
  },
  "extensionsUsed": [],
  "scene": 0,
  "scenes": [
    {
      "nodes": [
        0
      ]
    }
  ],
  "nodes": [
    {
      "name": "node0",
      "children": [
        1,
        2,
        3
      ]
    },
    {
      "name": "node1",
      "mesh": 0
    },
    {
      "name": "node2",
      "mesh": 1
    },
    {
      "name": "node3",
      "mesh": 2
    }
  ],
  "meshes": [
    {
      "primitives": [
        {
          "attributes": {
            "POSITION": 0,
            "NORMAL": 1,
            "TEXCOORD_0": 2
          },
          "indices": 3,
          "mode": 4,
          "material": 2
        }
      ],
      "name": "part000"
    },
    {
      "primitives": [
        {
          "attributes": {
            "POSITION": 4,
            "NORMAL": 5,
            "TEXCOORD_0": 6
          },
          "indices": 7,
          "mode": 4,
          "material": 1
        }
      ],
      "name": "part001"
    },
    {
      "primitives": [
        {
          "attributes": {
            "POSITION": 8,
            "NORMAL": 9,
            "TEXCOORD_0": 10
          },
          "indices": 11,
          "mode": 4,
          "material": 0
        }
      ],
      "name": "part002"
    }
  ],
  "accessors": [
    {
      "bufferView": 1,
      "byteOffset": 0,
      "componentType": 5126,
      "count": 93,
      "type": "VEC3",
      "min": [
        -6.79884,
        0.0,
        -2.87071
      ],
      "max": [
        12.63431,
        4.74,
        18.62277
      ]
    },
    {
      "bufferView": 2,
      "byteOffset": 0,
      "componentType": 5126,
      "count": 93,
      "type": "VEC3"
    },
    {
      "bufferView": 3,
      "byteOffset": 0,
      "componentType": 5126,
      "count": 93,
      "type": "VEC2"
    },
    {
      "bufferView": 0,
      "byteOffset": 0,
      "componentType": 5125,
      "count": 141,
      "type": "SCALAR"
    },
    {
      "bufferView": 1,
      "byteOffset": 1116,
      "componentType": 5126,
      "count": 201,
      "type": "VEC3",
      "min": [
        -17.5909,
        0.0,
        -15.82402
      ],
      "max": [
        10.23332,
        4.74,
        13.65557
      ]
    },
    {
      "bufferView": 2,
      "byteOffset": 1116,
      "componentType": 5126,
      "count": 201,
      "type": "VEC3"
    },
    {
      "bufferView": 3,
      "byteOffset": 744,
      "componentType": 5126,
      "count": 201,
      "type": "VEC2"
    },
    {
      "bufferView": 0,
      "byteOffset": 564,
      "componentType": 5125,
      "count": 285,
      "type": "SCALAR"
    },
    {
      "bufferView": 1,
      "byteOffset": 3528,
      "componentType": 5126,
      "count": 4,
      "type": "VEC3",
      "min": [
        -3.79876,
        0.0,
        -1.20731
      ],
      "max": [
        3.82362,
        4.6501,
        3.30921
      ]
    },
    {
      "bufferView": 2,
      "byteOffset": 3528,
      "componentType": 5126,
      "count": 4,
      "type": "VEC3"
    },
    {
      "bufferView": 3,
      "byteOffset": 2352,
      "componentType": 5126,
      "count": 4,
      "type": "VEC2"
    },
    {
      "bufferView": 0,
      "byteOffset": 1704,
      "componentType": 5125,
      "count": 6,
      "type": "SCALAR"
    }
  ],
  "materials": [
    {
      "pbrMetallicRoughness": {
        "baseColorFactor": [
          1.0,
          1.0,
          1.0,
          1.0
        ],
        "roughnessFactor": 1.0,
        "metallicFactor": 0.0
      },
      "emissiveFactor": [
        0.0,
        0.0,
        0.0
      ]
    },
    {
      "pbrMetallicRoughness": {
        "baseColorFactor": [
          1.0,
          1.0,
          1.0,
          1.0
        ],
        "roughnessFactor": 1.0,
        "metallicFactor": 0.0,
        "baseColorTexture": {
          "index": 0
        }
      },
      "emissiveFactor": [
        0.0,
        0.0,
        0.0
      ]
    },
    {
      "pbrMetallicRoughness": {
        "baseColorFactor": [
          1.0,
          1.0,
          1.0,
          1.0
        ],
        "roughnessFactor": 1.0,
        "metallicFactor": 0.0,
        "baseColorTexture": {
          "index": 1
        }
      },
      "emissiveFactor": [
        0.0,
        0.0,
        0.0
      ]
    }
  ],
  "textures": [
    {
      "source": 0,
      "name": "llmg_bld4"
    },
    {
      "source": 1,
      "name": "llmg_bld6"
    }
  ],
  "images": [
    {
      "uri": "llmg_bld4.png"
    },
    {
      "uri": "llmg_bld6.png"
    }
  ],
  "bufferViews": [
    {
      "buffer": 0,
      "byteOffset": 0,
      "byteLength": 1728
    },
    {
      "buffer": 0,
      "byteOffset": 1728,
      "byteLength": 3576
    },
    {
      "buffer": 0,
      "byteOffset": 5304,
      "byteLength": 3576
    },
    {
      "buffer": 0,
      "byteOffset": 8880,
      "byteLength": 2384
    }
  ],
  "buffers": [
    {
      "byteLength": 11264,
      "uri": "llmg_bld9.bin"
    }
  ]
}