{
  "asset": {
    "version": "2.0",
    "generator": "ModelConverterX"
  },
  "extensionsUsed": [],
  "scene": 0,
  "scenes": [
    {
      "nodes": [
        0
      ]
    }
  ],
  "nodes": [
    {
      "name": "node0",
      "children": [
        1,
        2,
        3,
        4,
        5,
        6,
        7,
        8,
        9,
        10,
        11
      ]
    },
    {
      "name": "node1",
      "mesh": 0
    },
    {
      "name": "node2",
      "mesh": 1
    },
    {
      "name": "node3",
      "mesh": 2
    },
    {
      "name": "node4",
      "mesh": 3
    },
    {
      "name": "node5",
      "mesh": 4
    },
    {
      "name": "node6",
      "mesh": 5
    },
    {
      "name": "node7",
      "mesh": 6
    },
    {
      "name": "node8",
      "mesh": 7
    },
    {
      "name": "node9",
      "mesh": 8
    },
    {
      "name": "node10",
      "mesh": 9
    },
    {
      "name": "node11",
      "mesh": 10
    }
  ],
  "meshes": [
    {
      "primitives": [
        {
          "attributes": {
            "POSITION": 0,
            "NORMAL": 1,
            "TEXCOORD_0": 2
          },
          "indices": 3,
          "mode": 4,
          "material": 0
        }
      ],
      "name": "part000"
    },
    {
      "primitives": [
        {
          "attributes": {
            "POSITION": 4,
            "NORMAL": 5,
            "TEXCOORD_0": 6
          },
          "indices": 7,
          "mode": 4,
          "material": 6
        }
      ],
      "name": "part001"
    },
    {
      "primitives": [
        {
          "attributes": {
            "POSITION": 8,
            "NORMAL": 9,
            "TEXCOORD_0": 10
          },
          "indices": 11,
          "mode": 4,
          "material": 7
        }
      ],
      "name": "part002"
    },
    {
      "primitives": [
        {
          "attributes": {
            "POSITION": 12,
            "NORMAL": 13,
            "TEXCOORD_0": 14
          },
          "indices": 15,
          "mode": 4,
          "material": 1
        }
      ],
      "name": "part003"
    },
    {
      "primitives": [
        {
          "attributes": {
            "POSITION": 16,
            "NORMAL": 17,
            "TEXCOORD_0": 18
          },
          "indices": 19,
          "mode": 4,
          "material": 4
        }
      ],
      "name": "part004"
    },
    {
      "primitives": [
        {
          "attributes": {
            "POSITION": 20,
            "NORMAL": 21,
            "TEXCOORD_0": 22
          },
          "indices": 23,
          "mode": 4,
          "material": 2
        }
      ],
      "name": "part005"
    },
    {
      "primitives": [
        {
          "attributes": {
            "POSITION": 24,
            "NORMAL": 25,
            "TEXCOORD_0": 26
          },
          "indices": 27,
          "mode": 4,
          "material": 9
        }
      ],
      "name": "part006"
    },
    {
      "primitives": [
        {
          "attributes": {
            "POSITION": 28,
            "NORMAL": 29,
            "TEXCOORD_0": 30
          },
          "indices": 31,
          "mode": 4,
          "material": 5
        }
      ],
      "name": "part007"
    },
    {
      "primitives": [
        {
          "attributes": {
            "POSITION": 32,
            "NORMAL": 33,
            "TEXCOORD_0": 34
          },
          "indices": 35,
          "mode": 4,
          "material": 3
        }
      ],
      "name": "part008"
    },
    {
      "primitives": [
        {
          "attributes": {
            "POSITION": 36,
            "NORMAL": 37,
            "TEXCOORD_0": 38
          },
          "indices": 39,
          "mode": 4,
          "material": 8
        }
      ],
      "name": "part009"
    },
    {
      "primitives": [
        {
          "attributes": {
            "POSITION": 40,
            "NORMAL": 41,
            "TEXCOORD_0": 42
          },
          "indices": 43,
          "mode": 4,
          "material": 10
        }
      ],
      "name": "part010"
    }
  ],
  "accessors": [
    {
      "bufferView": 1,
      "byteOffset": 0,
      "componentType": 5126,
      "count": 52,
      "type": "VEC3",
      "min": [
        -0.09378,
        0.18497,
        4.51556
      ],
      "max": [
        0.04786,
        0.24152,
        4.6992
      ]
    },
    {
      "bufferView": 2,
      "byteOffset": 0,
      "componentType": 5126,
      "count": 52,
      "type": "VEC3"
    },
    {
      "bufferView": 3,
      "byteOffset": 0,
      "componentType": 5126,
      "count": 52,
      "type": "VEC2"
    },
    {
      "bufferView": 0,
      "byteOffset": 0,
      "componentType": 5125,
      "count": 132,
      "type": "SCALAR"
    },
    {
      "bufferView": 1,
      "byteOffset": 624,
      "componentType": 5126,
      "count": 24,
      "type": "VEC3",
      "min": [
        -0.35449,
        0.56738,
        -1.55957
      ],
      "max": [
        0.24219,
        0.85938,
        -1.04199
      ]
    },
    {
      "bufferView": 2,
      "byteOffset": 624,
      "componentType": 5126,
      "count": 24,
      "type": "VEC3"
    },
    {
      "bufferView": 3,
      "byteOffset": 416,
      "componentType": 5126,
      "count": 24,
      "type": "VEC2"
    },
    {
      "bufferView": 0,
      "byteOffset": 528,
      "componentType": 5125,
      "count": 72,
      "type": "SCALAR"
    },
    {
      "bufferView": 1,
      "byteOffset": 912,
      "componentType": 5126,
      "count": 74,
      "type": "VEC3",
      "min": [
        -0.31445,
        0.67578,
        -1.26855
      ],
      "max": [
        0.18359,
        1.04981,
        -1.25781
      ]
    },
    {
      "bufferView": 2,
      "byteOffset": 912,
      "componentType": 5126,
      "count": 74,
      "type": "VEC3"
    },
    {
      "bufferView": 3,
      "byteOffset": 608,
      "componentType": 5126,
      "count": 74,
      "type": "VEC2"
    },
    {
      "bufferView": 0,
      "byteOffset": 816,
      "componentType": 5125,
      "count": 96,
      "type": "SCALAR"
    },
    {
      "bufferView": 1,
      "byteOffset": 1800,
      "componentType": 5126,
      "count": 298,
      "type": "VEC3",
      "min": [
        -0.12793,
        0.05273,
        -0.42773
      ],
      "max": [
        0.08691,
        0.42676,
        -0.05078
      ]
    },
    {
      "bufferView": 2,
      "byteOffset": 1800,
      "componentType": 5126,
      "count": 298,
      "type": "VEC3"
    },
    {
      "bufferView": 3,
      "byteOffset": 1200,
      "componentType": 5126,
      "count": 298,
      "type": "VEC2"
    },
    {
      "bufferView": 0,
      "byteOffset": 1200,
      "componentType": 5125,
      "count": 1032,
      "type": "SCALAR"
    },
    {
      "bufferView": 1,
      "byteOffset": 5376,
      "componentType": 5126,
      "count": 3703,
      "type": "VEC3",
      "min": [
        -9.96777,
        -0.00098,
        -1.87207
      ],
      "max": [
        9.84082,
        1.76465,
        5.43457
      ]
    },
    {
      "bufferView": 2,
      "byteOffset": 5376,
      "componentType": 5126,
      "count": 3703,
      "type": "VEC3"
    },
    {
      "bufferView": 3,
      "byteOffset": 3584,
      "componentType": 5126,
      "count": 3703,
      "type": "VEC2"
    },
    {
      "bufferView": 0,
      "byteOffset": 5328,
      "componentType": 5125,
      "count": 11580,
      "type": "SCALAR"
    },
    {
      "bufferView": 1,
      "byteOffset": 49812,
      "componentType": 5126,
      "count": 480,
      "type": "VEC3",
      "min": [
        -0.30273,
        0.70897,
        -1.18895
      ],
      "max": [
        -0.25877,
        0.80862,
        -1.16159
      ]
    },
    {
      "bufferView": 2,
      "byteOffset": 49812,
      "componentType": 5126,
      "count": 480,
      "type": "VEC3"
    },
    {
      "bufferView": 3,
      "byteOffset": 33208,
      "componentType": 5126,
      "count": 480,
      "type": "VEC2"
    },
    {
      "bufferView": 0,
      "byteOffset": 51648,
      "componentType": 5125,
      "count": 2331,
      "type": "SCALAR"
    },
    {
      "bufferView": 1,
      "byteOffset": 55572,
      "componentType": 5126,
      "count": 455,
      "type": "VEC3",
      "min": [
        -9.97363,
        -0.00098,
        -2.27442
      ],
      "max": [
        9.84472,
        1.61816,
        5.09082
      ]
    },
    {
      "bufferView": 2,
      "byteOffset": 55572,
      "componentType": 5126,
      "count": 455,
      "type": "VEC3"
    },
    {
      "bufferView": 3,
      "byteOffset": 37048,
      "componentType": 5126,
      "count": 455,
      "type": "VEC2"
    },
    {
      "bufferView": 0,
      "byteOffset": 60972,
      "componentType": 5125,
      "count": 840,
      "type": "SCALAR"
    },
    {
      "bufferView": 1,
      "byteOffset": 61032,
      "componentType": 5126,
      "count": 407,
      "type": "VEC3",
      "min": [
        -0.34082,
        0.40234,
        -1.08496
      ],
      "max": [
        0.15137,
        0.88574,
        -0.27734
      ]
    },
    {
      "bufferView": 2,
      "byteOffset": 61032,
      "componentType": 5126,
      "count": 407,
      "type": "VEC3"
    },
    {
      "bufferView": 3,
      "byteOffset": 40688,
      "componentType": 5126,
      "count": 407,
      "type": "VEC2"
    },
    {
      "bufferView": 0,
      "byteOffset": 64332,
      "componentType": 5125,
      "count": 1926,
      "type": "SCALAR"
    },
    {
      "bufferView": 1,
      "byteOffset": 65916,
      "componentType": 5126,
      "count": 5059,
      "type": "VEC3",
      "min": [
        -9.7959,
        0.00195,
        -2.28418
      ],
      "max": [
        9.73437,
        1.58496,
        5.09082
      ]
    },
    {
      "bufferView": 2,
      "byteOffset": 65916,
      "componentType": 5126,
      "count": 5059,
      "type": "VEC3"
    },
    {
      "bufferView": 3,
      "byteOffset": 43944,
      "componentType": 5126,
      "count": 5059,
      "type": "VEC2"
    },
    {
      "bufferView": 0,
      "byteOffset": 72036,
      "componentType": 5125,
      "count": 20790,
      "type": "SCALAR"
    },
    {
      "bufferView": 1,
      "byteOffset": 126624,
      "componentType": 5126,
      "count": 252,
      "type": "VEC3",
      "min": [
        -0.34668,
        0.90527,
        -0.79492
      ],
      "max": [
        -0.2832,
        1.01562,
        -0.46875
      ]
    },
    {
      "bufferView": 2,
      "byteOffset": 126624,
      "componentType": 5126,
      "count": 252,
      "type": "VEC3"
    },
    {
      "bufferView": 3,
      "byteOffset": 84416,
      "componentType": 5126,
      "count": 252,
      "type": "VEC2"
    },
    {
      "bufferView": 0,
      "byteOffset": 155196,
      "componentType": 5125,
      "count": 1302,
      "type": "SCALAR"
    },
    {
      "bufferView": 1,
      "byteOffset": 129648,
      "componentType": 5126,
      "count": 119,
      "type": "VEC3",
      "min": [
        -0.35742,
        0.8457,
        -1.73828
      ],
      "max": [
        0.2207,
        1.20117,
        -0.19531
      ]
    },
    {
      "bufferView": 2,
      "byteOffset": 129648,
      "componentType": 5126,
      "count": 119,
      "type": "VEC3"
    },
    {
      "bufferView": 3,
      "byteOffset": 86432,
      "componentType": 5126,
      "count": 119,
      "type": "VEC2"
    },
    {
      "bufferView": 0,
      "byteOffset": 160404,
      "componentType": 5125,
      "count": 582,
      "type": "SCALAR"
    }
  ],
  "materials": [
    {
      "pbrMetallicRoughness": {
        "baseColorFactor": [
          1.0,
          1.0,
          1.0,
          1.0
        ],
        "roughnessFactor": 1.0,
        "metallicFactor": 0.0,
        "baseColorTexture": {
          "index": 0
        }
      },
      "emissiveFactor": [
        0.0,
        0.0,
        0.0
      ]
    },
    {
      "pbrMetallicRoughness": {
        "baseColorFactor": [
          0.20000000298023224,
          0.20000000298023224,
          0.20000000298023224,
          1.0
        ],
        "roughnessFactor": 1.0,
        "metallicFactor": 0.0,
        "baseColorTexture": {
          "index": 0
        }
      },
      "emissiveFactor": [
        0.0,
        0.0,
        0.0
      ]
    },
    {
      "pbrMetallicRoughness": {
        "baseColorFactor": [
          0.0,
          0.40000000596046448,
          0.699999988079071,
          1.0
        ],
        "roughnessFactor": 1.0,
        "metallicFactor": 0.0,
        "baseColorTexture": {
          "index": 0
        }
      },
      "emissiveFactor": [
        0.0,
        0.0,
        0.0
      ]
    },
    {
      "pbrMetallicRoughness": {
        "baseColorFactor": [
          0.800000011920929,
          0.800000011920929,
          0.800000011920929,
          1.0
        ],
        "roughnessFactor": 1.0,
        "metallicFactor": 0.0,
        "baseColorTexture": {
          "index": 0
        }
      },
      "emissiveFactor": [
        0.0,
        0.0,
        0.0
      ]
    },
    {
      "pbrMetallicRoughness": {
        "baseColorFactor": [
          0.800000011920929,
          0.800000011920929,
          0.800000011920929,
          1.0
        ],
        "roughnessFactor": 1.0,
        "metallicFactor": 0.0,
        "baseColorTexture": {
          "index": 1
        }
      },
      "emissiveFactor": [
        0.0,
        0.0,
        0.0
      ]
    },
    {
      "pbrMetallicRoughness": {
        "baseColorFactor": [
          0.800000011920929,
          0.800000011920929,
          0.800000011920929,
          1.0
        ],
        "roughnessFactor": 1.0,
        "metallicFactor": 0.0,
        "baseColorTexture": {
          "index": 2
        }
      },
      "emissiveFactor": [
        0.0,
        0.0,
        0.0
      ]
    },
    {
      "pbrMetallicRoughness": {
        "baseColorFactor": [
          0.800000011920929,
          0.800000011920929,
          0.800000011920929,
          1.0
        ],
        "roughnessFactor": 1.0,
        "metallicFactor": 0.0,
        "baseColorTexture": {
          "index": 3
        }
      },
      "emissiveFactor": [
        0.0,
        0.0,
        0.0
      ]
    },
    {
      "pbrMetallicRoughness": {
        "baseColorFactor": [
          0.800000011920929,
          0.800000011920929,
          0.800000011920929,
          1.0
        ],
        "roughnessFactor": 1.0,
        "metallicFactor": 0.0,
        "baseColorTexture": {
          "index": 4
        }
      },
      "emissiveFactor": [
        0.0,
        0.0,
        0.0
      ]
    },
    {
      "pbrMetallicRoughness": {
        "baseColorFactor": [
          0.5,
          0.800000011920929,
          0.800000011920929,
          0.20000000298023224
        ],
        "roughnessFactor": 1.0,
        "metallicFactor": 0.0
      },
      "emissiveFactor": [
        0.0,
        0.0,
        0.0
      ]
    },
    {
      "pbrMetallicRoughness": {
        "baseColorFactor": [
          0.800000011920929,
          0.800000011920929,
          0.800000011920929,
          1.0
        ],
        "roughnessFactor": 1.0,
        "metallicFactor": 0.0
      },
      "emissiveFactor": [
        0.0,
        0.0,
        0.0
      ]
    },
    {
      "pbrMetallicRoughness": {
        "baseColorFactor": [
          0.5,
          0.800000011920929,
          0.800000011920929,
          0.20000000298023224
        ],
        "roughnessFactor": 1.0,
        "metallicFactor": 0.0,
        "baseColorTexture": {
          "index": 5
        }
      },
      "emissiveFactor": [
        0.0,
        0.0,
        0.0
      ]
    }
  ],
  "textures": [
    {
      "source": 0,
      "name": "asw17_01"
    },
    {
      "source": 1,
      "name": "asw17_02"
    },
    {
      "source": 2,
      "name": "asw17_03"
    },
    {
      "source": 3,
      "name": "asw17_04"
    },
    {
      "source": 4,
      "name": "asw17_05"
    },
    {
      "source": 5,
      "name": "ds_glass"
    }
  ],
  "images": [
    {
      "uri": "asw17_01.png"
    },
    {
      "uri": "asw17_02.png"
    },
    {
      "uri": "asw17_03.png"
    },
    {
      "uri": "asw17_04.png"
    },
    {
      "uri": "asw17_05.png"
    },
    {
      "uri": "ds_glass.png"
    }
  ],
  "bufferViews": [
    {
      "buffer": 0,
      "byteOffset": 0,
      "byteLength": 162732
    },
    {
      "buffer": 0,
      "byteOffset": 162732,
      "byteLength": 131076
    },
    {
      "buffer": 0,
      "byteOffset": 293808,
      "byteLength": 131076
    },
    {
      "buffer": 0,
      "byteOffset": 424884,
      "byteLength": 87384
    }
  ],
  "buffers": [
    {
      "byteLength": 512268,
      "uri": "ASW17_stat.bin"
    }
  ]
}