{
  "asset": {
    "version": "2.0",
    "generator": "ModelConverterX"
  },
  "extensionsUsed": [
    "ASOBO_material_day_night_switch"
  ],
  "scene": 0,
  "scenes": [
    {
      "nodes": [
        0
      ]
    }
  ],
  "nodes": [
    {
      "name": "node0",
      "children": [
        1
      ]
    },
    {
      "name": "node1",
      "mesh": 0
    }
  ],
  "meshes": [
    {
      "primitives": [
        {
          "attributes": {
            "POSITION": 0,
            "NORMAL": 1,
            "TEXCOORD_0": 2
          },
          "indices": 3,
          "mode": 4,
          "material": 0
        }
      ],
      "name": "part000"
    }
  ],
  "accessors": [
    {
      "bufferView": 1,
      "byteOffset": 0,
      "componentType": 5126,
      "count": 146,
      "type": "VEC3",
      "min": [
        3.041100025177002,
        0.0,
        15.997920036315918
      ],
      "max": [
        6.781099796295166,
        8.5399999618530273,
        25.457920074462891
      ]
    },
    {
      "bufferView": 2,
      "byteOffset": 0,
      "componentType": 5126,
      "count": 146,
      "type": "VEC3"
    },
    {
      "bufferView": 3,
      "byteOffset": 0,
      "componentType": 5126,
      "count": 146,
      "type": "VEC2"
    },
    {
      "bufferView": 0,
      "byteOffset": 0,
      "componentType": 5125,
      "count": 264,
      "type": "SCALAR"
    }
  ],
  "materials": [
    {
      "name": "material00",
      "pbrMetallicRoughness": {
        "baseColorFactor": [
          1.0,
          1.0,
          1.0,
          1.0
        ],
        "roughnessFactor": 1.0,
        "metallicFactor": 0.0,
        "baseColorTexture": {
          "index": 0
        },
        "metallicRoughnessTexture": {
          "index": 1
        }
      },
      "emissiveFactor": [
        0.0,
        0.0,
        0.0
      ],
      "normalTexture": {
        "index": 2
      },
      "occlusionTexture": {
        "index": 1
      },
      "extensions": {
        "ASOBO_material_day_night_switch": {
          "enabled": true
        }
      }
    }
  ],
  "textures": [
    {
      "source": 0,
      "name": "llmg_twr"
    },
    {
      "source": 1,
      "name": "llmg_twr_comp"
    },
    {
      "source": 2,
      "name": "llmg_twr_norm"
    }
  ],
  "images": [
    {
      "uri": "llmg_twr.png"
    },
    {
      "uri": "llmg_twr_comp.png"
    },
    {
      "uri": "llmg_twr_norm.png"
    }
  ],
  "bufferViews": [
    {
      "buffer": 0,
      "byteOffset": 0,
      "byteLength": 1056
    },
    {
      "buffer": 0,
      "byteOffset": 1056,
      "byteLength": 1752,
      "byteStride": 12
    },
    {
      "buffer": 0,
      "byteOffset": 2808,
      "byteLength": 1752,
      "byteStride": 12
    },
    {
      "buffer": 0,
      "byteOffset": 4560,
      "byteLength": 1168,
      "byteStride": 8
    }
  ],
  "buffers": [
    {
      "byteLength": 5728,
      "uri": "llmg_twr.bin"
    }
  ]
}