{
  "asset": {
    "version": "2.0",
    "generator": "ModelConverterX"
  },
  "extensionsUsed": [
    "ASOBO_material_day_night_switch"
  ],
  "scene": 0,
  "scenes": [
    {
      "nodes": [
        0
      ]
    }
  ],
  "nodes": [
    {
      "name": "node0",
      "children": [
        1
      ]
    },
    {
      "name": "node1",
      "mesh": 0
    }
  ],
  "meshes": [
    {
      "primitives": [
        {
          "attributes": {
            "POSITION": 0,
            "NORMAL": 1,
            "TEXCOORD_0": 2
          },
          "indices": 3,
          "mode": 4,
          "material": 0
        }
      ],
      "name": "part000"
    }
  ],
  "accessors": [
    {
      "bufferView": 1,
      "byteOffset": 0,
      "componentType": 5126,
      "count": 80,
      "type": "VEC3",
      "min": [
        2.799450177248118E-17,
        0.0,
        -0.45719999074935913
      ],
      "max": [
        0.45719999074935913,
        0.91439998149871826,
        2.799450177248118E-17
      ]
    },
    {
      "bufferView": 2,
      "byteOffset": 0,
      "componentType": 5126,
      "count": 80,
      "type": "VEC3"
    },
    {
      "bufferView": 3,
      "byteOffset": 0,
      "componentType": 5126,
      "count": 80,
      "type": "VEC2"
    },
    {
      "bufferView": 0,
      "byteOffset": 0,
      "componentType": 5125,
      "count": 210,
      "type": "SCALAR"
    }
  ],
  "materials": [
    {
      "name": "material00",
      "pbrMetallicRoughness": {
        "baseColorFactor": [
          1.0,
          1.0,
          1.0,
          1.0
        ],
        "roughnessFactor": 1.0,
        "metallicFactor": 0.0,
        "baseColorTexture": {
          "index": 0
        },
        "metallicRoughnessTexture": {
          "index": 1
        }
      },
      "emissiveFactor": [
        0.0,
        0.0,
        0.0
      ],
      "normalTexture": {
        "index": 2
      },
      "occlusionTexture": {
        "index": 1
      },
      "extensions": {
        "ASOBO_material_day_night_switch": {
          "enabled": true
        }
      }
    }
  ],
  "textures": [
    {
      "source": 0,
      "name": "rustybarrel"
    },
    {
      "source": 1,
      "name": "rustybarrel_comp"
    },
    {
      "source": 2,
      "name": "rustybarrel_norm"
    }
  ],
  "images": [
    {
      "uri": "rustybarrel.png"
    },
    {
      "uri": "rustybarrel_comp.png"
    },
    {
      "uri": "rustybarrel_norm.png"
    }
  ],
  "bufferViews": [
    {
      "buffer": 0,
      "byteOffset": 0,
      "byteLength": 840
    },
    {
      "buffer": 0,
      "byteOffset": 840,
      "byteLength": 960,
      "byteStride": 12
    },
    {
      "buffer": 0,
      "byteOffset": 1800,
      "byteLength": 960,
      "byteStride": 12
    },
    {
      "buffer": 0,
      "byteOffset": 2760,
      "byteLength": 640,
      "byteStride": 8
    }
  ],
  "buffers": [
    {
      "byteLength": 3400,
      "uri": "RusryBarrel.bin"
    }
  ]
}