{
  "asset": {
    "version": "2.0",
    "generator": "ModelConverterX"
  },
  "extensionsUsed": [
    "ASOBO_material_day_night_switch"
  ],
  "scene": 0,
  "scenes": [
    {
      "nodes": [
        0
      ]
    }
  ],
  "nodes": [
    {
      "name": "node0",
      "children": [
        1,
        2,
        3
      ]
    },
    {
      "name": "node4",
      "mesh": 0
    },
    {
      "name": "node5",
      "mesh": 1
    },
    {
      "name": "node6",
      "mesh": 2
    }
  ],
  "meshes": [
    {
      "primitives": [
        {
          "attributes": {
            "POSITION": 0,
            "NORMAL": 1,
            "TEXCOORD_0": 2
          },
          "indices": 3,
          "mode": 4,
          "material": 0
        }
      ],
      "name": "part000"
    },
    {
      "primitives": [
        {
          "attributes": {
            "POSITION": 4,
            "NORMAL": 5,
            "TEXCOORD_0": 6
          },
          "indices": 7,
          "mode": 4,
          "material": 1
        }
      ],
      "name": "part001"
    },
    {
      "primitives": [
        {
          "attributes": {
            "POSITION": 8,
            "NORMAL": 9,
            "TEXCOORD_0": 10
          },
          "indices": 11,
          "mode": 4,
          "material": 2
        }
      ],
      "name": "part002"
    }
  ],
  "accessors": [
    {
      "bufferView": 1,
      "byteOffset": 0,
      "componentType": 5126,
      "count": 416,
      "type": "VEC3",
      "min": [
        0.0,
        0.0,
        -0.14000000059604645
      ],
      "max": [
        1.3025000095367432,
        2.0999999046325684,
        1.5919882334993108E-16
      ]
    },
    {
      "bufferView": 2,
      "byteOffset": 0,
      "componentType": 5126,
      "count": 416,
      "type": "VEC3"
    },
    {
      "bufferView": 3,
      "byteOffset": 0,
      "componentType": 5126,
      "count": 416,
      "type": "VEC2"
    },
    {
      "bufferView": 0,
      "byteOffset": 0,
      "componentType": 5125,
      "count": 609,
      "type": "SCALAR"
    },
    {
      "bufferView": 1,
      "byteOffset": 4992,
      "componentType": 5126,
      "count": 4,
      "type": "VEC3",
      "min": [
        0.0,
        1.5,
        0.0
      ],
      "max": [
        1.2999999523162842,
        2.0,
        1.5919882334993108E-16
      ]
    },
    {
      "bufferView": 2,
      "byteOffset": 4992,
      "componentType": 5126,
      "count": 4,
      "type": "VEC3"
    },
    {
      "bufferView": 3,
      "byteOffset": 3328,
      "componentType": 5126,
      "count": 4,
      "type": "VEC2"
    },
    {
      "bufferView": 0,
      "byteOffset": 2436,
      "componentType": 5125,
      "count": 6,
      "type": "SCALAR"
    },
    {
      "bufferView": 1,
      "byteOffset": 5040,
      "componentType": 5126,
      "count": 4,
      "type": "VEC3",
      "min": [
        0.0024999999441206455,
        1.8999999761581421,
        -0.14000000059604645
      ],
      "max": [
        1.3025000095367432,
        2.0999999046325684,
        -0.14000000059604645
      ]
    },
    {
      "bufferView": 2,
      "byteOffset": 5040,
      "componentType": 5126,
      "count": 4,
      "type": "VEC3"
    },
    {
      "bufferView": 3,
      "byteOffset": 3360,
      "componentType": 5126,
      "count": 4,
      "type": "VEC2"
    },
    {
      "bufferView": 0,
      "byteOffset": 2460,
      "componentType": 5125,
      "count": 6,
      "type": "SCALAR"
    }
  ],
  "materials": [
    {
      "name": "material00",
      "pbrMetallicRoughness": {
        "baseColorFactor": [
          1.0,
          1.0,
          1.0,
          1.0
        ],
        "roughnessFactor": 1.0,
        "metallicFactor": 0.0,
        "baseColorTexture": {
          "index": 0
        },
        "metallicRoughnessTexture": {
          "index": 1
        }
      },
      "emissiveFactor": [
        0.0,
        0.0,
        0.0
      ],
      "occlusionTexture": {
        "index": 1
      },
      "extensions": {
        "ASOBO_material_day_night_switch": {
          "enabled": true
        }
      }
    },
    {
      "name": "material01",
      "pbrMetallicRoughness": {
        "baseColorFactor": [
          1.0,
          1.0,
          1.0,
          1.0
        ],
        "roughnessFactor": 1.0,
        "metallicFactor": 0.0,
        "baseColorTexture": {
          "index": 2
        },
        "metallicRoughnessTexture": {
          "index": 3
        }
      },
      "emissiveFactor": [
        0.0,
        0.0,
        0.0
      ],
      "occlusionTexture": {
        "index": 3
      },
      "extensions": {
        "ASOBO_material_day_night_switch": {
          "enabled": true
        }
      }
    },
    {
      "name": "material02",
      "pbrMetallicRoughness": {
        "baseColorFactor": [
          1.0,
          1.0,
          1.0,
          1.0
        ],
        "roughnessFactor": 1.0,
        "metallicFactor": 0.0,
        "baseColorTexture": {
          "index": 4
        },
        "metallicRoughnessTexture": {
          "index": 5
        }
      },
      "emissiveFactor": [
        0.0,
        0.0,
        0.0
      ],
      "occlusionTexture": {
        "index": 5
      },
      "extensions": {
        "ASOBO_material_day_night_switch": {
          "enabled": true
        }
      }
    }
  ],
  "textures": [
    {
      "source": 0,
      "name": "chimnirlargehangar_felix_metal"
    },
    {
      "source": 1,
      "name": "chimnirlargehangar_felix_metal_comp"
    },
    {
      "source": 2,
      "name": "shlatim1"
    },
    {
      "source": 3,
      "name": "shlatim1_comp"
    },
    {
      "source": 4,
      "name": "shlatim2"
    },
    {
      "source": 5,
      "name": "shlatim2_comp"
    }
  ],
  "images": [
    {
      "uri": "chimnirlargehangar_felix_metal.png"
    },
    {
      "uri": "chimnirlargehangar_felix_metal_comp.png"
    },
    {
      "uri": "shlatim1.png"
    },
    {
      "uri": "shlatim1_comp.png"
    },
    {
      "uri": "shlatim2.png"
    },
    {
      "uri": "shlatim2_comp.png"
    }
  ],
  "bufferViews": [
    {
      "buffer": 0,
      "byteOffset": 0,
      "byteLength": 2484
    },
    {
      "buffer": 0,
      "byteOffset": 2484,
      "byteLength": 5088,
      "byteStride": 12
    },
    {
      "buffer": 0,
      "byteOffset": 7572,
      "byteLength": 5088,
      "byteStride": 12
    },
    {
      "buffer": 0,
      "byteOffset": 12660,
      "byteLength": 3392,
      "byteStride": 8
    }
  ],
  "buffers": [
    {
      "byteLength": 16052,
      "uri": "KibuiOrangeAtzorShelet_LOD1.bin"
    }
  ]
}