{
  "asset": {
    "version": "2.0",
    "generator": "ModelConverterX"
  },
  "extensionsUsed": [],
  "scene": 0,
  "scenes": [
    {
      "nodes": [
        0
      ]
    }
  ],
  "nodes": [
    {
      "name": "node0",
      "children": [
        1,
        2,
        3,
        4,
        5,
        6,
        7,
        8,
        9,
        10,
        11,
        12
      ]
    },
    {
      "name": "node1",
      "mesh": 0
    },
    {
      "name": "node2",
      "mesh": 1
    },
    {
      "name": "node3",
      "mesh": 2
    },
    {
      "name": "node4",
      "mesh": 3
    },
    {
      "name": "node5",
      "mesh": 4
    },
    {
      "name": "node6",
      "mesh": 5
    },
    {
      "name": "node7",
      "mesh": 6
    },
    {
      "name": "node8",
      "mesh": 7
    },
    {
      "name": "node9",
      "mesh": 8
    },
    {
      "name": "node10",
      "mesh": 9
    },
    {
      "name": "node11",
      "mesh": 10
    },
    {
      "name": "node12",
      "mesh": 11
    }
  ],
  "meshes": [
    {
      "primitives": [
        {
          "attributes": {
            "POSITION": 0,
            "NORMAL": 1,
            "TEXCOORD_0": 2
          },
          "indices": 3,
          "mode": 4,
          "material": 0
        }
      ],
      "name": "part000"
    },
    {
      "primitives": [
        {
          "attributes": {
            "POSITION": 4,
            "NORMAL": 5,
            "TEXCOORD_0": 6
          },
          "indices": 7,
          "mode": 4,
          "material": 7
        }
      ],
      "name": "part001"
    },
    {
      "primitives": [
        {
          "attributes": {
            "POSITION": 8,
            "NORMAL": 9,
            "TEXCOORD_0": 10
          },
          "indices": 11,
          "mode": 4,
          "material": 4
        }
      ],
      "name": "part002"
    },
    {
      "primitives": [
        {
          "attributes": {
            "POSITION": 12,
            "NORMAL": 13,
            "TEXCOORD_0": 14
          },
          "indices": 15,
          "mode": 4,
          "material": 6
        }
      ],
      "name": "part003"
    },
    {
      "primitives": [
        {
          "attributes": {
            "POSITION": 16,
            "NORMAL": 17,
            "TEXCOORD_0": 18
          },
          "indices": 19,
          "mode": 4,
          "material": 5
        }
      ],
      "name": "part004"
    },
    {
      "primitives": [
        {
          "attributes": {
            "POSITION": 20,
            "NORMAL": 21,
            "TEXCOORD_0": 22
          },
          "indices": 23,
          "mode": 4,
          "material": 1
        }
      ],
      "name": "part005"
    },
    {
      "primitives": [
        {
          "attributes": {
            "POSITION": 24,
            "NORMAL": 25,
            "TEXCOORD_0": 26
          },
          "indices": 27,
          "mode": 4,
          "material": 2
        }
      ],
      "name": "part006"
    },
    {
      "primitives": [
        {
          "attributes": {
            "POSITION": 28,
            "NORMAL": 29,
            "TEXCOORD_0": 30
          },
          "indices": 31,
          "mode": 4,
          "material": 11
        }
      ],
      "name": "part007"
    },
    {
      "primitives": [
        {
          "attributes": {
            "POSITION": 32,
            "NORMAL": 33,
            "TEXCOORD_0": 34
          },
          "indices": 35,
          "mode": 4,
          "material": 3
        }
      ],
      "name": "part008"
    },
    {
      "primitives": [
        {
          "attributes": {
            "POSITION": 36,
            "NORMAL": 37,
            "TEXCOORD_0": 38
          },
          "indices": 39,
          "mode": 4,
          "material": 10
        }
      ],
      "name": "part009"
    },
    {
      "primitives": [
        {
          "attributes": {
            "POSITION": 40,
            "NORMAL": 41,
            "TEXCOORD_0": 42
          },
          "indices": 43,
          "mode": 4,
          "material": 8
        }
      ],
      "name": "part010"
    },
    {
      "primitives": [
        {
          "attributes": {
            "POSITION": 44,
            "NORMAL": 45,
            "TEXCOORD_0": 46
          },
          "indices": 47,
          "mode": 4,
          "material": 9
        }
      ],
      "name": "part011"
    }
  ],
  "accessors": [
    {
      "bufferView": 1,
      "byteOffset": 0,
      "componentType": 5126,
      "count": 480,
      "type": "VEC3",
      "min": [
        -0.31543,
        0.49997,
        -1.22442
      ],
      "max": [
        -0.27341,
        0.6006,
        -1.19611
      ]
    },
    {
      "bufferView": 2,
      "byteOffset": 0,
      "componentType": 5126,
      "count": 480,
      "type": "VEC3"
    },
    {
      "bufferView": 3,
      "byteOffset": 0,
      "componentType": 5126,
      "count": 480,
      "type": "VEC2"
    },
    {
      "bufferView": 0,
      "byteOffset": 0,
      "componentType": 5125,
      "count": 2331,
      "type": "SCALAR"
    },
    {
      "bufferView": 1,
      "byteOffset": 5760,
      "componentType": 5126,
      "count": 71,
      "type": "VEC3",
      "min": [
        -0.32129,
        0.47266,
        -1.26758
      ],
      "max": [
        0.15234,
        0.81934,
        -1.26465
      ]
    },
    {
      "bufferView": 2,
      "byteOffset": 5760,
      "componentType": 5126,
      "count": 71,
      "type": "VEC3"
    },
    {
      "bufferView": 3,
      "byteOffset": 3840,
      "componentType": 5126,
      "count": 71,
      "type": "VEC2"
    },
    {
      "bufferView": 0,
      "byteOffset": 9324,
      "componentType": 5125,
      "count": 102,
      "type": "SCALAR"
    },
    {
      "bufferView": 1,
      "byteOffset": 6612,
      "componentType": 5126,
      "count": 1545,
      "type": "VEC3",
      "min": [
        -7.56543,
        -0.01953,
        -1.74609
      ],
      "max": [
        7.30273,
        2.01172,
        4.49902
      ]
    },
    {
      "bufferView": 2,
      "byteOffset": 6612,
      "componentType": 5126,
      "count": 1545,
      "type": "VEC3"
    },
    {
      "bufferView": 3,
      "byteOffset": 4408,
      "componentType": 5126,
      "count": 1545,
      "type": "VEC2"
    },
    {
      "bufferView": 0,
      "byteOffset": 9732,
      "componentType": 5125,
      "count": 6738,
      "type": "SCALAR"
    },
    {
      "bufferView": 1,
      "byteOffset": 25152,
      "componentType": 5126,
      "count": 30,
      "type": "VEC3",
      "min": [
        -0.37988,
        0.34375,
        -1.58984
      ],
      "max": [
        0.23242,
        0.68262,
        -0.88477
      ]
    },
    {
      "bufferView": 2,
      "byteOffset": 25152,
      "componentType": 5126,
      "count": 30,
      "type": "VEC3"
    },
    {
      "bufferView": 3,
      "byteOffset": 16768,
      "componentType": 5126,
      "count": 30,
      "type": "VEC2"
    },
    {
      "bufferView": 0,
      "byteOffset": 36684,
      "componentType": 5125,
      "count": 96,
      "type": "SCALAR"
    },
    {
      "bufferView": 1,
      "byteOffset": 25512,
      "componentType": 5126,
      "count": 407,
      "type": "VEC3",
      "min": [
        -0.34766,
        0.24512,
        -1.3457
      ],
      "max": [
        0.16602,
        0.75293,
        -0.30566
      ]
    },
    {
      "bufferView": 2,
      "byteOffset": 25512,
      "componentType": 5126,
      "count": 407,
      "type": "VEC3"
    },
    {
      "bufferView": 3,
      "byteOffset": 17008,
      "componentType": 5126,
      "count": 407,
      "type": "VEC2"
    },
    {
      "bufferView": 0,
      "byteOffset": 37068,
      "componentType": 5125,
      "count": 1926,
      "type": "SCALAR"
    },
    {
      "bufferView": 1,
      "byteOffset": 30396,
      "componentType": 5126,
      "count": 518,
      "type": "VEC3",
      "min": [
        -0.09766,
        -0.03418,
        -0.40625
      ],
      "max": [
        0.06543,
        0.25586,
        4.04688
      ]
    },
    {
      "bufferView": 2,
      "byteOffset": 30396,
      "componentType": 5126,
      "count": 518,
      "type": "VEC3"
    },
    {
      "bufferView": 3,
      "byteOffset": 20264,
      "componentType": 5126,
      "count": 518,
      "type": "VEC2"
    },
    {
      "bufferView": 0,
      "byteOffset": 44772,
      "componentType": 5125,
      "count": 1680,
      "type": "SCALAR"
    },
    {
      "bufferView": 1,
      "byteOffset": 36612,
      "componentType": 5126,
      "count": 5428,
      "type": "VEC3",
      "min": [
        -0.37988,
        0.03516,
        -2.31836
      ],
      "max": [
        0.23633,
        1.2959,
        4.59277
      ]
    },
    {
      "bufferView": 2,
      "byteOffset": 36612,
      "componentType": 5126,
      "count": 5428,
      "type": "VEC3"
    },
    {
      "bufferView": 3,
      "byteOffset": 24408,
      "componentType": 5126,
      "count": 5428,
      "type": "VEC2"
    },
    {
      "bufferView": 0,
      "byteOffset": 51492,
      "componentType": 5125,
      "count": 23226,
      "type": "SCALAR"
    },
    {
      "bufferView": 1,
      "byteOffset": 101748,
      "componentType": 5126,
      "count": 185,
      "type": "VEC3",
      "min": [
        -7.5293,
        0.02539,
        -2.30762
      ],
      "max": [
        7.26465,
        1.98047,
        4.59277
      ]
    },
    {
      "bufferView": 2,
      "byteOffset": 101748,
      "componentType": 5126,
      "count": 185,
      "type": "VEC3"
    },
    {
      "bufferView": 3,
      "byteOffset": 67832,
      "componentType": 5126,
      "count": 185,
      "type": "VEC2"
    },
    {
      "bufferView": 0,
      "byteOffset": 144396,
      "componentType": 5125,
      "count": 438,
      "type": "SCALAR"
    },
    {
      "bufferView": 1,
      "byteOffset": 103968,
      "componentType": 5126,
      "count": 52,
      "type": "VEC3",
      "min": [
        -0.10459,
        0.16015,
        3.98924
      ],
      "max": [
        0.04009,
        0.21931,
        4.24312
      ]
    },
    {
      "bufferView": 2,
      "byteOffset": 103968,
      "componentType": 5126,
      "count": 52,
      "type": "VEC3"
    },
    {
      "bufferView": 3,
      "byteOffset": 69312,
      "componentType": 5126,
      "count": 52,
      "type": "VEC2"
    },
    {
      "bufferView": 0,
      "byteOffset": 146148,
      "componentType": 5125,
      "count": 132,
      "type": "SCALAR"
    },
    {
      "bufferView": 1,
      "byteOffset": 104592,
      "componentType": 5126,
      "count": 248,
      "type": "VEC3",
      "min": [
        -0.37109,
        0.70703,
        -0.83496
      ],
      "max": [
        -0.30957,
        0.82129,
        -0.50684
      ]
    },
    {
      "bufferView": 2,
      "byteOffset": 104592,
      "componentType": 5126,
      "count": 248,
      "type": "VEC3"
    },
    {
      "bufferView": 3,
      "byteOffset": 69728,
      "componentType": 5126,
      "count": 248,
      "type": "VEC2"
    },
    {
      "bufferView": 0,
      "byteOffset": 146676,
      "componentType": 5125,
      "count": 1314,
      "type": "SCALAR"
    },
    {
      "bufferView": 1,
      "byteOffset": 107568,
      "componentType": 5126,
      "count": 119,
      "type": "VEC3",
      "min": [
        -0.37793,
        0.63672,
        -1.7793
      ],
      "max": [
        0.19727,
        1.01074,
        -0.23926
      ]
    },
    {
      "bufferView": 2,
      "byteOffset": 107568,
      "componentType": 5126,
      "count": 119,
      "type": "VEC3"
    },
    {
      "bufferView": 3,
      "byteOffset": 71712,
      "componentType": 5126,
      "count": 119,
      "type": "VEC2"
    },
    {
      "bufferView": 0,
      "byteOffset": 151932,
      "componentType": 5125,
      "count": 582,
      "type": "SCALAR"
    },
    {
      "bufferView": 1,
      "byteOffset": 108996,
      "componentType": 5126,
      "count": 119,
      "type": "VEC3",
      "min": [
        -0.37793,
        0.63672,
        -1.7793
      ],
      "max": [
        0.19727,
        1.01074,
        -0.23828
      ]
    },
    {
      "bufferView": 2,
      "byteOffset": 108996,
      "componentType": 5126,
      "count": 119,
      "type": "VEC3"
    },
    {
      "bufferView": 3,
      "byteOffset": 72664,
      "componentType": 5126,
      "count": 119,
      "type": "VEC2"
    },
    {
      "bufferView": 0,
      "byteOffset": 154260,
      "componentType": 5125,
      "count": 582,
      "type": "SCALAR"
    }
  ],
  "materials": [
    {
      "pbrMetallicRoughness": {
        "baseColorFactor": [
          0.0,
          0.40000000596046448,
          0.699999988079071,
          1.0
        ],
        "roughnessFactor": 1.0,
        "metallicFactor": 0.0,
        "baseColorTexture": {
          "index": 0
        }
      },
      "emissiveFactor": [
        0.0,
        0.0,
        0.0
      ]
    },
    {
      "pbrMetallicRoughness": {
        "baseColorFactor": [
          0.20000000298023224,
          0.20000000298023224,
          0.20000000298023224,
          1.0
        ],
        "roughnessFactor": 1.0,
        "metallicFactor": 0.0,
        "baseColorTexture": {
          "index": 0
        }
      },
      "emissiveFactor": [
        0.0,
        0.0,
        0.0
      ]
    },
    {
      "pbrMetallicRoughness": {
        "baseColorFactor": [
          0.800000011920929,
          0.800000011920929,
          0.800000011920929,
          1.0
        ],
        "roughnessFactor": 1.0,
        "metallicFactor": 0.0,
        "baseColorTexture": {
          "index": 0
        }
      },
      "emissiveFactor": [
        0.0,
        0.0,
        0.0
      ]
    },
    {
      "pbrMetallicRoughness": {
        "baseColorFactor": [
          1.0,
          1.0,
          1.0,
          1.0
        ],
        "roughnessFactor": 1.0,
        "metallicFactor": 0.0,
        "baseColorTexture": {
          "index": 0
        }
      },
      "emissiveFactor": [
        0.0,
        0.0,
        0.0
      ]
    },
    {
      "pbrMetallicRoughness": {
        "baseColorFactor": [
          0.800000011920929,
          0.800000011920929,
          0.800000011920929,
          1.0
        ],
        "roughnessFactor": 1.0,
        "metallicFactor": 0.0,
        "baseColorTexture": {
          "index": 1
        }
      },
      "emissiveFactor": [
        0.0,
        0.0,
        0.0
      ]
    },
    {
      "pbrMetallicRoughness": {
        "baseColorFactor": [
          0.800000011920929,
          0.800000011920929,
          0.800000011920929,
          1.0
        ],
        "roughnessFactor": 1.0,
        "metallicFactor": 0.0,
        "baseColorTexture": {
          "index": 2
        }
      },
      "emissiveFactor": [
        0.0,
        0.0,
        0.0
      ]
    },
    {
      "pbrMetallicRoughness": {
        "baseColorFactor": [
          0.800000011920929,
          0.800000011920929,
          0.800000011920929,
          1.0
        ],
        "roughnessFactor": 1.0,
        "metallicFactor": 0.0,
        "baseColorTexture": {
          "index": 3
        }
      },
      "emissiveFactor": [
        0.0,
        0.0,
        0.0
      ]
    },
    {
      "pbrMetallicRoughness": {
        "baseColorFactor": [
          0.800000011920929,
          0.800000011920929,
          0.800000011920929,
          1.0
        ],
        "roughnessFactor": 1.0,
        "metallicFactor": 0.0,
        "baseColorTexture": {
          "index": 4
        }
      },
      "emissiveFactor": [
        0.0,
        0.0,
        0.0
      ]
    },
    {
      "pbrMetallicRoughness": {
        "baseColorFactor": [
          0.0,
          0.5,
          0.5,
          0.20000000298023224
        ],
        "roughnessFactor": 1.0,
        "metallicFactor": 0.0,
        "baseColorTexture": {
          "index": 5
        }
      },
      "emissiveFactor": [
        0.0,
        0.0,
        0.0
      ]
    },
    {
      "pbrMetallicRoughness": {
        "baseColorFactor": [
          0.5,
          0.699999988079071,
          0.699999988079071,
          0.10000000149011612
        ],
        "roughnessFactor": 1.0,
        "metallicFactor": 0.0,
        "baseColorTexture": {
          "index": 5
        }
      },
      "emissiveFactor": [
        0.0,
        0.0,
        0.0
      ]
    },
    {
      "pbrMetallicRoughness": {
        "baseColorFactor": [
          0.0,
          0.5,
          0.5,
          0.20000000298023224
        ],
        "roughnessFactor": 1.0,
        "metallicFactor": 0.0
      },
      "emissiveFactor": [
        0.0,
        0.0,
        0.0
      ]
    },
    {
      "pbrMetallicRoughness": {
        "baseColorFactor": [
          0.800000011920929,
          0.800000011920929,
          0.800000011920929,
          1.0
        ],
        "roughnessFactor": 1.0,
        "metallicFactor": 0.0
      },
      "emissiveFactor": [
        0.0,
        0.0,
        0.0
      ]
    }
  ],
  "textures": [
    {
      "source": 0,
      "name": "asw19_01"
    },
    {
      "source": 1,
      "name": "asw19_02"
    },
    {
      "source": 2,
      "name": "asw19_03"
    },
    {
      "source": 3,
      "name": "asw19_04"
    },
    {
      "source": 4,
      "name": "asw19_05b"
    },
    {
      "source": 5,
      "name": "asw19_06"
    }
  ],
  "images": [
    {
      "uri": "asw19_01.png"
    },
    {
      "uri": "asw19_02.png"
    },
    {
      "uri": "asw19_03.png"
    },
    {
      "uri": "asw19_04.png"
    },
    {
      "uri": "asw19_05b.png"
    },
    {
      "uri": "asw19_06.png"
    }
  ],
  "bufferViews": [
    {
      "buffer": 0,
      "byteOffset": 0,
      "byteLength": 156588
    },
    {
      "buffer": 0,
      "byteOffset": 156588,
      "byteLength": 110424
    },
    {
      "buffer": 0,
      "byteOffset": 267012,
      "byteLength": 110424
    },
    {
      "buffer": 0,
      "byteOffset": 377436,
      "byteLength": 73616
    }
  ],
  "buffers": [
    {
      "byteLength": 451052,
      "uri": "FSDS_object.bin"
    }
  ]
}