{
  "asset": {
    "version": "2.0",
    "generator": "ModelConverterX"
  },
  "extensionsUsed": [
    "ASOBO_material_day_night_switch"
  ],
  "scene": 0,
  "scenes": [
    {
      "nodes": [
        0
      ]
    }
  ],
  "nodes": [
    {
      "name": "node0",
      "children": [
        1,
        2
      ]
    },
    {
      "name": "node5",
      "mesh": 0
    },
    {
      "name": "node6",
      "mesh": 1
    }
  ],
  "meshes": [
    {
      "primitives": [
        {
          "attributes": {
            "POSITION": 0,
            "NORMAL": 1,
            "TEXCOORD_0": 2
          },
          "indices": 3,
          "mode": 4,
          "material": 1
        }
      ],
      "name": "part000"
    },
    {
      "primitives": [
        {
          "attributes": {
            "POSITION": 4,
            "NORMAL": 5,
            "TEXCOORD_0": 6
          },
          "indices": 7,
          "mode": 4,
          "material": 0
        }
      ],
      "name": "part001"
    }
  ],
  "accessors": [
    {
      "bufferView": 1,
      "byteOffset": 0,
      "componentType": 5126,
      "count": 720,
      "type": "VEC3",
      "min": [
        -0.05000000074505806,
        0.0,
        -3.5499999523162842
      ],
      "max": [
        5.0500001907348633,
        2.5,
        0.05000000074505806
      ]
    },
    {
      "bufferView": 2,
      "byteOffset": 0,
      "componentType": 5126,
      "count": 720,
      "type": "VEC3"
    },
    {
      "bufferView": 3,
      "byteOffset": 0,
      "componentType": 5126,
      "count": 720,
      "type": "VEC2"
    },
    {
      "bufferView": 0,
      "byteOffset": 0,
      "componentType": 5125,
      "count": 852,
      "type": "SCALAR"
    },
    {
      "bufferView": 1,
      "byteOffset": 8640,
      "componentType": 5126,
      "count": 1158,
      "type": "VEC3",
      "min": [
        0.0,
        2.1532299518585205,
        -3.5
      ],
      "max": [
        5.0,
        2.5,
        5.7403422835423934E-16
      ]
    },
    {
      "bufferView": 2,
      "byteOffset": 8640,
      "componentType": 5126,
      "count": 1158,
      "type": "VEC3"
    },
    {
      "bufferView": 3,
      "byteOffset": 5760,
      "componentType": 5126,
      "count": 1158,
      "type": "VEC2"
    },
    {
      "bufferView": 0,
      "byteOffset": 3408,
      "componentType": 5125,
      "count": 1158,
      "type": "SCALAR"
    }
  ],
  "materials": [
    {
      "name": "material00",
      "pbrMetallicRoughness": {
        "baseColorFactor": [
          1.0,
          1.0,
          1.0,
          1.0
        ],
        "roughnessFactor": 1.0,
        "metallicFactor": 0.0,
        "baseColorTexture": {
          "index": 0
        }
      },
      "emissiveFactor": [
        0.0,
        0.0,
        0.0
      ],
      "alphaMode": "BLEND",
      "extensions": {
        "ASOBO_material_day_night_switch": {
          "enabled": true
        }
      }
    },
    {
      "name": "material01",
      "pbrMetallicRoughness": {
        "baseColorFactor": [
          1.0,
          1.0,
          1.0,
          1.0
        ],
        "roughnessFactor": 1.0,
        "metallicFactor": 0.0,
        "baseColorTexture": {
          "index": 1
        }
      },
      "emissiveFactor": [
        0.0,
        0.0,
        0.0
      ],
      "extensions": {
        "ASOBO_material_day_night_switch": {
          "enabled": true
        }
      }
    }
  ],
  "textures": [
    {
      "source": 0,
      "name": "blackreshettzel"
    },
    {
      "source": 1,
      "name": "chimnirlargehangar_felix_metal"
    }
  ],
  "images": [
    {
      "uri": "blackreshettzel.png"
    },
    {
      "uri": "chimnirlargehangar_felix_metal.png"
    }
  ],
  "bufferViews": [
    {
      "buffer": 0,
      "byteOffset": 0,
      "byteLength": 8040
    },
    {
      "buffer": 0,
      "byteOffset": 8040,
      "byteLength": 22536,
      "byteStride": 12
    },
    {
      "buffer": 0,
      "byteOffset": 30576,
      "byteLength": 22536,
      "byteStride": 12
    },
    {
      "buffer": 0,
      "byteOffset": 53112,
      "byteLength": 15024,
      "byteStride": 8
    }
  ],
  "buffers": [
    {
      "byteLength": 68136,
      "uri": "TelemSmallReshetTzel_LOD2.bin"
    }
  ]
}