{
  "asset": {
    "version": "2.0",
    "generator": "ModelConverterX"
  },
  "extensionsUsed": [
    "ASOBO_material_day_night_switch"
  ],
  "scene": 0,
  "scenes": [
    {
      "nodes": [
        0
      ]
    }
  ],
  "nodes": [
    {
      "name": "node0",
      "children": [
        1,
        2
      ]
    },
    {
      "name": "node3",
      "mesh": 0
    },
    {
      "name": "node4",
      "mesh": 1
    }
  ],
  "meshes": [
    {
      "primitives": [
        {
          "attributes": {
            "POSITION": 0,
            "NORMAL": 1,
            "TEXCOORD_0": 2
          },
          "indices": 3,
          "mode": 4,
          "material": 1
        }
      ],
      "name": "part000"
    },
    {
      "primitives": [
        {
          "attributes": {
            "POSITION": 4,
            "NORMAL": 5,
            "TEXCOORD_0": 6
          },
          "indices": 7,
          "mode": 4,
          "material": 0
        }
      ],
      "name": "part001"
    }
  ],
  "accessors": [
    {
      "bufferView": 1,
      "byteOffset": 0,
      "componentType": 5126,
      "count": 838,
      "type": "VEC3",
      "min": [
        -0.05000000074505806,
        0.0,
        -3.5499999523162842
      ],
      "max": [
        5.0500001907348633,
        2.5,
        0.05000000074505806
      ]
    },
    {
      "bufferView": 2,
      "byteOffset": 0,
      "componentType": 5126,
      "count": 838,
      "type": "VEC3"
    },
    {
      "bufferView": 3,
      "byteOffset": 0,
      "componentType": 5126,
      "count": 838,
      "type": "VEC2"
    },
    {
      "bufferView": 0,
      "byteOffset": 0,
      "componentType": 5125,
      "count": 1200,
      "type": "SCALAR"
    },
    {
      "bufferView": 1,
      "byteOffset": 10056,
      "componentType": 5126,
      "count": 2832,
      "type": "VEC3",
      "min": [
        0.0,
        2.1475000381469727,
        -3.5
      ],
      "max": [
        5.0,
        2.5,
        6.1230317691118863E-16
      ]
    },
    {
      "bufferView": 2,
      "byteOffset": 10056,
      "componentType": 5126,
      "count": 2832,
      "type": "VEC3"
    },
    {
      "bufferView": 3,
      "byteOffset": 6704,
      "componentType": 5126,
      "count": 2832,
      "type": "VEC2"
    },
    {
      "bufferView": 0,
      "byteOffset": 4800,
      "componentType": 5125,
      "count": 2832,
      "type": "SCALAR"
    }
  ],
  "materials": [
    {
      "name": "material00",
      "pbrMetallicRoughness": {
        "baseColorFactor": [
          1.0,
          1.0,
          1.0,
          1.0
        ],
        "roughnessFactor": 1.0,
        "metallicFactor": 0.0,
        "baseColorTexture": {
          "index": 0
        }
      },
      "emissiveFactor": [
        0.0,
        0.0,
        0.0
      ],
      "alphaMode": "BLEND",
      "extensions": {
        "ASOBO_material_day_night_switch": {
          "enabled": true
        }
      }
    },
    {
      "name": "material01",
      "pbrMetallicRoughness": {
        "baseColorFactor": [
          1.0,
          1.0,
          1.0,
          1.0
        ],
        "roughnessFactor": 1.0,
        "metallicFactor": 0.0,
        "baseColorTexture": {
          "index": 1
        }
      },
      "emissiveFactor": [
        0.0,
        0.0,
        0.0
      ],
      "extensions": {
        "ASOBO_material_day_night_switch": {
          "enabled": true
        }
      }
    }
  ],
  "textures": [
    {
      "source": 0,
      "name": "blackreshettzel"
    },
    {
      "source": 1,
      "name": "chimnirlargehangar_felix_metal"
    }
  ],
  "images": [
    {
      "uri": "blackreshettzel.png"
    },
    {
      "uri": "chimnirlargehangar_felix_metal.png"
    }
  ],
  "bufferViews": [
    {
      "buffer": 0,
      "byteOffset": 0,
      "byteLength": 16128
    },
    {
      "buffer": 0,
      "byteOffset": 16128,
      "byteLength": 44040,
      "byteStride": 12
    },
    {
      "buffer": 0,
      "byteOffset": 60168,
      "byteLength": 44040,
      "byteStride": 12
    },
    {
      "buffer": 0,
      "byteOffset": 104208,
      "byteLength": 29360,
      "byteStride": 8
    }
  ],
  "buffers": [
    {
      "byteLength": 133568,
      "uri": "TelemSmallReshetTzel_LOD1.bin"
    }
  ]
}