{
  "asset": {
    "version": "2.0",
    "generator": "ModelConverterX"
  },
  "extensionsUsed": [
    "ASOBO_material_day_night_switch"
  ],
  "scene": 0,
  "scenes": [
    {
      "nodes": [
        0
      ]
    }
  ],
  "nodes": [
    {
      "name": "node0",
      "children": [
        1,
        2
      ]
    },
    {
      "name": "node1",
      "mesh": 0
    },
    {
      "name": "node2",
      "mesh": 1
    }
  ],
  "meshes": [
    {
      "primitives": [
        {
          "attributes": {
            "POSITION": 0,
            "NORMAL": 1,
            "TEXCOORD_0": 2
          },
          "indices": 3,
          "mode": 4,
          "material": 1
        }
      ],
      "name": "part000"
    },
    {
      "primitives": [
        {
          "attributes": {
            "POSITION": 4,
            "NORMAL": 5,
            "TEXCOORD_0": 6
          },
          "indices": 7,
          "mode": 4,
          "material": 0
        }
      ],
      "name": "part001"
    }
  ],
  "accessors": [
    {
      "bufferView": 1,
      "byteOffset": 0,
      "componentType": 5126,
      "count": 24,
      "type": "VEC3",
      "min": [
        0.0,
        7.0,
        -25.0
      ],
      "max": [
        22.0,
        8.0,
        2.69413397840923E-15
      ]
    },
    {
      "bufferView": 2,
      "byteOffset": 0,
      "componentType": 5126,
      "count": 24,
      "type": "VEC3"
    },
    {
      "bufferView": 3,
      "byteOffset": 0,
      "componentType": 5126,
      "count": 24,
      "type": "VEC2"
    },
    {
      "bufferView": 0,
      "byteOffset": 0,
      "componentType": 5125,
      "count": 48,
      "type": "SCALAR"
    },
    {
      "bufferView": 1,
      "byteOffset": 288,
      "componentType": 5126,
      "count": 294,
      "type": "VEC3",
      "min": [
        -0.020710000768303871,
        0.0,
        -25.020709991455078
      ],
      "max": [
        22.020709991455078,
        7.0,
        0.020710000768303871
      ]
    },
    {
      "bufferView": 2,
      "byteOffset": 288,
      "componentType": 5126,
      "count": 294,
      "type": "VEC3"
    },
    {
      "bufferView": 3,
      "byteOffset": 192,
      "componentType": 5126,
      "count": 294,
      "type": "VEC2"
    },
    {
      "bufferView": 0,
      "byteOffset": 192,
      "componentType": 5125,
      "count": 576,
      "type": "SCALAR"
    }
  ],
  "materials": [
    {
      "name": "material00",
      "pbrMetallicRoughness": {
        "baseColorFactor": [
          1.0,
          1.0,
          1.0,
          1.0
        ],
        "roughnessFactor": 1.0,
        "metallicFactor": 0.0,
        "baseColorTexture": {
          "index": 0
        },
        "metallicRoughnessTexture": {
          "index": 1
        }
      },
      "emissiveFactor": [
        0.0,
        0.0,
        0.0
      ],
      "occlusionTexture": {
        "index": 1
      },
      "extensions": {
        "ASOBO_material_day_night_switch": {
          "enabled": true
        }
      }
    },
    {
      "name": "material01",
      "pbrMetallicRoughness": {
        "baseColorFactor": [
          1.0,
          1.0,
          1.0,
          1.0
        ],
        "roughnessFactor": 1.0,
        "metallicFactor": 0.0,
        "baseColorTexture": {
          "index": 2
        },
        "metallicRoughnessTexture": {
          "index": 3
        }
      },
      "emissiveFactor": [
        0.0,
        0.0,
        0.0
      ],
      "normalTexture": {
        "index": 4
      },
      "occlusionTexture": {
        "index": 3
      },
      "extensions": {
        "ASOBO_material_day_night_switch": {
          "enabled": true
        }
      }
    }
  ],
  "textures": [
    {
      "source": 0,
      "name": "chimnirlargehangar_felix_metal"
    },
    {
      "source": 1,
      "name": "chimnirlargehangar_felix_metal_comp"
    },
    {
      "source": 2,
      "name": "kibuishedroof"
    },
    {
      "source": 3,
      "name": "kibuishedroof_comp"
    },
    {
      "source": 4,
      "name": "kibuishedroof_norm"
    }
  ],
  "images": [
    {
      "uri": "chimnirlargehangar_felix_metal.png"
    },
    {
      "uri": "chimnirlargehangar_felix_metal_comp.png"
    },
    {
      "uri": "kibuishedroof.png"
    },
    {
      "uri": "kibuishedroof_comp.png"
    },
    {
      "uri": "kibuishedroof_norm.png"
    }
  ],
  "bufferViews": [
    {
      "buffer": 0,
      "byteOffset": 0,
      "byteLength": 2496
    },
    {
      "buffer": 0,
      "byteOffset": 2496,
      "byteLength": 3816,
      "byteStride": 12
    },
    {
      "buffer": 0,
      "byteOffset": 6312,
      "byteLength": 3816,
      "byteStride": 12
    },
    {
      "buffer": 0,
      "byteOffset": 10128,
      "byteLength": 2544,
      "byteStride": 8
    }
  ],
  "buffers": [
    {
      "byteLength": 12672,
      "uri": "KibuiShed_LOD0.bin"
    }
  ]
}