{
  "asset": {
    "version": "2.0",
    "generator": "ModelConverterX"
  },
  "extensionsUsed": [],
  "scene": 0,
  "scenes": [
    {
      "nodes": [
        0
      ]
    }
  ],
  "nodes": [
    {
      "name": "node0",
      "children": [
        1,
        2,
        3,
        4,
        5,
        6,
        7,
        8,
        9,
        10,
        11,
        12,
        13,
        14,
        15,
        16
      ]
    },
    {
      "name": "node1",
      "mesh": 0
    },
    {
      "name": "node2",
      "mesh": 1
    },
    {
      "name": "node3",
      "mesh": 2
    },
    {
      "name": "node4",
      "mesh": 3
    },
    {
      "name": "node5",
      "mesh": 4
    },
    {
      "name": "node6",
      "mesh": 5
    },
    {
      "name": "node7",
      "mesh": 6
    },
    {
      "name": "node8",
      "mesh": 7
    },
    {
      "name": "node9",
      "mesh": 8
    },
    {
      "name": "node10",
      "mesh": 9
    },
    {
      "name": "node11",
      "mesh": 10
    },
    {
      "name": "node12",
      "mesh": 11
    },
    {
      "name": "node13",
      "mesh": 12
    },
    {
      "name": "node14",
      "mesh": 13
    },
    {
      "name": "node15",
      "mesh": 14
    },
    {
      "name": "node16",
      "mesh": 15
    }
  ],
  "meshes": [
    {
      "primitives": [
        {
          "attributes": {
            "POSITION": 0,
            "NORMAL": 1,
            "TEXCOORD_0": 2
          },
          "indices": 3,
          "mode": 4,
          "material": 12
        }
      ],
      "name": "part000"
    },
    {
      "primitives": [
        {
          "attributes": {
            "POSITION": 4,
            "NORMAL": 5,
            "TEXCOORD_0": 6
          },
          "indices": 7,
          "mode": 4,
          "material": 14
        }
      ],
      "name": "part001"
    },
    {
      "primitives": [
        {
          "attributes": {
            "POSITION": 8,
            "NORMAL": 9,
            "TEXCOORD_0": 10
          },
          "indices": 11,
          "mode": 4,
          "material": 11
        }
      ],
      "name": "part002"
    },
    {
      "primitives": [
        {
          "attributes": {
            "POSITION": 12,
            "NORMAL": 13,
            "TEXCOORD_0": 14
          },
          "indices": 15,
          "mode": 4,
          "material": 13
        }
      ],
      "name": "part003"
    },
    {
      "primitives": [
        {
          "attributes": {
            "POSITION": 16,
            "NORMAL": 17,
            "TEXCOORD_0": 18
          },
          "indices": 19,
          "mode": 4,
          "material": 6
        }
      ],
      "name": "part004"
    },
    {
      "primitives": [
        {
          "attributes": {
            "POSITION": 20,
            "NORMAL": 21,
            "TEXCOORD_0": 22
          },
          "indices": 23,
          "mode": 4,
          "material": 4
        }
      ],
      "name": "part005"
    },
    {
      "primitives": [
        {
          "attributes": {
            "POSITION": 24,
            "NORMAL": 25,
            "TEXCOORD_0": 26
          },
          "indices": 27,
          "mode": 4,
          "material": 2
        }
      ],
      "name": "part006"
    },
    {
      "primitives": [
        {
          "attributes": {
            "POSITION": 28,
            "NORMAL": 29,
            "TEXCOORD_0": 30
          },
          "indices": 31,
          "mode": 4,
          "material": 3
        }
      ],
      "name": "part007"
    },
    {
      "primitives": [
        {
          "attributes": {
            "POSITION": 32,
            "NORMAL": 33,
            "TEXCOORD_0": 34
          },
          "indices": 35,
          "mode": 4,
          "material": 7
        }
      ],
      "name": "part008"
    },
    {
      "primitives": [
        {
          "attributes": {
            "POSITION": 36,
            "NORMAL": 37,
            "TEXCOORD_0": 38
          },
          "indices": 39,
          "mode": 4,
          "material": 8
        }
      ],
      "name": "part009"
    },
    {
      "primitives": [
        {
          "attributes": {
            "POSITION": 40,
            "NORMAL": 41,
            "TEXCOORD_0": 42
          },
          "indices": 43,
          "mode": 4,
          "material": 9
        }
      ],
      "name": "part010"
    },
    {
      "primitives": [
        {
          "attributes": {
            "POSITION": 44,
            "NORMAL": 45,
            "TEXCOORD_0": 46
          },
          "indices": 47,
          "mode": 4,
          "material": 10
        }
      ],
      "name": "part011"
    },
    {
      "primitives": [
        {
          "attributes": {
            "POSITION": 48,
            "NORMAL": 49,
            "TEXCOORD_0": 50
          },
          "indices": 51,
          "mode": 4,
          "material": 15
        }
      ],
      "name": "part012"
    },
    {
      "primitives": [
        {
          "attributes": {
            "POSITION": 52,
            "NORMAL": 53,
            "TEXCOORD_0": 54
          },
          "indices": 55,
          "mode": 4,
          "material": 5
        }
      ],
      "name": "part013"
    },
    {
      "primitives": [
        {
          "attributes": {
            "POSITION": 56,
            "NORMAL": 57,
            "TEXCOORD_0": 58
          },
          "indices": 59,
          "mode": 4,
          "material": 0
        }
      ],
      "name": "part014"
    },
    {
      "primitives": [
        {
          "attributes": {
            "POSITION": 60,
            "NORMAL": 61,
            "TEXCOORD_0": 62
          },
          "indices": 63,
          "mode": 4,
          "material": 1
        }
      ],
      "name": "part015"
    }
  ],
  "accessors": [
    {
      "bufferView": 1,
      "byteOffset": 0,
      "componentType": 5126,
      "count": 738,
      "type": "VEC3",
      "min": [
        -7.08301,
        0.00195,
        -0.29883
      ],
      "max": [
        7.66016,
        2.95215,
        0.73242
      ]
    },
    {
      "bufferView": 2,
      "byteOffset": 0,
      "componentType": 5126,
      "count": 738,
      "type": "VEC3"
    },
    {
      "bufferView": 3,
      "byteOffset": 0,
      "componentType": 5126,
      "count": 738,
      "type": "VEC2"
    },
    {
      "bufferView": 0,
      "byteOffset": 0,
      "componentType": 5125,
      "count": 3210,
      "type": "SCALAR"
    },
    {
      "bufferView": 1,
      "byteOffset": 8856,
      "componentType": 5126,
      "count": 543,
      "type": "VEC3",
      "min": [
        -0.19629,
        0.34375,
        -2.31543
      ],
      "max": [
        0.46484,
        1.12598,
        0.09473
      ]
    },
    {
      "bufferView": 2,
      "byteOffset": 8856,
      "componentType": 5126,
      "count": 543,
      "type": "VEC3"
    },
    {
      "bufferView": 3,
      "byteOffset": 5904,
      "componentType": 5126,
      "count": 543,
      "type": "VEC2"
    },
    {
      "bufferView": 0,
      "byteOffset": 12840,
      "componentType": 5125,
      "count": 2085,
      "type": "SCALAR"
    },
    {
      "bufferView": 1,
      "byteOffset": 15372,
      "componentType": 5126,
      "count": 602,
      "type": "VEC3",
      "min": [
        -0.19043,
        0.34766,
        -2.31543
      ],
      "max": [
        0.46094,
        1.10254,
        -0.1123
      ]
    },
    {
      "bufferView": 2,
      "byteOffset": 15372,
      "componentType": 5126,
      "count": 602,
      "type": "VEC3"
    },
    {
      "bufferView": 3,
      "byteOffset": 10248,
      "componentType": 5126,
      "count": 602,
      "type": "VEC2"
    },
    {
      "bufferView": 0,
      "byteOffset": 21180,
      "componentType": 5125,
      "count": 2685,
      "type": "SCALAR"
    },
    {
      "bufferView": 1,
      "byteOffset": 22596,
      "componentType": 5126,
      "count": 605,
      "type": "VEC3",
      "min": [
        -0.19531,
        0.37695,
        -1.32617
      ],
      "max": [
        0.43555,
        0.83496,
        -0.33203
      ]
    },
    {
      "bufferView": 2,
      "byteOffset": 22596,
      "componentType": 5126,
      "count": 605,
      "type": "VEC3"
    },
    {
      "bufferView": 3,
      "byteOffset": 15064,
      "componentType": 5126,
      "count": 605,
      "type": "VEC2"
    },
    {
      "bufferView": 0,
      "byteOffset": 31920,
      "componentType": 5125,
      "count": 3216,
      "type": "SCALAR"
    },
    {
      "bufferView": 1,
      "byteOffset": 29856,
      "componentType": 5126,
      "count": 137,
      "type": "VEC3",
      "min": [
        -0.03223,
        0.03711,
        4.03027
      ],
      "max": [
        0.06641,
        0.11523,
        4.30762
      ]
    },
    {
      "bufferView": 2,
      "byteOffset": 29856,
      "componentType": 5126,
      "count": 137,
      "type": "VEC3"
    },
    {
      "bufferView": 3,
      "byteOffset": 19904,
      "componentType": 5126,
      "count": 137,
      "type": "VEC2"
    },
    {
      "bufferView": 0,
      "byteOffset": 44784,
      "componentType": 5125,
      "count": 576,
      "type": "SCALAR"
    },
    {
      "bufferView": 1,
      "byteOffset": 31500,
      "componentType": 5126,
      "count": 534,
      "type": "VEC3",
      "min": [
        -6.75098,
        0.02637,
        -2.31738
      ],
      "max": [
        7.19531,
        2.49023,
        4.61878
      ]
    },
    {
      "bufferView": 2,
      "byteOffset": 31500,
      "componentType": 5126,
      "count": 534,
      "type": "VEC3"
    },
    {
      "bufferView": 3,
      "byteOffset": 21000,
      "componentType": 5126,
      "count": 534,
      "type": "VEC2"
    },
    {
      "bufferView": 0,
      "byteOffset": 47088,
      "componentType": 5125,
      "count": 1473,
      "type": "SCALAR"
    },
    {
      "bufferView": 1,
      "byteOffset": 37908,
      "componentType": 5126,
      "count": 17,
      "type": "VEC3",
      "min": [
        -0.06348,
        0.31738,
        -0.42188
      ],
      "max": [
        0.18848,
        0.56152,
        0.25879
      ]
    },
    {
      "bufferView": 2,
      "byteOffset": 37908,
      "componentType": 5126,
      "count": 17,
      "type": "VEC3"
    },
    {
      "bufferView": 3,
      "byteOffset": 25272,
      "componentType": 5126,
      "count": 17,
      "type": "VEC2"
    },
    {
      "bufferView": 0,
      "byteOffset": 52980,
      "componentType": 5125,
      "count": 72,
      "type": "SCALAR"
    },
    {
      "bufferView": 1,
      "byteOffset": 38112,
      "componentType": 5126,
      "count": 40,
      "type": "VEC3",
      "min": [
        -0.04883,
        0.20215,
        -0.28418
      ],
      "max": [
        0.16309,
        0.44629,
        -0.03223
      ]
    },
    {
      "bufferView": 2,
      "byteOffset": 38112,
      "componentType": 5126,
      "count": 40,
      "type": "VEC3"
    },
    {
      "bufferView": 3,
      "byteOffset": 25408,
      "componentType": 5126,
      "count": 40,
      "type": "VEC2"
    },
    {
      "bufferView": 0,
      "byteOffset": 53268,
      "componentType": 5125,
      "count": 60,
      "type": "SCALAR"
    },
    {
      "bufferView": 1,
      "byteOffset": 38592,
      "componentType": 5126,
      "count": 684,
      "type": "VEC3",
      "min": [
        -0.05664,
        0.16309,
        -0.39649
      ],
      "max": [
        0.16309,
        0.46484,
        -0.03223
      ]
    },
    {
      "bufferView": 2,
      "byteOffset": 38592,
      "componentType": 5126,
      "count": 684,
      "type": "VEC3"
    },
    {
      "bufferView": 3,
      "byteOffset": 25728,
      "componentType": 5126,
      "count": 684,
      "type": "VEC2"
    },
    {
      "bufferView": 0,
      "byteOffset": 53508,
      "componentType": 5125,
      "count": 996,
      "type": "SCALAR"
    },
    {
      "bufferView": 1,
      "byteOffset": 46800,
      "componentType": 5126,
      "count": 4560,
      "type": "VEC3",
      "min": [
        -6.76074,
        0.00293,
        -2.31738
      ],
      "max": [
        7.2041,
        2.49121,
        4.83738
      ]
    },
    {
      "bufferView": 2,
      "byteOffset": 46800,
      "componentType": 5126,
      "count": 4560,
      "type": "VEC3"
    },
    {
      "bufferView": 3,
      "byteOffset": 31200,
      "componentType": 5126,
      "count": 4560,
      "type": "VEC2"
    },
    {
      "bufferView": 0,
      "byteOffset": 57492,
      "componentType": 5125,
      "count": 19368,
      "type": "SCALAR"
    },
    {
      "bufferView": 1,
      "byteOffset": 101520,
      "componentType": 5126,
      "count": 460,
      "type": "VEC3",
      "min": [
        -0.05957,
        0.00586,
        -0.39258
      ],
      "max": [
        0.13086,
        0.38281,
        4.25586
      ]
    },
    {
      "bufferView": 2,
      "byteOffset": 101520,
      "componentType": 5126,
      "count": 460,
      "type": "VEC3"
    },
    {
      "bufferView": 3,
      "byteOffset": 67680,
      "componentType": 5126,
      "count": 460,
      "type": "VEC2"
    },
    {
      "bufferView": 0,
      "byteOffset": 134964,
      "componentType": 5125,
      "count": 1800,
      "type": "SCALAR"
    },
    {
      "bufferView": 1,
      "byteOffset": 107040,
      "componentType": 5126,
      "count": 212,
      "type": "VEC3",
      "min": [
        -0.05859,
        0.04785,
        -0.29102
      ],
      "max": [
        0.13184,
        0.29199,
        4.20996
      ]
    },
    {
      "bufferView": 2,
      "byteOffset": 107040,
      "componentType": 5126,
      "count": 212,
      "type": "VEC3"
    },
    {
      "bufferView": 3,
      "byteOffset": 71360,
      "componentType": 5126,
      "count": 212,
      "type": "VEC2"
    },
    {
      "bufferView": 0,
      "byteOffset": 142164,
      "componentType": 5125,
      "count": 456,
      "type": "SCALAR"
    },
    {
      "bufferView": 1,
      "byteOffset": 109584,
      "componentType": 5126,
      "count": 292,
      "type": "VEC3",
      "min": [
        -0.18652,
        0.73633,
        -1.80762
      ],
      "max": [
        0.46875,
        1.19922,
        -0.15625
      ]
    },
    {
      "bufferView": 2,
      "byteOffset": 109584,
      "componentType": 5126,
      "count": 292,
      "type": "VEC3"
    },
    {
      "bufferView": 3,
      "byteOffset": 73056,
      "componentType": 5126,
      "count": 292,
      "type": "VEC2"
    },
    {
      "bufferView": 0,
      "byteOffset": 143988,
      "componentType": 5125,
      "count": 1452,
      "type": "SCALAR"
    },
    {
      "bufferView": 1,
      "byteOffset": 113088,
      "componentType": 5126,
      "count": 691,
      "type": "VEC3",
      "min": [
        -0.17154,
        0.91225,
        -1.03372
      ],
      "max": [
        -0.07356,
        1.06527,
        -0.6302
      ]
    },
    {
      "bufferView": 2,
      "byteOffset": 113088,
      "componentType": 5126,
      "count": 691,
      "type": "VEC3"
    },
    {
      "bufferView": 3,
      "byteOffset": 75392,
      "componentType": 5126,
      "count": 691,
      "type": "VEC2"
    },
    {
      "bufferView": 0,
      "byteOffset": 149796,
      "componentType": 5125,
      "count": 2376,
      "type": "SCALAR"
    },
    {
      "bufferView": 1,
      "byteOffset": 121380,
      "componentType": 5126,
      "count": 80,
      "type": "VEC3",
      "min": [
        -0.1588,
        0.92897,
        -1.0148
      ],
      "max": [
        -0.08251,
        1.04912,
        -0.63468
      ]
    },
    {
      "bufferView": 2,
      "byteOffset": 121380,
      "componentType": 5126,
      "count": 80,
      "type": "VEC3"
    },
    {
      "bufferView": 3,
      "byteOffset": 80920,
      "componentType": 5126,
      "count": 80,
      "type": "VEC2"
    },
    {
      "bufferView": 0,
      "byteOffset": 159300,
      "componentType": 5125,
      "count": 252,
      "type": "SCALAR"
    },
    {
      "bufferView": 1,
      "byteOffset": 122340,
      "componentType": 5126,
      "count": 112,
      "type": "VEC3",
      "min": [
        -0.1588,
        0.92897,
        -1.0148
      ],
      "max": [
        -0.08251,
        1.04912,
        -0.63468
      ]
    },
    {
      "bufferView": 2,
      "byteOffset": 122340,
      "componentType": 5126,
      "count": 112,
      "type": "VEC3"
    },
    {
      "bufferView": 3,
      "byteOffset": 81560,
      "componentType": 5126,
      "count": 112,
      "type": "VEC2"
    },
    {
      "bufferView": 0,
      "byteOffset": 160308,
      "componentType": 5125,
      "count": 900,
      "type": "SCALAR"
    }
  ],
  "materials": [
    {
      "pbrMetallicRoughness": {
        "baseColorFactor": [
          0.5,
          0.5,
          0.5,
          0.10000000149011612
        ],
        "roughnessFactor": 1.0,
        "metallicFactor": 0.0,
        "baseColorTexture": {
          "index": 0
        }
      },
      "emissiveFactor": [
        0.0,
        0.0,
        0.0
      ]
    },
    {
      "pbrMetallicRoughness": {
        "baseColorFactor": [
          0.5,
          0.5,
          0.5,
          0.10000000149011612
        ],
        "roughnessFactor": 1.0,
        "metallicFactor": 0.0
      },
      "emissiveFactor": [
        0.0,
        0.0,
        0.0
      ]
    },
    {
      "pbrMetallicRoughness": {
        "baseColorFactor": [
          0.20000000298023224,
          0.20000000298023224,
          0.20000000298023224,
          1.0
        ],
        "roughnessFactor": 1.0,
        "metallicFactor": 0.0
      },
      "emissiveFactor": [
        0.0,
        0.0,
        0.0
      ]
    },
    {
      "pbrMetallicRoughness": {
        "baseColorFactor": [
          0.5,
          0.60000002384185791,
          0.699999988079071,
          1.0
        ],
        "roughnessFactor": 1.0,
        "metallicFactor": 0.0
      },
      "emissiveFactor": [
        0.0,
        0.0,
        0.0
      ]
    },
    {
      "pbrMetallicRoughness": {
        "baseColorFactor": [
          0.800000011920929,
          0.800000011920929,
          0.800000011920929,
          1.0
        ],
        "roughnessFactor": 1.0,
        "metallicFactor": 0.0
      },
      "emissiveFactor": [
        0.0,
        0.0,
        0.0
      ]
    },
    {
      "pbrMetallicRoughness": {
        "baseColorFactor": [
          0.5,
          0.5,
          0.5,
          0.10000000149011612
        ],
        "roughnessFactor": 1.0,
        "metallicFactor": 0.0,
        "baseColorTexture": {
          "index": 1
        }
      },
      "emissiveFactor": [
        0.0,
        0.0,
        0.0
      ]
    },
    {
      "pbrMetallicRoughness": {
        "baseColorFactor": [
          1.0,
          1.0,
          1.0,
          1.0
        ],
        "roughnessFactor": 1.0,
        "metallicFactor": 0.0,
        "baseColorTexture": {
          "index": 2
        }
      },
      "emissiveFactor": [
        0.0,
        0.0,
        0.0
      ]
    },
    {
      "pbrMetallicRoughness": {
        "baseColorFactor": [
          0.5,
          0.60000002384185791,
          0.699999988079071,
          1.0
        ],
        "roughnessFactor": 1.0,
        "metallicFactor": 0.0,
        "baseColorTexture": {
          "index": 2
        }
      },
      "emissiveFactor": [
        0.0,
        0.0,
        0.0
      ]
    },
    {
      "pbrMetallicRoughness": {
        "baseColorFactor": [
          0.800000011920929,
          0.800000011920929,
          0.800000011920929,
          1.0
        ],
        "roughnessFactor": 1.0,
        "metallicFactor": 0.0,
        "baseColorTexture": {
          "index": 2
        }
      },
      "emissiveFactor": [
        0.0,
        0.0,
        0.0
      ]
    },
    {
      "pbrMetallicRoughness": {
        "baseColorFactor": [
          0.20000000298023224,
          0.20000000298023224,
          0.20000000298023224,
          1.0
        ],
        "roughnessFactor": 1.0,
        "metallicFactor": 0.0,
        "baseColorTexture": {
          "index": 2
        }
      },
      "emissiveFactor": [
        0.0,
        0.0,
        0.0
      ]
    },
    {
      "pbrMetallicRoughness": {
        "baseColorFactor": [
          0.5,
          0.5,
          0.5,
          1.0
        ],
        "roughnessFactor": 1.0,
        "metallicFactor": 0.0,
        "baseColorTexture": {
          "index": 2
        }
      },
      "emissiveFactor": [
        0.0,
        0.0,
        0.0
      ]
    },
    {
      "pbrMetallicRoughness": {
        "baseColorFactor": [
          0.800000011920929,
          0.800000011920929,
          0.800000011920929,
          1.0
        ],
        "roughnessFactor": 1.0,
        "metallicFactor": 0.0,
        "baseColorTexture": {
          "index": 3
        }
      },
      "emissiveFactor": [
        0.0,
        0.0,
        0.0
      ]
    },
    {
      "pbrMetallicRoughness": {
        "baseColorFactor": [
          0.800000011920929,
          0.800000011920929,
          0.800000011920929,
          1.0
        ],
        "roughnessFactor": 1.0,
        "metallicFactor": 0.0,
        "baseColorTexture": {
          "index": 4
        }
      },
      "emissiveFactor": [
        0.0,
        0.0,
        0.0
      ]
    },
    {
      "pbrMetallicRoughness": {
        "baseColorFactor": [
          0.800000011920929,
          0.800000011920929,
          0.800000011920929,
          1.0
        ],
        "roughnessFactor": 1.0,
        "metallicFactor": 0.0,
        "baseColorTexture": {
          "index": 5
        }
      },
      "emissiveFactor": [
        0.0,
        0.0,
        0.0
      ]
    },
    {
      "pbrMetallicRoughness": {
        "baseColorFactor": [
          0.800000011920929,
          0.800000011920929,
          0.800000011920929,
          1.0
        ],
        "roughnessFactor": 1.0,
        "metallicFactor": 0.0,
        "baseColorTexture": {
          "index": 6
        }
      },
      "emissiveFactor": [
        0.0,
        0.0,
        0.0
      ]
    },
    {
      "pbrMetallicRoughness": {
        "baseColorFactor": [
          0.5,
          0.699999988079071,
          0.699999988079071,
          0.10000000149011612
        ],
        "roughnessFactor": 1.0,
        "metallicFactor": 0.0,
        "baseColorTexture": {
          "index": 7
        }
      },
      "emissiveFactor": [
        0.0,
        0.0,
        0.0
      ]
    }
  ],
  "textures": [
    {
      "source": 0,
      "name": "canopyx"
    },
    {
      "source": 1,
      "name": "ds_glass"
    },
    {
      "source": 2,
      "name": "ls7_1a"
    },
    {
      "source": 3,
      "name": "ls7_2b"
    },
    {
      "source": 4,
      "name": "ls7_2c"
    },
    {
      "source": 5,
      "name": "ls7_3a"
    },
    {
      "source": 6,
      "name": "ls7_4a"
    },
    {
      "source": 7,
      "name": "ls7_5a"
    }
  ],
  "images": [
    {
      "uri": "canopyx.png"
    },
    {
      "uri": "ds_glass.png"
    },
    {
      "uri": "ls7_1a.png"
    },
    {
      "uri": "ls7_2b.png"
    },
    {
      "uri": "ls7_2c.png"
    },
    {
      "uri": "ls7_3a.png"
    },
    {
      "uri": "ls7_4a.png"
    },
    {
      "uri": "ls7_5a.png"
    }
  ],
  "bufferViews": [
    {
      "buffer": 0,
      "byteOffset": 0,
      "byteLength": 163908
    },
    {
      "buffer": 0,
      "byteOffset": 163908,
      "byteLength": 123684
    },
    {
      "buffer": 0,
      "byteOffset": 287592,
      "byteLength": 123684
    },
    {
      "buffer": 0,
      "byteOffset": 411276,
      "byteLength": 82456
    }
  ],
  "buffers": [
    {
      "byteLength": 493732,
      "uri": "LS7_stat.bin"
    }
  ]
}