{
  "asset": {
    "version": "2.0",
    "generator": "ModelConverterX"
  },
  "extensionsUsed": [],
  "scene": 0,
  "scenes": [
    {
      "nodes": [
        0
      ]
    }
  ],
  "nodes": [
    {
      "name": "node0",
      "children": [
        1,
        2,
        3,
        4,
        5,
        6,
        7,
        8,
        9,
        10,
        11
      ]
    },
    {
      "name": "node1",
      "mesh": 0
    },
    {
      "name": "node2",
      "mesh": 1
    },
    {
      "name": "node3",
      "mesh": 2
    },
    {
      "name": "node4",
      "mesh": 3
    },
    {
      "name": "node5",
      "mesh": 4
    },
    {
      "name": "node6",
      "mesh": 5
    },
    {
      "name": "node7",
      "mesh": 6
    },
    {
      "name": "node8",
      "mesh": 7
    },
    {
      "name": "node9",
      "mesh": 8
    },
    {
      "name": "node10",
      "mesh": 9
    },
    {
      "name": "node11",
      "mesh": 10
    }
  ],
  "meshes": [
    {
      "primitives": [
        {
          "attributes": {
            "POSITION": 0,
            "NORMAL": 1,
            "TEXCOORD_0": 2
          },
          "indices": 3,
          "mode": 4,
          "material": 8
        }
      ],
      "name": "part000"
    },
    {
      "primitives": [
        {
          "attributes": {
            "POSITION": 4,
            "NORMAL": 5,
            "TEXCOORD_0": 6
          },
          "indices": 7,
          "mode": 4,
          "material": 9
        }
      ],
      "name": "part001"
    },
    {
      "primitives": [
        {
          "attributes": {
            "POSITION": 8,
            "NORMAL": 9,
            "TEXCOORD_0": 10
          },
          "indices": 11,
          "mode": 4,
          "material": 6
        }
      ],
      "name": "part002"
    },
    {
      "primitives": [
        {
          "attributes": {
            "POSITION": 12,
            "NORMAL": 13,
            "TEXCOORD_0": 14
          },
          "indices": 15,
          "mode": 4,
          "material": 3
        }
      ],
      "name": "part003"
    },
    {
      "primitives": [
        {
          "attributes": {
            "POSITION": 16,
            "NORMAL": 17,
            "TEXCOORD_0": 18
          },
          "indices": 19,
          "mode": 4,
          "material": 7
        }
      ],
      "name": "part004"
    },
    {
      "primitives": [
        {
          "attributes": {
            "POSITION": 20,
            "NORMAL": 21,
            "TEXCOORD_0": 22
          },
          "indices": 23,
          "mode": 4,
          "material": 5
        }
      ],
      "name": "part005"
    },
    {
      "primitives": [
        {
          "attributes": {
            "POSITION": 24,
            "NORMAL": 25,
            "TEXCOORD_0": 26
          },
          "indices": 27,
          "mode": 4,
          "material": 10
        }
      ],
      "name": "part006"
    },
    {
      "primitives": [
        {
          "attributes": {
            "POSITION": 28,
            "NORMAL": 29,
            "TEXCOORD_0": 30
          },
          "indices": 31,
          "mode": 4,
          "material": 1
        }
      ],
      "name": "part007"
    },
    {
      "primitives": [
        {
          "attributes": {
            "POSITION": 32,
            "NORMAL": 33,
            "TEXCOORD_0": 34
          },
          "indices": 35,
          "mode": 4,
          "material": 0
        }
      ],
      "name": "part008"
    },
    {
      "primitives": [
        {
          "attributes": {
            "POSITION": 36,
            "NORMAL": 37,
            "TEXCOORD_0": 38
          },
          "indices": 39,
          "mode": 4,
          "material": 2
        }
      ],
      "name": "part009"
    },
    {
      "primitives": [
        {
          "attributes": {
            "POSITION": 40,
            "NORMAL": 41,
            "TEXCOORD_0": 42
          },
          "indices": 43,
          "mode": 4,
          "material": 4
        }
      ],
      "name": "part010"
    }
  ],
  "accessors": [
    {
      "bufferView": 1,
      "byteOffset": 0,
      "componentType": 5126,
      "count": 661,
      "type": "VEC3",
      "min": [
        -0.43945,
        0.29883,
        -1.82129
      ],
      "max": [
        0.26563,
        1.11621,
        0.37305
      ]
    },
    {
      "bufferView": 2,
      "byteOffset": 0,
      "componentType": 5126,
      "count": 661,
      "type": "VEC3"
    },
    {
      "bufferView": 3,
      "byteOffset": 0,
      "componentType": 5126,
      "count": 661,
      "type": "VEC2"
    },
    {
      "bufferView": 0,
      "byteOffset": 0,
      "componentType": 5125,
      "count": 3072,
      "type": "SCALAR"
    },
    {
      "bufferView": 1,
      "byteOffset": 7932,
      "componentType": 5126,
      "count": 288,
      "type": "VEC3",
      "min": [
        -0.45312,
        0.2373,
        -2.5
      ],
      "max": [
        0.29102,
        1.19727,
        0.38477
      ]
    },
    {
      "bufferView": 2,
      "byteOffset": 7932,
      "componentType": 5126,
      "count": 288,
      "type": "VEC3"
    },
    {
      "bufferView": 3,
      "byteOffset": 5288,
      "componentType": 5126,
      "count": 288,
      "type": "VEC2"
    },
    {
      "bufferView": 0,
      "byteOffset": 12288,
      "componentType": 5125,
      "count": 1446,
      "type": "SCALAR"
    },
    {
      "bufferView": 1,
      "byteOffset": 11388,
      "componentType": 5126,
      "count": 1015,
      "type": "VEC3",
      "min": [
        -10.05274,
        0.03809,
        -1.18555
      ],
      "max": [
        9.75488,
        2.46387,
        1.47656
      ]
    },
    {
      "bufferView": 2,
      "byteOffset": 11388,
      "componentType": 5126,
      "count": 1015,
      "type": "VEC3"
    },
    {
      "bufferView": 3,
      "byteOffset": 7592,
      "componentType": 5126,
      "count": 1015,
      "type": "VEC2"
    },
    {
      "bufferView": 0,
      "byteOffset": 18072,
      "componentType": 5125,
      "count": 3504,
      "type": "SCALAR"
    },
    {
      "bufferView": 1,
      "byteOffset": 23568,
      "componentType": 5126,
      "count": 172,
      "type": "VEC3",
      "min": [
        -0.42285,
        0.21289,
        -2.57227
      ],
      "max": [
        0.25195,
        1.58691,
        6.33203
      ]
    },
    {
      "bufferView": 2,
      "byteOffset": 23568,
      "componentType": 5126,
      "count": 172,
      "type": "VEC3"
    },
    {
      "bufferView": 3,
      "byteOffset": 15712,
      "componentType": 5126,
      "count": 172,
      "type": "VEC2"
    },
    {
      "bufferView": 0,
      "byteOffset": 32088,
      "componentType": 5125,
      "count": 510,
      "type": "SCALAR"
    },
    {
      "bufferView": 1,
      "byteOffset": 25632,
      "componentType": 5126,
      "count": 67,
      "type": "VEC3",
      "min": [
        -0.41992,
        0.43262,
        -1.72559
      ],
      "max": [
        0.27539,
        1.19336,
        0.38476
      ]
    },
    {
      "bufferView": 2,
      "byteOffset": 25632,
      "componentType": 5126,
      "count": 67,
      "type": "VEC3"
    },
    {
      "bufferView": 3,
      "byteOffset": 17088,
      "componentType": 5126,
      "count": 67,
      "type": "VEC2"
    },
    {
      "bufferView": 0,
      "byteOffset": 34128,
      "componentType": 5125,
      "count": 183,
      "type": "SCALAR"
    },
    {
      "bufferView": 1,
      "byteOffset": 26436,
      "componentType": 5126,
      "count": 4626,
      "type": "VEC3",
      "min": [
        -1.72363,
        -0.05371,
        -2.57227
      ],
      "max": [
        1.35254,
        1.83301,
        6.33203
      ]
    },
    {
      "bufferView": 2,
      "byteOffset": 26436,
      "componentType": 5126,
      "count": 4626,
      "type": "VEC3"
    },
    {
      "bufferView": 3,
      "byteOffset": 17624,
      "componentType": 5126,
      "count": 4626,
      "type": "VEC2"
    },
    {
      "bufferView": 0,
      "byteOffset": 34860,
      "componentType": 5125,
      "count": 18519,
      "type": "SCALAR"
    },
    {
      "bufferView": 1,
      "byteOffset": 81948,
      "componentType": 5126,
      "count": 117,
      "type": "VEC3",
      "min": [
        -0.45605,
        0.7627,
        -1.88965
      ],
      "max": [
        0.27051,
        1.2832,
        0.31152
      ]
    },
    {
      "bufferView": 2,
      "byteOffset": 81948,
      "componentType": 5126,
      "count": 117,
      "type": "VEC3"
    },
    {
      "bufferView": 3,
      "byteOffset": 54632,
      "componentType": 5126,
      "count": 117,
      "type": "VEC2"
    },
    {
      "bufferView": 0,
      "byteOffset": 108936,
      "componentType": 5125,
      "count": 576,
      "type": "SCALAR"
    },
    {
      "bufferView": 1,
      "byteOffset": 83352,
      "componentType": 5126,
      "count": 280,
      "type": "VEC3",
      "min": [
        -0.44434,
        0.86133,
        -1.38086
      ],
      "max": [
        -0.37109,
        0.8916,
        -0.40137
      ]
    },
    {
      "bufferView": 2,
      "byteOffset": 83352,
      "componentType": 5126,
      "count": 280,
      "type": "VEC3"
    },
    {
      "bufferView": 3,
      "byteOffset": 55568,
      "componentType": 5126,
      "count": 280,
      "type": "VEC2"
    },
    {
      "bufferView": 0,
      "byteOffset": 111240,
      "componentType": 5125,
      "count": 1638,
      "type": "SCALAR"
    },
    {
      "bufferView": 1,
      "byteOffset": 86712,
      "componentType": 5126,
      "count": 120,
      "type": "VEC3",
      "min": [
        -0.45215,
        0.79004,
        -1.40918
      ],
      "max": [
        -0.37793,
        0.93066,
        -0.08398
      ]
    },
    {
      "bufferView": 2,
      "byteOffset": 86712,
      "componentType": 5126,
      "count": 120,
      "type": "VEC3"
    },
    {
      "bufferView": 3,
      "byteOffset": 57808,
      "componentType": 5126,
      "count": 120,
      "type": "VEC2"
    },
    {
      "bufferView": 0,
      "byteOffset": 117792,
      "componentType": 5125,
      "count": 480,
      "type": "SCALAR"
    },
    {
      "bufferView": 1,
      "byteOffset": 88152,
      "componentType": 5126,
      "count": 574,
      "type": "VEC3",
      "min": [
        -0.45215,
        0.79004,
        -1.41016
      ],
      "max": [
        -0.37793,
        0.93262,
        -0.08398
      ]
    },
    {
      "bufferView": 2,
      "byteOffset": 88152,
      "componentType": 5126,
      "count": 574,
      "type": "VEC3"
    },
    {
      "bufferView": 3,
      "byteOffset": 58768,
      "componentType": 5126,
      "count": 574,
      "type": "VEC2"
    },
    {
      "bufferView": 0,
      "byteOffset": 119712,
      "componentType": 5125,
      "count": 864,
      "type": "SCALAR"
    },
    {
      "bufferView": 1,
      "byteOffset": 95040,
      "componentType": 5126,
      "count": 117,
      "type": "VEC3",
      "min": [
        -0.45605,
        0.76367,
        -1.88965
      ],
      "max": [
        0.27051,
        1.2832,
        0.31152
      ]
    },
    {
      "bufferView": 2,
      "byteOffset": 95040,
      "componentType": 5126,
      "count": 117,
      "type": "VEC3"
    },
    {
      "bufferView": 3,
      "byteOffset": 63360,
      "componentType": 5126,
      "count": 117,
      "type": "VEC2"
    },
    {
      "bufferView": 0,
      "byteOffset": 123168,
      "componentType": 5125,
      "count": 576,
      "type": "SCALAR"
    }
  ],
  "materials": [
    {
      "pbrMetallicRoughness": {
        "baseColorFactor": [
          0.5,
          0.5,
          0.5,
          0.20000000298023224
        ],
        "roughnessFactor": 1.0,
        "metallicFactor": 0.0
      },
      "emissiveFactor": [
        0.0,
        0.0,
        0.0
      ]
    },
    {
      "pbrMetallicRoughness": {
        "baseColorFactor": [
          0.5,
          0.800000011920929,
          0.800000011920929,
          0.20000000298023224
        ],
        "roughnessFactor": 1.0,
        "metallicFactor": 0.0
      },
      "emissiveFactor": [
        0.0,
        0.0,
        0.0
      ]
    },
    {
      "pbrMetallicRoughness": {
        "baseColorFactor": [
          0.800000011920929,
          0.800000011920929,
          0.800000011920929,
          0.20000000298023224
        ],
        "roughnessFactor": 1.0,
        "metallicFactor": 0.0
      },
      "emissiveFactor": [
        0.0,
        0.0,
        0.0
      ]
    },
    {
      "pbrMetallicRoughness": {
        "baseColorFactor": [
          0.800000011920929,
          0.800000011920929,
          0.800000011920929,
          1.0
        ],
        "roughnessFactor": 1.0,
        "metallicFactor": 0.0
      },
      "emissiveFactor": [
        0.0,
        0.0,
        0.0
      ]
    },
    {
      "pbrMetallicRoughness": {
        "baseColorFactor": [
          0.0,
          0.30000001192092896,
          0.5,
          0.30000001192092896
        ],
        "roughnessFactor": 1.0,
        "metallicFactor": 0.0,
        "baseColorTexture": {
          "index": 0
        }
      },
      "emissiveFactor": [
        0.0,
        0.0,
        0.0
      ]
    },
    {
      "pbrMetallicRoughness": {
        "baseColorFactor": [
          0.800000011920929,
          0.800000011920929,
          0.800000011920929,
          1.0
        ],
        "roughnessFactor": 1.0,
        "metallicFactor": 0.0,
        "baseColorTexture": {
          "index": 1
        }
      },
      "emissiveFactor": [
        0.0,
        0.0,
        0.0
      ]
    },
    {
      "pbrMetallicRoughness": {
        "baseColorFactor": [
          0.800000011920929,
          0.800000011920929,
          0.800000011920929,
          1.0
        ],
        "roughnessFactor": 1.0,
        "metallicFactor": 0.0,
        "baseColorTexture": {
          "index": 2
        }
      },
      "emissiveFactor": [
        0.0,
        0.0,
        0.0
      ]
    },
    {
      "pbrMetallicRoughness": {
        "baseColorFactor": [
          0.800000011920929,
          0.800000011920929,
          0.800000011920929,
          1.0
        ],
        "roughnessFactor": 1.0,
        "metallicFactor": 0.0,
        "baseColorTexture": {
          "index": 3
        }
      },
      "emissiveFactor": [
        0.0,
        0.0,
        0.0
      ]
    },
    {
      "pbrMetallicRoughness": {
        "baseColorFactor": [
          0.800000011920929,
          0.800000011920929,
          0.800000011920929,
          1.0
        ],
        "roughnessFactor": 1.0,
        "metallicFactor": 0.0,
        "baseColorTexture": {
          "index": 4
        }
      },
      "emissiveFactor": [
        0.0,
        0.0,
        0.0
      ]
    },
    {
      "pbrMetallicRoughness": {
        "baseColorFactor": [
          0.800000011920929,
          0.800000011920929,
          0.800000011920929,
          1.0
        ],
        "roughnessFactor": 1.0,
        "metallicFactor": 0.0,
        "baseColorTexture": {
          "index": 5
        }
      },
      "emissiveFactor": [
        0.0,
        0.0,
        0.0
      ]
    },
    {
      "pbrMetallicRoughness": {
        "baseColorFactor": [
          0.5,
          0.699999988079071,
          0.699999988079071,
          0.10000000149011612
        ],
        "roughnessFactor": 1.0,
        "metallicFactor": 0.0,
        "baseColorTexture": {
          "index": 6
        }
      },
      "emissiveFactor": [
        0.0,
        0.0,
        0.0
      ]
    }
  ],
  "textures": [
    {
      "source": 0,
      "name": "ds_glass1"
    },
    {
      "source": 1,
      "name": "duo_1"
    },
    {
      "source": 2,
      "name": "duo_2"
    },
    {
      "source": 3,
      "name": "duo_3"
    },
    {
      "source": 4,
      "name": "duo_5"
    },
    {
      "source": 5,
      "name": "duo_6"
    },
    {
      "source": 6,
      "name": "duo_7"
    }
  ],
  "images": [
    {
      "uri": "ds_glass1.png"
    },
    {
      "uri": "duo_1.png"
    },
    {
      "uri": "duo_2.png"
    },
    {
      "uri": "duo_3.png"
    },
    {
      "uri": "duo_5.png"
    },
    {
      "uri": "duo_6.png"
    },
    {
      "uri": "duo_7.png"
    }
  ],
  "bufferViews": [
    {
      "buffer": 0,
      "byteOffset": 0,
      "byteLength": 125472
    },
    {
      "buffer": 0,
      "byteOffset": 125472,
      "byteLength": 96444
    },
    {
      "buffer": 0,
      "byteOffset": 221916,
      "byteLength": 96444
    },
    {
      "buffer": 0,
      "byteOffset": 318360,
      "byteLength": 64296
    }
  ],
  "buffers": [
    {
      "byteLength": 382656,
      "uri": "Duo_Discus_stat.bin"
    }
  ]
}