{
  "asset": {
    "version": "2.0",
    "generator": "ModelConverterX"
  },
  "extensionsUsed": [
    "ASOBO_material_day_night_switch"
  ],
  "scene": 0,
  "scenes": [
    {
      "nodes": [
        0
      ]
    }
  ],
  "nodes": [
    {
      "name": "node0",
      "children": [
        1,
        2
      ]
    },
    {
      "name": "node1",
      "mesh": 0
    },
    {
      "name": "node2",
      "mesh": 1
    }
  ],
  "meshes": [
    {
      "primitives": [
        {
          "attributes": {
            "POSITION": 0,
            "NORMAL": 1,
            "TEXCOORD_0": 2
          },
          "indices": 3,
          "mode": 4,
          "material": 1
        }
      ],
      "name": "part000"
    },
    {
      "primitives": [
        {
          "attributes": {
            "POSITION": 4,
            "NORMAL": 5,
            "TEXCOORD_0": 6
          },
          "indices": 7,
          "mode": 4,
          "material": 0
        }
      ],
      "name": "part001"
    }
  ],
  "accessors": [
    {
      "bufferView": 1,
      "byteOffset": 0,
      "componentType": 5126,
      "count": 128,
      "type": "VEC3",
      "min": [
        -0.5,
        0.0,
        -2.5
      ],
      "max": [
        2.5,
        2.0,
        0.5
      ]
    },
    {
      "bufferView": 2,
      "byteOffset": 0,
      "componentType": 5126,
      "count": 128,
      "type": "VEC3"
    },
    {
      "bufferView": 3,
      "byteOffset": 0,
      "componentType": 5126,
      "count": 128,
      "type": "VEC2"
    },
    {
      "bufferView": 0,
      "byteOffset": 0,
      "componentType": 5125,
      "count": 396,
      "type": "SCALAR"
    },
    {
      "bufferView": 1,
      "byteOffset": 1536,
      "componentType": 5126,
      "count": 64,
      "type": "VEC3",
      "min": [
        1.224606403453214E-17,
        1.1000000238418579,
        -2.0
      ],
      "max": [
        2.0,
        1.8999999761581421,
        2.326752125202076E-16
      ]
    },
    {
      "bufferView": 2,
      "byteOffset": 1536,
      "componentType": 5126,
      "count": 64,
      "type": "VEC3"
    },
    {
      "bufferView": 3,
      "byteOffset": 1024,
      "componentType": 5126,
      "count": 64,
      "type": "VEC2"
    },
    {
      "bufferView": 0,
      "byteOffset": 1584,
      "componentType": 5125,
      "count": 96,
      "type": "SCALAR"
    }
  ],
  "materials": [
    {
      "name": "material00",
      "pbrMetallicRoughness": {
        "baseColorFactor": [
          0.047058820724487305,
          0.074509799480438232,
          0.11764709651470184,
          0.50196075439453125
        ],
        "roughnessFactor": 1.0,
        "metallicFactor": 0.0
      },
      "emissiveFactor": [
        0.0,
        0.0,
        0.0
      ],
      "alphaMode": "BLEND",
      "extensions": {
        "ASOBO_material_day_night_switch": {
          "enabled": true
        }
      }
    },
    {
      "name": "material01",
      "pbrMetallicRoughness": {
        "baseColorFactor": [
          1.0,
          1.0,
          1.0,
          1.0
        ],
        "roughnessFactor": 1.0,
        "metallicFactor": 0.0,
        "baseColorTexture": {
          "index": 0
        },
        "metallicRoughnessTexture": {
          "index": 1
        }
      },
      "emissiveFactor": [
        0.0,
        0.0,
        0.0
      ],
      "normalTexture": {
        "index": 2
      },
      "occlusionTexture": {
        "index": 1
      },
      "extensions": {
        "ASOBO_material_day_night_switch": {
          "enabled": true
        }
      }
    }
  ],
  "textures": [
    {
      "source": 0,
      "name": "kibuishedroof"
    },
    {
      "source": 1,
      "name": "kibuishedroof_comp"
    },
    {
      "source": 2,
      "name": "kibuishedroof_norm"
    }
  ],
  "images": [
    {
      "uri": "kibuishedroof.png"
    },
    {
      "uri": "kibuishedroof_comp.png"
    },
    {
      "uri": "kibuishedroof_norm.png"
    }
  ],
  "bufferViews": [
    {
      "buffer": 0,
      "byteOffset": 0,
      "byteLength": 1968
    },
    {
      "buffer": 0,
      "byteOffset": 1968,
      "byteLength": 2304,
      "byteStride": 12
    },
    {
      "buffer": 0,
      "byteOffset": 4272,
      "byteLength": 2304,
      "byteStride": 12
    },
    {
      "buffer": 0,
      "byteOffset": 6576,
      "byteLength": 1536,
      "byteStride": 8
    }
  ],
  "buffers": [
    {
      "byteLength": 8112,
      "uri": "LLMGTowerTop.bin"
    }
  ]
}