{
  "asset": {
    "version": "2.0",
    "generator": "ModelConverterX"
  },
  "extensionsUsed": [
    "ASOBO_material_day_night_switch"
  ],
  "scene": 0,
  "scenes": [
    {
      "nodes": [
        0
      ]
    }
  ],
  "nodes": [
    {
      "name": "node0",
      "children": [
        1
      ]
    },
    {
      "name": "node1",
      "mesh": 0
    }
  ],
  "meshes": [
    {
      "primitives": [
        {
          "attributes": {
            "POSITION": 0,
            "NORMAL": 1,
            "TEXCOORD_0": 2
          },
          "indices": 3,
          "mode": 4,
          "material": 0
        }
      ],
      "name": "part000"
    }
  ],
  "accessors": [
    {
      "bufferView": 1,
      "byteOffset": 0,
      "componentType": 5126,
      "count": 1070,
      "type": "VEC3",
      "min": [
        8.0738295449024477E-18,
        0.0,
        -0.85649001598358154
      ],
      "max": [
        0.87145000696182251,
        0.78354001045227051,
        9.8644490890280356E-17
      ]
    },
    {
      "bufferView": 2,
      "byteOffset": 0,
      "componentType": 5126,
      "count": 1070,
      "type": "VEC3"
    },
    {
      "bufferView": 3,
      "byteOffset": 0,
      "componentType": 5126,
      "count": 1070,
      "type": "VEC2"
    },
    {
      "bufferView": 0,
      "byteOffset": 0,
      "componentType": 5125,
      "count": 1962,
      "type": "SCALAR"
    }
  ],
  "materials": [
    {
      "name": "material00",
      "pbrMetallicRoughness": {
        "baseColorFactor": [
          1.0,
          1.0,
          1.0,
          1.0
        ],
        "roughnessFactor": 1.0,
        "metallicFactor": 0.0,
        "baseColorTexture": {
          "index": 0
        },
        "metallicRoughnessTexture": {
          "index": 1
        }
      },
      "emissiveFactor": [
        0.0,
        0.0,
        0.0
      ],
      "normalTexture": {
        "index": 2
      },
      "occlusionTexture": {
        "index": 1
      },
      "extensions": {
        "ASOBO_material_day_night_switch": {
          "enabled": true
        }
      }
    }
  ],
  "textures": [
    {
      "source": 0,
      "name": "greenmetalbox"
    },
    {
      "source": 1,
      "name": "greenmetalbox_comp"
    },
    {
      "source": 2,
      "name": "greenmetalbox_norm"
    }
  ],
  "images": [
    {
      "uri": "greenmetalbox.png"
    },
    {
      "uri": "greenmetalbox_comp.png"
    },
    {
      "uri": "greenmetalbox_norm.png"
    }
  ],
  "bufferViews": [
    {
      "buffer": 0,
      "byteOffset": 0,
      "byteLength": 7848
    },
    {
      "buffer": 0,
      "byteOffset": 7848,
      "byteLength": 12840,
      "byteStride": 12
    },
    {
      "buffer": 0,
      "byteOffset": 20688,
      "byteLength": 12840,
      "byteStride": 12
    },
    {
      "buffer": 0,
      "byteOffset": 33528,
      "byteLength": 8560,
      "byteStride": 8
    }
  ],
  "buffers": [
    {
      "byteLength": 42088,
      "uri": "GreenMetalBox.bin"
    }
  ]
}