{
  "asset": {
    "version": "2.0",
    "generator": "ModelConverterX"
  },
  "extensionsUsed": [],
  "scene": 0,
  "scenes": [
    {
      "nodes": [
        0
      ]
    }
  ],
  "nodes": [
    {
      "name": "node0",
      "children": [
        1
      ]
    },
    {
      "name": "node1",
      "mesh": 0
    }
  ],
  "meshes": [
    {
      "primitives": [
        {
          "attributes": {
            "POSITION": 0,
            "NORMAL": 1,
            "TEXCOORD_0": 2
          },
          "indices": 3,
          "mode": 4,
          "material": 0
        }
      ],
      "name": "part000"
    }
  ],
  "accessors": [
    {
      "bufferView": 1,
      "byteOffset": 0,
      "componentType": 5126,
      "count": 3594,
      "type": "VEC3",
      "min": [
        0.0331,
        0.02324,
        -10.4716
      ],
      "max": [
        11.8695,
        0.93764,
        -0.03497
      ]
    },
    {
      "bufferView": 2,
      "byteOffset": 0,
      "componentType": 5126,
      "count": 3594,
      "type": "VEC3"
    },
    {
      "bufferView": 3,
      "byteOffset": 0,
      "componentType": 5126,
      "count": 3594,
      "type": "VEC2"
    },
    {
      "bufferView": 0,
      "byteOffset": 0,
      "componentType": 5125,
      "count": 3708,
      "type": "SCALAR"
    }
  ],
  "materials": [
    {
      "pbrMetallicRoughness": {
        "baseColorFactor": [
          1.0,
          1.0,
          1.0,
          1.0
        ],
        "roughnessFactor": 1.0,
        "metallicFactor": 0.0,
        "baseColorTexture": {
          "index": 0
        }
      },
      "emissiveFactor": [
        0.0,
        0.0,
        0.0
      ],
      "alphaMode": "BLEND"
    }
  ],
  "textures": [
    {
      "source": 0,
      "name": "blueshade"
    }
  ],
  "images": [
    {
      "uri": "blueshade.png"
    }
  ],
  "bufferViews": [
    {
      "buffer": 0,
      "byteOffset": 0,
      "byteLength": 14832
    },
    {
      "buffer": 0,
      "byteOffset": 14832,
      "byteLength": 43128
    },
    {
      "buffer": 0,
      "byteOffset": 57960,
      "byteLength": 43128
    },
    {
      "buffer": 0,
      "byteOffset": 101088,
      "byteLength": 28752
    }
  ],
  "buffers": [
    {
      "byteLength": 129840,
      "uri": "BlueShade.bin"
    }
  ]
}